<?xml version="1.0" encoding="UTF-8"?>
<!DOCTYPE svg PUBLIC "-//W3C//DTD SVG 1.1//EN" "http://www.w3.org/Graphics/SVG/1.1/DTD/svg11.dtd">
<!-- Creator: CorelDRAW 2018 (64-Bit) -->
<svg xmlns="http://www.w3.org/2000/svg" xml:space="preserve" width="512px" height="512px" version="1.1" style="shape-rendering:geometricPrecision; text-rendering:geometricPrecision; image-rendering:optimizeQuality; fill-rule:evenodd; clip-rule:evenodd"
viewBox="0 0 512 512"
 xmlns:xlink="http://www.w3.org/1999/xlink">
 <defs>
  <style type="text/css">
   <![CDATA[
    .fil2 {fill:#6DC7D9}
    .fil0 {fill:#8C623A}
    .fil1 {fill:#90C046}
    .fil5 {fill:#A68767}
    .fil6 {fill:#B6CC85}
    .fil4 {fill:#DBE7C5}
    .fil3 {fill:#FDFEFD}
   ]]>
  </style>
 </defs>
 <g id="Слой_x0020_1">
  <metadata id="CorelCorpID_0Corel-Layer"/>
  <g id="_1582032270832">
   <path class="fil0" d="M265 411.05l0.29 0.29c-0.02,-0.02 -0.39,-0.19 -0.29,-0.29zm0.19 -4.06l0.62 -0.93 1.89 2.28 -0.61 0.94 -1.9 -2.29zm5.61 6.34l-0.21 -1.31c-0.48,-0.52 -1.3,0.98 -0.5,-1.63 0.74,-2.37 -0.36,-1.06 0.71,0.01 0.43,-0.62 1.34,-0.72 1.93,-1.24 0.91,1.36 2.16,3.03 3.72,4.88l3.57 3.77c1.46,2.99 1.22,1.74 2.45,4.78 1.51,3.75 -0.22,2.66 2.82,4.88 0,-15 -9.43,-11.84 -9.66,-22.22 5.5,3.69 3.38,7.28 8.69,8.7 -1.19,-5.11 -3.93,-9.05 -7.73,-11.59 1.71,-2.4 0.76,-0.41 2.27,0.68 1.59,1.16 -0.21,0.42 1.43,0.61 4.42,0.52 -2.97,-1.81 4.03,-0.33l0 -1.93c-2.61,-0.22 -4.13,-0.25 -5.1,-2.34 -1.35,-2.93 0.5,-1 0.55,-1.06 2.12,-2 -0.14,3.24 1.65,-1.43 -5.1,-2.7 -3.55,-1.01 -6.76,-5.8l2.27 -0.06c0.04,0.01 0.29,0.03 0.32,0.03 0.03,0.01 0.21,0.07 0.31,0.03l0 -5.79c4.77,5.03 2.1,0.06 1.93,7.73 3.76,-2.76 0.06,-1.52 3.86,-2.9 2.74,4.08 4.36,8.28 5.8,14.49l1.93 0c-0.51,-2.2 -2.06,-7.92 -2.9,-9.66 1.54,-0.77 -1.77,-0.99 2.9,0l0 -1.93c-5.7,-1.53 -1.14,-0.88 -3.86,-12.56 12.46,8.34 2.88,12.16 8.69,16.42l0 -7.73c3.64,1.93 8.25,4.52 11.6,6.76 -1.18,-4.41 -5.38,-5.18 -10.29,-10 -2.49,-2.45 -0.21,-1.3 -3.24,-3.52l0.81 -1.13c0.32,0 0.53,0.39 0.6,0.68 0.42,1.73 5.08,3.35 9.22,3.35 -1,-0.87 0.18,-0.05 -1.68,-1.22 -6.02,-3.78 -8.01,-4.94 -14.75,-6.51 0.22,-0.14 0.57,-0.53 0.69,-0.31l3.03 -0.58c2.82,0.08 1,0.19 4.01,0.89l0 -1.93c-3.69,-0.31 -6.26,-1.39 -10.49,-2.07 -3.64,-0.59 -6.95,-0.79 -9.79,-2.76l8.69 0c-3.16,-4.31 -9.15,-2.9 -16.42,-2.9l0 -0.97c9.75,0 15.65,-0.94 25.15,-0.93l48.23 -3.93c9.77,-0.28 16.55,-0.93 26.12,-0.93l-96.69 -1.85c-10.31,0.11 -7.34,-4.01 -4.44,-15.3 1.29,-5 -0.25,-2.32 0.14,-6.67 0.49,-5.52 3.11,-6.1 4.43,-25.4 0.48,-7.02 4.75,-19.46 6.84,-26.01 2.13,-6.64 3.35,-54.38 1.81,-60.98 8.81,-2.05 13.93,-7.37 23.18,-4.42l5.8 0.51c2.31,0.1 3.65,0.36 4.83,0.72l6.76 -0.06 0 -1.19 -0.96 0c-5.56,-1.01 -5.88,-1.36 -12.56,-1.36 2.48,-3.38 5.06,-1.08 9.66,-4.19 2.48,-1 4.55,-1.75 7.73,-3.1l1.93 0.56 0.97 0 0.96 0.33 7.27 0.61c5.71,2.35 5.19,1.93 13.07,1.93l0 -0.97c-2.37,-1 -5.96,-1.28 -8.75,-1.93 1.03,-0.71 -0.16,-0.11 1.88,-1.01 4.72,-2.1 10.67,-3.33 13.58,-7.68 -5.05,1.18 -8.01,2.8 -12.56,3.86l-0.97 1.22c-3.6,1.02 -4.27,0.25 -8.16,0.74l-3.43 -0.77c-0.07,-0.18 -0.22,-0.46 -0.21,-0.54 0,-0.08 -0.13,-0.43 -0.11,-0.52 0.25,-1.41 1.31,-1.61 1.98,-2.06 1.22,-3.52 1.77,-3.92 5.1,-5.7l2.26 -2.03c2.01,-4.7 1.68,-3.36 6.3,-5.61l9.28 -3.28c3.05,-1.01 3.44,-1.1 7.28,-1.25 1.57,-1.86 0.63,-0.43 0,-1.45 -3.55,0 -7.98,0.55 -11.13,1.43 -3.61,1 -6.23,2.49 -10.12,3.4 0.68,-2.55 3.33,-5.68 5.16,-7.73 -1.75,-1.15 -2.13,-0.45 -7.02,5.13l-1.04 1.26c-0.78,2.36 -0.82,3.07 -2.27,5.21 -1.64,1.89 -2.21,2.98 -4.15,5.15 -2.9,3.25 -2.12,1.87 -5.17,4.1 -2.03,1.57 -5.25,3.45 -7.73,4.87 -1.54,1.21 -4.06,1.97 -6.44,2.29l-11.46 1.15 8.16 -8.95 1.15 -0.56 1.5 -0.37 2.26 -0.82c2.93,-0.93 4.55,-2.53 6.91,-3.97 3.35,-4.42 0.49,-1.69 -0.15,-2.63l-1.18 0.7 -4.61 2.99c-2.19,0.41 -2.23,0.66 -4.83,0.87 1.02,-3.84 -0.09,0.07 1.43,-3.37 0.83,-1.87 1.04,-2.46 1.79,-4.35l1.61 -2.74 0.96 -1.13 0.97 -0.96c0.83,-3.11 0.44,-1.72 2.24,-3.87 0.21,-0.18 0.51,-0.39 0.68,-0.52l7.71 -4.84c3.41,-2.94 1.64,0.13 2.89,-3.33 -5.19,0.44 -1.02,-0.88 -3.86,1.67 -0.97,0.51 -2.33,1.31 -3.79,2.18 -1.75,1.05 -2.23,1.27 -3.94,2.03 -1.24,1 -2.5,1.9 -3.86,2.81 0,-4.86 0.96,-5.67 0.96,-11.21l-0.96 0c-1.93,2.28 -2.17,8.22 -2.62,10.53 -0.99,5.18 -2.17,5.84 -3.59,10.34l-1.52 2.74c-2.15,4.46 -5.57,10.4 -10.63,11.75l1.29 -4.51c0.08,-0.23 0.16,-0.49 0.24,-0.72 1.09,-2.98 2.01,-3.37 2.34,-7.32 -5,3.34 -4.15,4.92 -6.3,10.62l0.07 2.9 -1.5 0.96c-0.73,2.77 -1.27,2.6 -4.83,2.9 -3.85,3.35 -5.89,2.9 -11.59,2.9 3.19,-13.69 15.23,-17.68 23.37,-24.92 2.55,-2.27 1.14,-2.16 4.64,-3.09 1.97,-2.95 4.28,-3.21 2.9,-5.19l-0.97 0 -1.11 0.36 -0.82 0.66c-2.85,2.48 -3.28,3.19 -6.56,5.34 -2.79,1.83 -5.21,2.97 -6.96,5.59l7.08 -13.21c4.6,-8.18 0.91,-7.05 7.63,-13.61 12.09,-11.79 19.83,-9.89 22.96,-17.97l-0.96 0 -4.95 3.12c-2.46,1.95 -2.62,2.69 -6.65,3.03 2.93,-4.37 7.73,-15 7.73,-22.22 -2.7,1.98 -3,4.53 -4.41,8.15 -1.48,3.81 -2.34,6.21 -4.68,9.24 -1.95,5.58 -5.23,6.53 -9.26,10.09l-1.79 1.65 -0.79 -3.05 0.08 -2.9 -0.83 -2.89 0.12 -4.83 0.77 -12.56 0.38 -3.86 0.56 -0.97 0.53 -0.63c0.71,-3.57 3.14,-8.11 4.88,-10.92 1.38,-2.22 1.5,-1.95 3.03,-4.71 0.84,-1.53 1.71,-3.13 2.72,-4.77l-1.93 -0.02c-4.36,5.63 -9.26,11.92 -12.03,18.68 -1.6,3.92 -0.77,5.25 -3.43,7.2l-2.53 -11.59c-1.61,-0.82 -2.06,-3.63 -1.3,7.73 0.2,2.98 1.01,5.05 2.11,7.51 1.7,3.81 1.7,2.79 1.73,8.91l-0.08 5.79 0.07 0.97 0 0.96c-0.01,9.01 -4.67,20.2 -10.63,27.05 -0.97,3.66 -3.31,4.51 -6.76,9.66l-1.13 -0.8c-0.01,-0.34 0.43,-0.96 0.47,-0.83 0.03,0.12 0.23,-0.53 0.28,-0.7 0.83,-3.48 0.6,-4.88 -0.22,-8.29l-0.05 -1.93c-1.6,-7.86 5.48,-7.73 5.48,-24.16l-1.93 0c-0.5,5.95 -2.85,13.81 -6.76,16.43 -0.33,-3.95 -3.13,-8.84 -4.52,-12.88 -1,-2.91 -2.38,-13.06 -1.73,-15.14l2.38 -9.31 1.1 -6.12c-4.08,1.35 -2.99,2.67 -4.87,9.73 -0.89,3.31 -2.02,9.46 -2.02,13.43 -2.43,-1.62 -3.41,-3.82 -5.54,-6.06 -2.09,-2.19 -3.7,-3.96 -6.06,-5.53l0 2.9 0.97 0.96c2.61,1.75 5.32,6.05 7.36,9.07 3.39,5 2.78,5.96 5.04,11.37 3.62,8.63 6.81,14.93 4.02,26.9 -7.43,-4.98 -4.29,-12.55 -9.66,-14.49 1.66,7.13 0.96,9.63 5.11,15.19 6.13,8.2 1.45,5.62 0.69,14.75 -3,-4.31 -2.42,-7.17 -3.53,-9.99 -1.48,-3.72 -12.4,-9.96 -14.93,5.17 -1.56,9.3 1.36,3.59 3,10.62 -11.94,-8 -32.15,-24.88 -37.67,-36.97l-0.54 -0.7 -0.43 -1.68c-0.54,-0.7 -0.68,-0.56 -1.2,-1.94 -0.48,-1.28 -0.17,-0.73 -0.15,-2.18 -1.32,-3.94 -1.04,-4.17 -2.01,-8.27 -2.7,-11.33 0.61,-7.58 -0.6,-16.74 -0.5,-3.8 -1.73,-4.11 -1.83,-8.8l-0.78 13.5c-2.89,-0.94 -9.01,-9.06 -10.82,-11.34 -1.5,-0.66 -1.57,-0.51 -2.58,-1.47 -2.12,-2 -0.8,-1.09 -1.72,-2.7 -4.85,-1.42 -2.25,-4.25 -8.25,-4.75 8.3,12.39 16.17,9.65 21.63,35.35 1.31,6.15 2.23,10.46 3.48,15.85l0.97 1.64c1.49,0 1.06,-0.34 1.06,1.25l-0.1 0.97 3.41 5.37c4.95,7.66 -1.12,-0.52 3.16,9.27 1.37,3.15 3,7.01 3.09,11.44 -4.62,-3.09 -13.85,-17.89 -14.49,-20.28l-0.96 -0.52c-1.46,-0.94 -1.16,-0.66 -2.54,-1.78 -1.14,-0.93 -0.8,-0.72 -1.61,-1.57 -4.83,-4.01 -5.34,-12.64 -12.27,-14.49 0.79,2.96 4.61,8.08 6.76,9.66l-0.81 1.13c-0.32,0 -0.61,-0.77 -0.69,-0.59l-3.74 -2.11c-1.76,-0.73 -2.99,-1.1 -4.42,-1.67l-3.87 -0.54 -0.96 -0.08c2.07,2.82 6.84,4.5 10.62,6.27l5.87 3.33c2.52,2.66 3.31,2.53 4.92,6.06l-4.27 0.68 -8.33 -2.82 -1.08 -0.96 -2.24 0 0 0.96 2.64 2.45c4.95,2.82 9.33,2.38 15.05,2.38 2.63,3.92 4.11,7.3 6.42,11.94 1.65,3.32 1.47,3.23 3.93,5.73l5.11 4.55c-6.94,0 -17.44,-0.08 -22.19,-1.96 -5.55,-2.19 -4.86,-9.25 -10.65,-13.5 0.29,3.5 2.68,8.16 4.82,10.63l-9.66 -5.8 -0.96 -0.34c-2.08,-1.18 -0.56,-0.33 -2.04,-1.39 -0.1,-0.07 -1.73,-1.26 -1.79,-1.3 -3.09,-2.39 -1.03,0.15 -2.97,-2.76 -4.64,-2.52 -1.43,0.71 -3.29,-3.48 -0.58,-1.29 -1.1,-3.41 -1.5,-4.62 -0.19,-0.2 -0.41,-0.49 -0.52,-0.65l-2.53 -3.85c-1.16,-1.73 -2.55,-2.41 -3.07,-1.89l5.15 11.59c-12.72,-2.96 -2.1,-2.9 -20.29,-2.9 0,3.91 -0.18,0.55 0.97,1.22 5.2,0.74 8.88,0.5 11.56,2.64 3.36,0.78 7.02,2.88 9.69,4.47 1.29,1 1.94,1.58 2.78,2.3 2.54,1.6 2.25,2.09 4.33,3.46 3.28,2.17 1.58,-0.8 3.47,3.2 -3.69,2 -3,1.84 -7.3,1.16 -0.88,0.73 0.69,0.95 -3.28,1.26 2.1,0.8 4.76,0.74 7.7,0.5 5,-0.4 2.47,-1.37 6.79,0.44 2.32,1.16 2.98,1.55 5.05,2.47l0.55 0.5 0.61 0.74 6.44 2.69 -4.34 3.71 -5.65 3.36c-0.12,-0.21 -0.48,0.26 -0.72,0.39l-10.04 3.17 -8.32 0.59 -1.58 0.37c2.66,1.76 5.79,1.56 9.37,1.39 3.47,-0.16 4.46,-0.56 7.67,-0.88l0.96 -1.15c2.17,-0.97 1.69,-0.29 4.48,-1.68 1.91,-0.95 1.71,-1.31 4.22,-2.06 2.84,-2.29 7.78,-4.02 12.11,-4.31 2.2,-1.01 7.74,-1 9.61,0.22 1.89,1.5 -1.03,-0.49 -3.84,5.85 3.61,-1.41 2.7,-1.71 6.27,-3.61 4.18,-3.96 14.74,-1.36 20.05,-0.3 6.64,1.33 10.53,5.76 14.21,10.92 4.28,6.02 2.42,6.69 -0.62,12.83 -0.77,1.55 -1.34,2.96 -2.06,4.71 -5.76,14.18 -2.45,25.38 0.69,40.47l5.96 43.77c0,0.03 0.05,3.99 0.03,4.35 -0.41,8.71 -4.25,-1.61 -0.59,14.1l-99.5 1.93c9.4,0 14.91,0.94 24.18,0.93 8.28,-0.01 14.59,2.06 23.15,1.98 8.64,-0.09 15.4,1.73 23.16,1.95 9.46,0.27 15.77,0.93 25.15,0.93l0 0.97c-8.78,0 -9.68,0.36 -16.43,1.93l0 1.93c3.82,-0.31 4.53,-0.96 9.66,-0.96 -0.71,1.06 -1.55,1.92 -1.86,2.65l-0.07 2.18c-4.91,1.14 -2.13,0.28 -7.74,-0.03 -1.24,-0.07 -3.44,-0.07 -4.6,0.22 -2.09,0.52 -1.81,0.61 -3.11,1.74l8.69 0c-2.06,2.81 -3.35,2.14 -5.8,5.8 6.59,-0.55 4.53,-4.68 11.6,-4.83 -5.61,8.37 -17.25,6.76 -21.26,6.76 1.04,2.55 -1.98,1.8 3.87,1.93 -2.97,4.05 -6.37,2.64 -7.73,7.73 5.3,-1.42 5.89,-5.05 17.39,-7.73 -0.77,3.28 -3.13,6 -4.97,8.55 -1.08,1.5 -1.92,2.48 -2.93,4.05 -2.18,3.37 -3.23,2.51 0.17,3.82 1.36,0.5 -0.99,2.16 1.92,-1.8 2.91,-3.98 6.58,-5.5 12.57,-6.89 -1.54,2.91 -10.95,10.52 -4.83,12.56 1.08,-4.66 2.13,-4.83 7.73,-4.83 -6.09,9.09 -9.14,2.72 -8.77,8.99 0.19,3.27 -0.79,1.88 -0.89,6.46 2.98,-2.18 2.2,-5.63 9.66,-10.62 -0.91,3.88 -2.51,4.95 -2.9,9.66l1.93 0c0.45,-5.35 2.46,-4.32 2.9,-9.66 4.04,1.07 2.05,0.43 3.87,3.86 -2.33,3.18 -5.35,3.22 -5.8,8.69 3.81,-1.37 1.29,-2.84 8.69,-6.76 -0.55,6.7 -4.44,9.65 -5.79,15.46 4.11,-2.76 3.86,-6.83 7.72,-9.66l2.9 5.79c-0.46,-5.59 -1.46,-14.69 -1.93,-20.28 1.92,2.2 2.2,3.74 2.9,6.76l3.82 -1.08c-1.32,-4.99 -2.38,-0.88 -2.86,-6.65 4.44,3.25 4.84,12.94 4.84,18.36l2.28 -5.5c1.53,-3.59 1.31,-2.52 4.48,-2.85zm14.49 16.07l-29.05 0c-37.38,-1.02 -73.24,-14.69 -102.2,-37.8 -11.01,-8.78 -23.79,-21 -31.82,-32.9 -3.25,-4.81 -5.86,-8.44 -8.83,-13.39 -5.64,-9.42 -9.85,-18.15 -14.14,-29.33 -7.74,-20.17 -13.07,-52.67 -10.24,-75.13 3.79,-30.06 11.07,-55.17 27.99,-80.2 28.64,-42.39 69.88,-69.1 120.55,-76.51 26.09,-3.81 52.18,-2.18 77.56,6.32 9.82,3.28 21.84,7.95 30.39,13.08 4.83,2.91 8.8,5.12 13.21,8.04 35.76,23.76 63.88,63.35 72.72,105.99 0.27,1.3 0.86,2.79 1.23,4.57 5.09,24.16 3.77,53.32 -2.45,77.84 -3.64,14.37 -9.32,26.3 -15.79,39.28 -11.34,22.77 -36.03,48.92 -57.1,61.72l-36.64 18.41 -25.84 7c-12.08,2.02 -7.36,2.48 -9.55,3.01zm-8.67 -11.59c0.44,-2.67 0.54,-1.11 -0.99,-1.55 -1.68,2.43 -2.81,4.19 -2.9,8.31l1.93 0c0.34,-4.03 1.08,-3.2 1.96,-6.76zm-4.86 -5.78c3.62,0 0.93,-1.69 -0.18,-0.98l0.18 0.98zm-23.18 -11.61l1.93 0c0.47,5.65 3.58,6.07 0,8.7 -1.04,-4.45 -1.93,-2.64 -1.93,-8.7zm24.15 2.9l0.29 0.29c-0.02,-0.02 -0.39,-0.19 -0.29,-0.29zm-3.87 2.9c-10.55,-7.07 0,-14.53 0,0zm2.9 -10.63c4.48,0.38 3.2,0.77 4.83,3.87 -4.62,-0.11 -4.28,0.44 -4.83,-3.87zm-11.59 1.93c0.25,-1.98 5.1,0.24 0.91,0.1 -0.38,-0.02 -1.18,2.07 -0.91,-0.1zm-7.73 -1.93c3.93,2.64 3.75,0.76 3.87,5.8 -2.98,-1.99 -3.34,-1.69 -3.87,-5.8zm-12.56 4.83l4.17 -6.46c2.6,-3.79 -1.04,-0.53 2.6,-3.2 0.63,2.65 3.75,9.43 -6.77,9.66zm17.39 -5.79c0,-2.47 1.53,-0.16 0.58,0 -0.01,0 -0.58,2.69 -0.58,0zm3.87 0.96l0 -2.89 1.93 0c-0.93,3.86 -1.89,2.79 -1.93,2.89zm10.62 -2.89l0.29 0.28c-0.02,-0.02 -0.38,-0.19 -0.29,-0.28zm-37.67 0.96c2.17,-2.97 -0.62,-1.56 3.86,-1.93 -0.74,0.64 -0.27,0.63 -1.63,1.26 -2.25,1.04 -0.74,0.09 -2.23,0.67zm21.25 -0.96c-9.36,-2.5 -2.25,-8.44 0,0zm17.39 -3.87l0.29 0.29c-0.02,-0.02 -0.39,-0.19 -0.29,-0.29zm-5.8 -4.83c3.01,2.2 1.93,2.58 1.93,7.73 -6.29,-1.68 -2.06,-1.68 -1.93,-7.73zm-8.69 6.76c0,-4.27 0.73,-6.92 0,-8.69 1.31,0.5 1.13,-0.62 2.2,3.91 1.2,5.15 1.81,2.97 -2.2,4.78zm26.08 -4.83l1.93 0 0 2.9c-3.7,-2.57 -0.4,0.01 -1.93,-2.9zm-28.01 -1.93c0,0.54 0.02,1.58 -0.07,1.87 -0.49,1.71 -0.31,1.07 -0.9,2l0.97 -3.87zm17.38 -2.9c2.94,2.15 1.94,1.67 1.94,6.77 -2.94,-2.15 -1.94,-1.67 -1.94,-6.77zm-27.04 2.9l0.28 0.29c-0.01,-0.02 -0.38,-0.19 -0.28,-0.29zm16.27 -1.88c2.96,2.01 1.97,-0.18 2.08,4.78l-2.08 -4.78zm-15.31 -0.05l0.29 0.29c-0.02,-0.02 -0.38,-0.19 -0.29,-0.29zm-4.83 7.73l-6.76 0c1.83,-3.83 0.36,-3.12 4,-5.66 2.11,-1.47 3.78,-2.74 5.66,-4 -0.16,1.88 -2.22,8.25 -2.9,9.66zm37.68 -13.53c3.82,2.57 3.94,3.24 2.89,7.73 -5.17,-1.38 -2.89,-1.85 -2.89,-7.73zm-12.56 4.83c0.06,-0.78 1.82,-4.44 1.26,-0.9 -0.01,0.03 -0.19,0.34 -0.26,0.4 -0.08,0.06 -1.26,3.7 -1,0.5zm-1.93 -7.72c2.4,4.28 0.59,5.61 -0.97,6.76 -1.26,-4.72 -4.16,-4.91 0.97,-6.76zm4.83 0c4.68,2.24 7.14,-0.25 7.72,6.76 -7.98,-2.13 -7,-5.15 -7.72,-6.76zm-16.43 8.69c0.92,-3.95 2.02,-7.6 4.83,-9.66 -0.32,3.93 -2.38,7.86 -4.83,9.66zm-5.79 -0.97c0,-6.35 -0.22,-5.96 3.86,-8.69 -0.28,3.37 -1.77,6.28 -3.86,8.69zm-3.87 -7.72l0.29 0.28c-0.02,-0.01 -0.38,-0.19 -0.29,-0.28zm21.26 -165.19c1.49,1.18 1.6,0.11 -1.52,4.28 -0.09,0.11 -0.26,0.38 -0.41,0.55 0.59,-2.54 0.87,-2.84 1.93,-4.83zm-41.73 3.85c-1.08,-2.96 -1.01,-6.92 -3.91,-13.27l-2.7 -4c0.2,-0.21 0.45,-0.39 0.48,-0.74 0.04,-0.33 0.49,-0.31 0.68,-0.52l0.85 1.1c7.98,9.58 22.13,18.28 25.23,24.2 -6.39,0 -18.37,-0.61 -20.63,-6.77zm-142.78 43.48c0,4.61 0.27,6.78 0.7,9.93 0.52,3.81 -0.01,7.45 0.39,11.21l3.46 18.75c1.43,6.9 2.66,11.19 4.73,17.49 1.79,5.43 4.05,12.06 6.34,16.84 6.61,13.81 8.37,16.01 16.19,28.25 5.24,8.18 13.83,18.06 20.6,24.8 9.7,9.68 28.2,25.42 41.18,31.28l11.54 5.83c36.64,17.03 76.9,20.44 117.3,11.69 27.51,-5.96 60.37,-23.42 80.19,-42.5 25.25,-24.3 41.76,-49.42 51.44,-82.84 10.68,-36.91 9.87,-86.21 -7.26,-121.25 -10.68,-21.83 -16.62,-33.74 -34.08,-51.9 -2.31,-2.41 -2.59,-3.75 -4.84,-5.78 -22.11,-19.99 -44.12,-35.6 -74.52,-44.3 -30.1,-8.62 -36.73,-7.17 -69.14,-7.17 -12.69,0 -39.43,7.58 -51.35,12.41 -5.57,2.25 -9.95,4.56 -15.2,7.01l-25.97 16.54c-16.57,13.78 -29.43,26.06 -41.77,44.2 -11.7,17.2 -20.99,40.07 -25.52,60.45 -1.26,5.65 -2.52,12.87 -3.2,18.05 -0.47,3.55 -0.02,6.85 -0.3,10.34 -0.31,3.96 -0.91,5.4 -0.91,10.67z"/>
   <path class="fil0" d="M485.25 251.66l0.29 10.7c0.23,6.79 -1.36,14.94 -2.05,21.35 -1.8,16.64 -5.11,29.45 -10.19,44.87 -1.41,4.25 -2.2,5.99 -3.79,9.74 -4.21,9.95 -7.62,18.52 -13.27,28.26 -1.6,2.76 -3.27,5.14 -5.21,8.32 -13.88,22.77 -39.01,49.41 -61.41,64.17 -2.73,1.79 -5.15,3.6 -8.02,5.5l-46.92 22.64c-16.28,5.89 -29.59,7.67 -45.96,10.06 -17.47,2.55 -33.21,3.57 -50.77,0.43 -8.39,-1.49 -16.07,-1.87 -24.04,-3.97 -3.38,-0.9 -7.79,-1.67 -10.95,-2.57 -12.93,-3.71 -18.24,-5.35 -31.33,-11.17 -29.27,-13.02 -43.35,-24.9 -66.26,-44.84 -5.56,-4.84 -20.21,-22.89 -25.07,-29.99 -12.5,-18.26 -21.44,-33.34 -28.79,-55.25 -2.24,-6.7 -4.93,-14.69 -6.51,-21.5 -8.27,-35.4 -8.3,-69.6 0,-104.8 5.51,-23.4 19.44,-56.17 34.26,-75.87l39.19 -42.92c17.66,-14.94 48,-33.02 69.49,-39.66l21.67 -6.35c18.29,-4.84 37.87,-6.43 56.36,-6.43 30.7,0 71.93,10.24 98.59,25.06 12.24,6.81 22.6,12.59 33.62,21.44 16.22,13.03 21.74,18.4 35.14,33.44l12.06 15.96c2.02,2.8 3.33,5.22 5.37,8.15 1.61,2.31 1.18,1.96 2.49,4.27 13.18,23.3 19.27,34.13 26.13,63.71 1.78,7.69 3.34,14.11 4.03,23.02 1.07,13.9 1.85,7.39 1.85,24.23zm-454.99 -0.97c0,41.54 5.74,66.12 21.52,103.1 6.1,14.3 17.35,31.68 27.19,44.29 8.23,10.55 11.02,13.28 20.6,22.87 18.78,18.78 42.97,36.32 67.45,46.54 26.7,11.15 36.42,14.11 67.63,18.35 21.24,2.89 31.08,3.53 52.4,0.38 8.37,-1.23 16.36,-1.8 24.33,-3.68 8.25,-1.94 14.38,-3.49 22.09,-5.92 8.22,-2.59 22.33,-8.01 29.58,-11.95 25.82,-14.02 27.04,-13.95 50.87,-33.18 5.81,-4.69 22.81,-22.38 27.43,-28.6 6.91,-9.28 9.56,-10.65 17.87,-24.63 3.65,-6.13 6.46,-11.14 9.93,-18.09 14.37,-28.73 16.07,-39.43 22.31,-68.49 1.89,-8.83 1.52,-41.3 1.52,-50.65 0,-46.79 -22.18,-94.24 -48.28,-128.5 -38.39,-50.37 -107.96,-87.88 -171.97,-87.88 -25.27,0 -45.03,-0.39 -68.71,6.64 -15.23,4.52 -27.81,8.24 -41.09,14.93 -6.76,3.41 -11.86,6.15 -18.35,9.67l-17.03 10.98c-11.18,8.43 -28.81,22.43 -36.84,32.71l-6.59 7.91c-9.28,9.91 -16.18,21.31 -23.13,32.89 -6.79,11.31 -13.37,25.49 -17.71,38.32l-8.89 32.65c-1.94,11.9 -4.13,27.79 -4.13,39.34z"/>
   <path class="fil0" d="M435.98 345.36c-0.62,2.69 -0.79,7.69 -1.63,9.96 -1.55,4.17 -12.5,18.74 -15.34,22.34 -16.21,20.57 -30.24,33.05 -51.66,46.86 -5.23,3.37 -10.12,6.08 -16.05,9.07 -3.75,1.89 -4.55,2.88 -9.07,3.49 -7.84,1.06 -7.68,1.96 -7.68,7.78 0,3.65 4.63,5.59 7.72,3.97 3.71,-1.94 1.78,-3.91 7.7,-6.91 15.28,-7.72 30.15,-16.21 43.23,-27.29 5.65,-4.79 17.31,-15.44 21.53,-20.97 2.35,-3.07 4.54,-4.64 6.92,-7.57l9.12 -12.13c1.34,-1.95 1.73,-2.15 2.86,-3.9l8.01 -13.25c1.14,-1.31 6.25,-3.43 4.27,-8.74 -2.17,-5.79 -6.83,-3.03 -9.93,-2.71z"/>
   <path class="fil0" d="M81.46 358.89c0,8.82 1.82,4.36 5.96,8.52 1.16,1.17 3.81,5.64 5.05,7.52 2.02,3.07 2.97,3.86 5.01,6.58l10.81 13.33c4.45,4.81 6.55,8.53 12.22,12.9 3.16,2.45 3.87,3.59 6.64,5.92 9,7.57 17.69,14.49 27.78,20.52l24.06 12.65c4.31,2.78 1.62,5.76 8.73,5.76 4.44,0 9.43,-10.47 -1.9,-11.63 -5.42,-0.55 -4.75,-0.81 -8.73,-2.86 -23.88,-12.28 -51.09,-30.21 -67.08,-51.74l-15.22 -20.52c-2.16,-3.24 -1.76,-5.78 -2.71,-9.85 -2.34,-0.55 -10.62,-3.11 -10.62,2.9z"/>
   <path class="fil1" d="M168.4 233.9l8.32 -0.59c-2.19,-0.9 -0.92,1.64 0.04,-1.07 0.02,-0.06 0.18,-0.28 0.2,-0.36 0.62,-2.22 -0.27,-2.92 -0.83,-5.34 7.3,3.86 4.44,1.86 10.63,3.6 0.24,-0.13 0.6,-0.6 0.72,-0.39l5.65 -3.36c-2.29,-1.18 3.09,-1.44 -3.41,-0.92 1.73,-0.74 2.76,-0.71 4.96,-1.37 -1.85,-3.58 -0.36,-0.65 -3.65,-4.11l-0.61 -0.74 -0.55 -0.5c-2.07,-0.92 -2.73,-1.31 -5.05,-2.47 -16.49,8.74 -5.53,5.43 -24.15,5.43 -0.97,2.36 -0.65,0.78 0,3.87l-10.62 0c0.1,4.51 1.19,6.4 4.21,8.35 0.94,0.6 2.88,1.53 4.1,1.77 5.71,1.14 1.04,0.16 4.94,-0.72 5.71,-1.31 1.2,-0.41 3.84,0.41 5.43,1.68 11.56,1.05 16.72,-0.61 -3.21,0.32 -4.2,0.72 -7.67,0.88 -3.58,0.17 -6.71,0.37 -9.37,-1.39 -0.86,-1.5 1.93,0.16 -2.28,-1.93l3.86 1.56zm1.93 -18.56c3.97,-0.31 2.4,-0.53 3.28,-1.26l1.27 -1.11c-1.15,-0.77 -0.04,-0.11 -1.68,-0.84 -1.59,-0.71 0.09,0.24 -1.79,-0.7l5.57 -0.07c-0.76,-3.21 -1.7,-3.39 -3.87,-5.1 -0.84,-0.72 -1.49,-1.3 -2.78,-2.3 -5.02,0.87 -6.11,2.21 -10.62,3.26l1.08 3.83c-6.21,-2.89 -11.48,0.77 -15.57,2.93 5.83,8.71 15.51,10.74 21.25,2.9l-3.06 -4.99c0.39,-0.06 0.42,0.7 1.04,1.2l5.88 2.25zm-9.69 -15.85c-2.68,-2.14 -6.36,-1.9 -11.56,-2.64 -3.76,5.3 -5.25,1.95 -6.76,8.44 6.21,3.29 17.99,8.68 21.25,-3.86 -5.06,-0.43 -1.72,0.93 -2.93,-1.94z"/>
   <path class="fil2" d="M253.41 154.09c-9.07,2.12 -11.59,2.48 -11.59,17.39 -8.69,-2.32 -5.99,-10.96 -13.53,-11.59 -1.7,7.33 -2.77,7.54 1.23,14.23 3.03,5.06 4.74,7.82 12.3,7.99 -0.91,10.86 -14.08,2.12 -5.8,14.49 7.8,-1.82 4.58,-5.43 10.08,-7.31 3.68,-1.26 2.83,0.15 6.62,-2.08 7.22,-4.25 3.94,-7.62 6.94,-11.41 2.34,-2.95 0.71,-0.09 2.63,-2.2 6.56,-7.21 1.24,-13.39 0.78,-14.68l-1.93 0c0.72,3.11 0.59,3.73 0.45,5.66l-0.05 4.11c0.32,1.82 -0.16,0.65 0.56,1.83l-0.8 1.12c-1.72,0.13 -3.69,-3.61 -6.93,0.81 -2.3,-1.65 -0.47,-0.94 -0.14,-3.14 0.66,-4.33 -0.87,-4.32 -1.31,-6.97 -0.88,-5.33 3.08,-2.84 0.49,-8.25z"/>
   <path class="fil1" d="M179.03 175.35l0 0zm-15.78 11.59c0.52,-0.52 1.91,0.16 3.07,1.89l2.53 3.85c0.11,0.16 0.33,0.45 0.52,0.65 4.15,-4.77 3.41,-7.75 1.93,-14.12 6.56,0 5.54,0.82 9.66,-1.93l0.96 0.08 3.87 0.54c1.17,-1.38 2.88,-1.39 0,-7.38 3.97,-0.09 5.77,-1.49 3.02,-7.79 -1.31,-3 -2.89,-3.66 -5.86,-4.39 -0.13,-0.03 -0.43,-0.08 -0.55,-0.1 -0.12,-0.03 -0.42,-0.08 -0.51,-0.1 -0.1,-0.02 -0.41,-0.08 -0.48,-0.1 -0.07,-0.01 -0.31,-0.02 -0.45,-0.08 0,-8.6 -0.76,-10.07 -8.3,-13.12 -3.08,-1.24 -3.39,-2.36 -4.78,0.03 -1.9,3.28 0.15,11.3 6.29,14.08 2.87,1.3 2.73,0.94 6.79,0.94 0,4.06 -0.41,3.9 0.96,6.76 -1.3,0.62 0.19,0.22 -1.51,0.22 -0.58,0 -2.42,-0.2 -3.32,-0.22l0 5.8c-5.78,-1.35 -4.95,-2.72 -10.62,0 0.34,4.15 -0.14,1.74 1.93,4.83 -2.47,1.65 -2.14,1.06 -3.48,4.3 -0.27,0.65 -0.82,2.31 -1.01,2.86 -0.97,2.89 -1.17,-0.07 -0.66,2.5zm-4.51 -31.88c0,15.13 12.04,15.33 16.42,13.52 -3.61,-15.52 -6.81,-11.28 -16.42,-13.52z"/>
   <path class="fil0" d="M126.86 90.34c4.11,1.09 13.87,13.12 14.49,15.45 -0.93,1.27 0.22,0.04 -1.34,1.55l-1.02 0.92c-0.1,0.09 -0.36,0.28 -0.54,0.43 -2.54,-0.92 -13.15,-11.99 -13.52,-16.42 -4.86,1.3 -6.47,3.31 -6.76,6.76 4.19,1.12 13.53,11.87 14.49,15.46l-2.78 2.07c-3.08,-0.9 -9.4,-8.4 -11.97,-11.47 -2.32,-2.77 -1.18,-2.04 -2.64,-5.09l-6.99 6.53c4.82,0.67 4,1.52 6.86,5.19 0.94,1.2 1.28,1.41 2.28,2.55 1.62,1.86 1.81,2.45 3.46,4.27 2.45,2.7 2.74,1.42 3.08,5.61 5.9,-1.58 16.54,-13.92 20.21,-16.51 3.41,-2.4 5.01,-1.85 10.71,-1.85 -0.75,-2.8 -2.02,-4.55 -5.15,-5.2 -4.87,-1 -1.7,2.4 -6.32,-3.59 -3.32,-4.32 -8.39,-6.47 -9.79,-12.46 -3.32,0.89 -5.08,3.3 -6.76,5.8z"/>
   <path class="fil0" d="M50.55 247.79c0,-6.03 18.03,-8.71 20.28,0.97 -4.29,6.41 -20.28,4.93 -20.28,-0.97zm-2.9 -0.96c0,13.09 8.99,7.47 9.66,15.45 -3.9,-0.08 -6.37,-1.16 -9.66,-1.93l0 8.7c7.05,-1.65 18.07,-1.65 25.12,0l0 -7.73c-4.68,1.09 -6.72,0.96 -12.56,0.96l0 -2.89c3.58,-0.08 6.71,-1.03 8.91,-2.69 9.39,-7.1 3.49,-20.5 -7.95,-20.5 -7.17,0 -13.52,3.44 -13.52,10.63z"/>
   <path class="fil0" d="M66.84 167.57c3.63,-0.7 2.64,-0.97 4.38,2.48 1.21,2.4 1.94,3.81 2.51,6.26 -7.7,-1.79 -7.04,-2.26 -7.73,-4.83 -2.13,1.56 -3.58,5.27 -3.86,8.7 3.59,-0.77 1.25,-0.94 4.61,0.18l5.05 2.71c-6.17,1.44 -6.18,3.42 -12.56,1.93 -0.78,3.35 -4.08,6.76 0.25,6.07 6.61,-1.04 7.93,-10.01 19.8,7.7 1.59,2.37 1.07,2.81 4.1,3.62 -2.67,-11.46 -2.18,-9.1 -7.73,-17.39 4.89,0.11 6.75,1.91 9.66,3.87 1.19,-2.48 1.71,-5.25 2.9,-7.73 -4.54,-0.1 -7.69,-1.18 -9.66,-3.86 5.74,-0.13 15.89,-2.25 16.42,-8.7 -3.96,1.91 -11.41,2.9 -17.38,2.9 -3.19,0 -6.09,-7.74 -6.77,-10.63l-3.99 6.72z"/>
   <path class="fil0" d="M416.66 115.45l-10.65 0.65c2.32,-3.11 6.03,-7.3 10.65,-8.37l-6.53 -6.99c-0.64,5.15 -4.82,7.21 -7.71,10.12 -2.98,3 -5.51,6.32 -9.91,7.49 1.68,2.5 3.44,4.91 6.77,5.8 1.12,-4.2 2.01,-3.96 12.55,-4.83 -2.25,3.36 -5.08,6.66 -9.66,7.72 0.34,4 2.16,4.98 4.83,6.77 2.84,-2.08 1.12,-1.55 3.65,-4.08 1.88,-1.88 2.68,-1.9 4.82,-3.88 3.08,-2.85 4.82,-7.08 9.89,-7.5 -0.35,-4.17 -3.24,-6.79 -6.77,-7.73 -0.34,4.16 0.14,1.74 -1.93,4.83zm8.7 -8.69l-3.23 -0.39c-0.1,0.01 -0.39,0.09 -0.48,0.1l-1.12 0.29c-0.04,-0.1 0.05,-0.39 0.06,-0.32l0.9 -4.51c-12.51,0.28 1.14,15.03 3.87,4.83z"/>
   <path class="fil0" d="M202.21 461.28c0.45,-5.43 4.54,-6.96 -2.9,-8.69 -9.02,6.04 0.6,16.29 7.2,10.15 5.57,-5.18 5.12,-15.21 8.26,-21.74 2.2,0.51 2.22,0.75 4.83,0.96 0,9.63 -6.07,22.53 -6.76,25.12 4.53,0.38 4.63,1.82 9.66,1.93 -1.2,-5.12 2,-17.28 4.45,-22.7 2.28,-5.02 3.3,-4.89 -3.21,-6.52 -3.21,-0.8 -8.92,-2.57 -12.84,-2.66 0,5.79 -1.78,8.92 -2.8,13.62 -1.3,5.96 -1.51,7.6 -5.89,10.53z"/>
   <path class="fil0" d="M323.93 76.81c4.04,2.14 8.41,3.32 12.92,5.44 8.85,4.16 3.84,7.6 9.29,9.05 0.32,-3.72 0.97,-3.8 0.97,-8.69 -2.82,-0.68 -1.39,0.12 -2.9,-1.93l8.7 -19.32c-3.37,-0.9 -2.77,-1.75 -7.73,-2.9 0,7.79 -5.15,13.37 -6.76,20.28 -13.66,-1.13 1.2,-14.45 1.93,-23.18 -4.66,-0.39 -3.07,-1.54 -7.73,-1.93 0,8.47 -7.47,18.61 -8.69,23.18z"/>
   <path class="fil0" d="M304.61 440.03c7.9,0 13.51,22.22 3.86,22.22 -6.44,0 -13.23,-22.22 -3.86,-22.22zm-10.63 5.79c0,8.15 1.07,20.29 13.53,20.29 3.77,0 7,-1.99 9.24,-4.28 0.13,-0.14 0.33,-0.35 0.46,-0.5 9.42,-10.59 -4.75,-32.95 -18.61,-22.48 -1.39,1.05 -4.62,5.05 -4.62,6.97z"/>
   <path class="fil0" d="M274.66 444.86c6.87,1.6 7.73,7.84 7.73,14.49 0,15.08 -12.25,11.89 -12.1,-5.84 0.04,-4.18 1.62,-6.26 4.37,-8.65zm-11.59 11.59c0,4.72 1.85,8.05 3.79,10.7 5.06,6.91 22.29,8.68 22.29,-10.7 0,-19.33 -26.08,-19.18 -26.08,0z"/>
   <path class="fil0" d="M245.68 469.01c-2.61,0 -2.66,-0.46 -4.83,-0.97 -5.98,-25.67 10.63,-27.35 10.63,-14.49 0,5.2 -1.24,15.46 -5.8,15.46zm-13.52 -10.63c0,7.41 5.36,13.48 12.81,14.05 16.56,1.26 17.92,-29.5 2.64,-29.5 -9.16,0 -15.45,3.97 -15.45,15.45z"/>
   <path class="fil0" d="M153.91 71.02c5.45,8.13 2.15,4.63 1.93,14.49 -2.5,-2.89 -5.47,-7.76 -5.79,-11.6 -3.2,0.75 -6.09,2.6 -7.73,4.83 2.99,0.8 2.54,1.25 4.11,3.62 2.65,3.97 8.1,12.47 8.45,16.67 3.36,-0.78 5.29,-2.23 7.72,-3.86 -3.81,-5.69 -2.89,-1.15 -2.89,-14.49 2.18,1.6 6,8.34 6.76,11.59 2.35,-0.63 5.48,-2.68 7.73,-3.87 -3.55,-4.83 0.04,2.57 -6.97,-9.45 -2.48,-4.25 -5.46,-5.88 -5.59,-11.8 -3.65,0.31 -5.22,2.18 -7.73,3.87z"/>
   <path class="fil0" d="M444.68 305.76c-0.95,1.98 -1.37,5.29 -1.94,7.72 6.45,0 19.47,3.63 24.15,6.77 0.84,-3.6 1.84,-4.34 1.94,-8.7 -5.12,0 -5.91,-0.2 -11.6,-8.69 6.53,0.54 10.67,3.1 13.53,3.86 0.08,-3.54 0.79,-5.35 1.93,-7.73 -6.99,0 -7.41,-0.89 -13.13,-2.32 -2.41,-0.61 -4.13,-0.94 -6.19,-1.54 -2.88,-0.82 -2.99,-1.28 -5.79,-1.93 -0.3,3.49 -1.21,4.6 -1.94,7.73 6.4,0 5.96,1.24 11.59,7.72 -1.12,1.58 0.02,1.32 -6.86,-0.86 -2.79,-0.88 -2.83,-1.37 -5.69,-2.03z"/>
   <path class="fil0" d="M257.27 42.04c1.07,4.57 1.28,3.72 -1.07,7.57 -1.52,2.49 -2.42,4.41 -4.72,5.95 0,-6.05 -0.18,-8.64 0.96,-13.52l-8.69 0c2.01,8.61 3.26,15.25 0.96,25.11l8.7 0c-1.26,-5.26 -1.44,-6.16 5.79,-14.49 0,15.87 -0.26,8.23 -1.93,14.49 3.81,-0.31 4.53,-0.96 9.66,-0.96 -3.39,-5.06 -1.93,-8.59 -1.93,-20.29 0,-2.61 0.46,-2.66 0.97,-4.83 -4.85,0 -4.33,0.86 -8.7,0.97z"/>
   <path class="fil0" d="M273.69 67.15c2.91,0 6.19,1.06 7.29,0.52 1.91,-0.94 0.37,-1.9 0.52,-6.17 0.11,-3.31 1.13,-12.49 1.85,-15.6 4.25,0.09 3.01,0.65 6.77,0.97l-2.09 16.26c-0.66,3.91 -0.76,1.16 -1.78,4.99 3.73,0.31 3.81,0.97 8.7,0.97l0.89 -16.51c1.48,-9.81 3.4,-6.46 0.54,-8.15 -1.78,-1.04 -17.03,-2.39 -20.75,-2.39 2.32,4.85 -1.64,21.53 -1.94,25.11z"/>
   <path class="fil1" d="M250.51 107.73c0,12.66 3.82,11.54 9.66,15.45l3.87 -8.69c0,8.32 2.29,10.65 7.72,13.52 0.7,-6.34 2.9,0.03 2.9,-9.66 0,-6.36 -2.54,-9.42 -7.73,-10.62 -0.92,1.91 -1.38,3.45 -1.93,5.79 -0.13,-0.2 -0.26,-0.8 -0.3,-0.66 -0.63,1.97 -0.48,-1.11 -0.58,-1.36 -1.74,-4.42 -4.19,-10.02 -9.75,-11.5 -2.14,1.57 -3.86,4.06 -3.86,7.73z"/>
   <path class="fil0" d="M96.92 120.28c3.64,0.31 5.21,2.18 7.72,3.87 -1.3,1.95 -2.55,3.84 -3.86,5.79 -6.52,-4.36 -5.51,-3.3 -5.8,-6.76 -3.14,0.84 -5.52,4.48 -5.79,7.73 5.03,0.42 7.51,4.84 14.38,9.76 2.33,1.67 3.12,1.54 3.97,4.73 2.5,-1.67 4.91,-3.43 5.8,-6.76 -4.11,-0.96 -5.08,-2.73 -9.66,-5.8 0.88,-3.8 1.06,-3.92 3.86,-5.8 4.35,2.92 6.88,4.55 7.73,7.73 3.92,-1.04 5.07,-3.57 6.76,-6.76 -5.65,-0.47 -8.61,-4.89 -14.81,-9.33 -2.37,-1.7 -3.24,-1.55 -3.54,-5.16 -3.45,0.29 -5.47,1.9 -6.76,6.76z"/>
   <path class="fil0" d="M181.92 58.46c3.5,0.93 8.99,8.45 -1.93,8.69 -0.94,-4.04 -1.82,-2.65 -1.93,-7.73 -3.49,0.29 -4.6,1.21 -7.73,1.94 0.87,3.24 6.07,11.19 9.22,21.9 0.03,0.1 0.13,0.38 0.15,0.46l0.29 0.82c4.06,-0.34 3.18,-1.1 6.77,-1.93 -1.24,-4.61 -5.58,-9.47 -3.91,-11.81 1.61,-2.27 8.73,-4.51 8.73,9.88 2.69,-1.42 4.36,-2.12 7.73,-2.9 -0.74,-2.79 -1.64,-3.19 -2.89,-5.81l-5.09 -12.36c-1.54,-3.46 -1.1,-1.34 -0.71,-5.98 -4.59,1.07 -6.39,1.38 -8.7,4.83z"/>
   <path class="fil0" d="M439.85 180.18c-1.33,0 -2.31,-2.02 -2.9,-2.9 1.83,-2.74 5.05,-3.98 8.69,-4.83 1.2,5.14 0.76,7.73 -5.79,7.73zm-8.7 -10.63c0.7,2.98 2.63,7.13 3.84,9.69 2.2,4.63 2.67,6.73 8.72,6.73 10.91,0 5.5,-12.59 4.83,-15.45 10.04,-2.34 7.7,-2.53 6.76,8.69 3.1,-1.64 3.26,-2.17 5.8,-3.86 -1.33,-2.52 -2.02,-4.29 -3.4,-7.23 -1.38,-2.97 -2.62,-5.05 -3.36,-8.23 -5.19,3.47 -17.51,10.86 -23.19,9.66z"/>
   <path class="fil0" d="M220.56 63.29c0,6.32 0.12,4.3 -1.93,5.8 0,-3.84 1.02,-4.78 -1.62,-6.23 -4.46,-2.45 -7.68,9.12 2.59,9.12 7.53,0 3.56,-14.84 2.57,-19.21 -1.43,-6.3 3.83,-7.63 5.26,-1.18 0.53,2.37 0.69,3.81 1.26,6.48 1.24,5.85 0.96,7.25 0.57,11.98 1.72,-0.83 6.29,-1.73 8.69,-1.93l-3.14 -11.34c-0.79,-4.06 -1.69,-8.37 -1.69,-13.78 -9.51,4.57 -17.14,-1.01 -14.95,7.01l2.39 13.28z"/>
   <path class="fil0" d="M440.81 193.7c0,11.09 14.12,4.12 20.22,2.65 3.32,-0.8 4.51,-0.57 4.9,4.11 -2.62,0.61 -1.77,0.72 -4.34,1.46 -5.17,1.48 -11.97,3.37 -16.91,3.37 0.26,3.19 1.25,5.8 1.93,8.69 4.23,-2.83 18.84,-7.99 24.15,-6.76 -0.12,-5.57 -3.22,-8.67 -3.87,-16.42 -3.3,0.88 -1.41,0.81 -4.73,2.03 -5.84,2.16 -12.76,4.13 -18.45,2.8 3.03,-1.92 3.86,0.47 6.76,-3.86 -4.36,-6.51 -9.66,-0.8 -9.66,1.93z"/>
   <path class="fil0" d="M350.97 89.37c3.66,0.98 2.44,1.89 6.77,2.9 0.07,-0.13 0.12,-0.51 0.13,-0.41 0.07,0.48 1.22,-6.68 5.66,-8.29 0,4.21 -0.66,10.55 1.7,14.73 1.52,2.72 0.03,1.84 3.13,2.66 0,-5.16 -0.38,-13.33 0.62,-16.77 1.75,-6.04 3.36,-2.29 11.94,-6.41 -1.53,-2.09 -3.35,-3.58 -6.76,-3.87 -0.43,3.94 0.73,2.47 -3.76,3.98l-5.9 1.82c1.15,-2.17 1.52,-2.88 2.91,-4.82 1.84,-2.55 2.03,-1.63 2.89,-4.84 -4.15,-1.11 -2.38,-2.45 -7.73,-2.9 -0.09,3.66 -0.17,3.57 -1.69,6.04 -1.47,2.38 -1.89,2.72 -3.3,5.39 -1,1.88 -1.84,3.31 -3.32,5.38 -1.98,2.76 -2.49,2.42 -3.29,5.41z"/>
   <path class="fil0" d="M383.82 106.76c-6.54,0 -5.34,-11.62 8.69,-18.36 0.72,1.08 2.9,3.25 2.9,3.87 0,4.84 -7.37,14.49 -11.59,14.49zm-8.69 -7.73c0,2.47 1.45,6.48 2.67,7.95 6.41,7.72 21.48,1.33 21.48,-7.95 0,-9.18 -0.69,-13.52 -11.6,-13.52 -7.94,0 -12.55,9.59 -12.55,13.52z"/>
   <path class="fil0" d="M428.26 157.96l-1.08 -0.86c-0.1,-0.1 -0.39,-0.34 -0.51,-0.45 -0.13,-0.12 -0.37,-0.33 -0.51,-0.47 -1.21,-1.21 -0.89,-0.77 -1.77,-2.09 0.83,-3.11 2.81,-4.58 5.04,-6.56l5.43 -3.25c1.23,-0.53 -2.01,-0.81 4.99,-0.81 8.1,0 1.83,11.36 -11.59,14.49zm-6.77 -7.73c0,8.49 3.1,11.59 11.6,11.59 16.58,0 17.38,-23.18 4.83,-23.18 -7.47,0 -16.43,2.25 -16.43,11.59z"/>
   <path class="fil0" d="M58.28 291.27c-2.61,0 -2.67,-0.47 -4.83,-0.97 -2.11,-7.94 5.17,-9.66 12.55,-9.66 9.31,0 11.52,10.63 -7.72,10.63zm-8.7 -4.84c0,14.39 26.08,15.47 26.08,-1.93 0,-13.54 -26.08,-12.92 -26.08,1.93z"/>
   <path class="fil1" d="M361.6 187.42c-3.84,0.15 -4.23,0.24 -7.28,1.25l-2.31 4.35c-0.05,-0.14 -0.27,0.45 -0.43,0.64 -2.35,-1.08 -1.53,-0.13 -4.35,-0.73l-2.19 -0.98c-4.62,2.25 -4.29,0.91 -6.3,5.61 3.47,2.04 1.5,0.12 3.54,2.9l-5.8 -0.87c-3.33,1.78 -3.88,2.18 -5.1,5.7l-0.78 1.93 2.55 1.96c3.89,-0.49 4.56,0.28 8.16,-0.74 0,-1.53 -0.42,-1.22 0.97,-1.22 1.97,-2.94 2.34,-2.16 1.99,-5.95l-0.06 -0.81c0.01,0 1.41,2.74 6.79,0.1 2.41,-1.19 3.56,-2.55 3.84,-5.89 4.63,2.22 8.06,0.9 11.59,-0.97 -0.87,-3.26 -2.34,-3.81 -4.83,-6.28z"/>
   <path class="fil0" d="M73.73 153.13c2.77,1.14 1.28,-0.26 5.15,1.55 6.74,3.15 12.38,7.86 17.07,11 3.05,-5.76 7.51,-11.35 8.69,-16.42 -3.79,-2.54 -5.68,-6.5 -4.94,-0.97 0.64,4.83 2.03,0.56 -2.78,9.67 -2.52,-1.69 -4.09,-3.56 -7.73,-3.87 0.87,-3.72 1.21,-4.83 4.83,-5.79 -1.04,-3.89 -1.65,-3.15 -4.83,-4.83 -0.1,4.5 -1.14,5.09 -2.9,7.72l-5.78 -2.93c2,-3.76 2.09,-5.63 7.71,-5.76 -0.99,-3.7 -1.57,-2.88 -5.79,-3.86 -2.63,4.95 -5.65,9.94 -8.7,14.49z"/>
   <path class="fil0" d="M300.74 70.05c3.26,1.56 13.91,4.46 18.36,4.83 1.19,-2.26 1.66,-2.51 1.93,-5.79 -1.84,0.42 -3.49,1.26 -5.17,1.49 -2.64,0.35 -3.2,-0.46 -6.42,-0.53 0,-5.04 1.02,-5.77 1.93,-9.66 2.1,1.01 5.96,2.67 8.69,2.9l0 -5.8c-3.65,1.75 -4.09,0.85 -7.72,0 0.24,-2.96 0.91,-4.64 1.93,-6.76 3.71,1.78 5.49,1.03 6.76,5.8l1.93 0c0,-6.64 2.58,-6.1 -4.02,-7.53 -4.67,-1.01 -6.63,-2.13 -11.43,-2.13 0,6.37 -3.72,18.62 -6.77,23.18z"/>
   <path class="fil1" d="M318.44 183.07c1.72,2.71 3.91,3.66 8.15,2.78 3.93,-0.81 4.37,-2.54 6.03,-5.67 -2.07,-1.1 -2.88,-1.55 -5.79,-2.47l-7.71 4.84c-0.17,0.13 -0.47,0.34 -0.68,0.52zm7.42 20.85c3.05,-2.23 2.27,-0.85 5.17,-4.1 1.94,-2.17 2.51,-3.26 4.15,-5.15 -2.61,1.46 -0.67,0.51 -1.59,0 1.82,-3.81 -0.32,-6.61 -1.94,-9.67 -7.13,1.91 -10.01,11.92 -3.86,16.43l-1.93 2.49zm-9.66 -16.98l-0.97 0.96 -0.96 1.13 -1.61 2.74c0.77,1.83 1.16,4.84 1.61,6.85l4.61 -2.99c4.25,-5.22 2.68,-3.26 2.15,-9.66 -2.61,0.22 -2.63,0.45 -4.83,0.97zm4.01 10.62c2.42,-1.47 1.3,0.11 1.78,-2.89l-1.93 0.26c0.64,0.94 3.5,-1.79 0.15,2.63z"/>
   <path class="fil0" d="M459.17 223.64c2.23,-1.05 4.06,-0.42 5.79,1.94 -2.5,0.67 -3.5,1.68 -5.79,2.9 -0.02,-0.74 -0.21,-2.18 -0.21,-2.63l0.21 -2.21zm-2.9 0.97c0,8.41 -1.63,5.27 -6.76,7.73 0.31,3.72 0.96,3.11 0.96,7.73l25.12 -13.53c-4.09,-7.73 -2.9,-4.17 -11.72,-5.62 -6.54,-1.07 -10.71,-2.74 -16.29,-4.04 0,5.23 -1.01,5.01 2.4,5.17 3.28,0.15 6.29,-1.58 6.29,2.56z"/>
   <path class="fil0" d="M450.47 254.56c0,3.57 1.6,4.62 1.93,8.69l7.73 0c-2.46,-3.36 -5.85,-2.66 -6.39,-7.02 -1.11,-9.14 19.92,-8 19.92,-1.67 0,4.29 -1.34,4.98 -4.83,5.79l0 2.9 5.79 0c2.95,-6.14 4.57,-12.16 -1.18,-17.17 -10.09,-8.79 -22.97,-1.31 -22.97,8.48z"/>
   <path class="fil0" d="M69.87 299.96c1.35,5.08 0.6,1.68 4.37,3.36 6.55,2.91 4.55,12.1 -12.1,12.1 -3.15,0 -3.72,-2.75 -4.83,-4.83 2.83,-5.35 5.75,-5.78 2.71,-7.03 -6.63,-2.73 -10.99,18.62 8.88,18.62 10.88,0 14.15,-12.56 9.96,-19.63 -1.98,-3.34 -2.58,-5.08 -8.99,-2.59z"/>
   <path class="fil0" d="M50.55 220.75c0,10.64 -0.81,9.66 6.76,9.66 -1.48,-4.1 -3.81,-2.53 -4.43,-6.15 -0.57,-3.25 2.01,-4.2 5.4,-4.48 2.28,3.41 1.93,2.1 1.93,7.73l2.9 0c0.93,-11.21 11.95,-6.62 9.9,-0.77 -1.96,5.6 -4.46,0.64 -6.04,6.57l6.76 0c0.53,-2.28 2.9,-8.23 2.9,-9.67 0,-9.23 -6.03,-8.69 -9.66,-8.69 -2.32,0 -2.84,1.57 -4.83,2.9 -5.28,-7.89 -11.59,-2.83 -11.59,2.9z"/>
   <path class="fil1" d="M271.76 135.12l-2.38 9.31c0.55,0.89 1.27,2.61 1.42,2.9 11.97,0 11.34,-9.93 8.69,-15.45 -8.56,1.99 -4.12,3.59 -7.73,3.24zm0 19.94c0,4.92 1.71,-2.15 0.97,6.76 12.76,-2.97 8.69,-11.33 8.69,-15.45 -7.07,0.15 -9.66,5.5 -9.66,8.69z"/>
   <path class="fil1" d="M326.83 212.08l-0.97 0c-1.91,1.71 -0.79,1.08 -1.93,-0.56 -3.18,1.35 -5.25,2.1 -7.73,3.1 0.61,3.08 0.65,2.74 2.9,5.55l0.96 0c1.33,0.33 4.06,0.58 6.77,0.58 -0.61,2.87 -1.11,1.95 0.5,4.29 0.72,1.05 3.19,3.15 4.14,3.62 5.66,2.79 11.48,-0.81 12.74,-1.15 -0.82,-3.1 -3.14,-5.23 -5.6,-7.02 -3.81,-2.79 -5.64,-0.73 -9.85,0.26 0.17,-0.15 0.46,-0.59 0.54,-0.43l3.32 -3.44c-2.35,-1.57 -4.18,-2.43 -5.79,-4.8zm8.23 0.94l-7.27 -0.61 7.27 0.61z"/>
   <path class="fil0" d="M472.69 275.81c-15.22,0 -11.41,-0.38 -22.22,-2.9 -0.31,3.73 -0.96,3.81 -0.96,8.7 6.25,-1.46 15.17,0.8 22.21,0.96 -1.29,4.87 -2.56,1.89 -3.86,6.76 3.81,0 3.92,-0.3 6.76,-0.96 0,-1.33 0.02,-2.52 0.08,-3.85 0.01,-0.3 0.04,-0.56 0.06,-0.86 0.57,-11.51 3.07,-13.94 -4.97,-14.61 1.01,4.32 1.92,3.1 2.9,6.76z"/>
   <path class="fil1" d="M293.05 131.88c-0.76,-11.36 -0.31,-8.55 1.3,-7.73 1.82,-6.02 -0.93,-0.15 -3.77,-2.38 -0.07,-0.06 -1.28,-1.58 -1.74,-2.06 -2.84,-2.97 -5.9,-4.26 -11.28,-4.26 0,7.05 -1.51,19.32 14.49,19.32 0,-5.19 -0.04,-1.37 1,-2.89z"/>
   <path class="fil1" d="M235.05 108.69c0,3.57 1.44,4.59 3,6.67 1.9,2.53 2.2,3.99 5.7,4.92 0.76,-2.1 4.83,-5.69 4.83,-10.62 0,-6.39 -4.26,-12.27 -9.66,-13.53 -1.13,4.86 -3.87,6.35 -3.87,12.56z"/>
   <path class="fil1" d="M324.89 160.85c0,2.51 0.65,1 0.97,4.83 2.54,-0.59 2.84,-0.87 4.83,-1.93l-0.97 9.66c8.08,-0.18 9.66,-4.39 9.66,-12.56 -2.61,0.22 -2.63,0.46 -4.83,0.97 2.85,-4.25 1.93,-2.56 1.93,-12.56 -4.38,0.1 -5.78,1.02 -8.03,3.56 -1.42,1.6 -3.56,5.65 -3.56,8.03z"/>
   <path class="fil3" d="M217.63 194.77l2.7 4c2.9,6.35 2.83,10.31 3.91,13.27 2.26,6.16 14.24,6.77 20.63,6.77 -3.1,-5.92 -17.25,-14.62 -25.23,-24.2l-0.85 -1.1c-0.19,0.21 -0.64,0.19 -0.68,0.52 -0.03,0.35 -0.28,0.53 -0.48,0.74z"/>
   <path class="fil1" d="M206.07 123.18c0,12.25 -0.48,7.51 2.9,12.56 1.99,-0.53 5.06,-2.7 6.48,-4.15 5.23,-5.35 3.06,-13.25 0.28,-19.04 -4.41,1.03 -9.66,5.31 -9.66,10.63z"/>
   <path class="fil1" d="M296.88 156.02l0 -0.96c-1.28,-0.78 -1.32,-0.15 -0.07,-0.97l0.08 -5.79c-2.09,-2.38 -4,-9.63 -11.09,-10.37 -3.16,-0.34 -3.16,0.45 -3.53,3.52 -0.7,5.93 0.92,8.27 3.67,11.02 3.6,3.6 4.29,3.55 10.94,3.55z"/>
   <path class="fil1" d="M212.45 169.55c-0.02,1.45 -0.33,0.9 0.15,2.18 0.52,1.38 0.66,1.24 1.2,1.94 1.19,0.68 0.97,-1.83 0.97,1.68 4.99,-0.42 7.63,-3.74 9.36,-8.11 2.2,-5.57 -0.31,-8.82 -2.6,-13.15 -10.22,2.38 -7.84,10.61 -9.08,15.46zm2.32 6.5l-0.54 -0.7 0.54 0.7z"/>
   <path class="fil1" d="M265.97 104.83c1.35,-5.06 1.93,-0.22 1.93,-6.77 0,-8.3 -8.77,-18.02 -11.21,-10.31 -3.16,10 2.35,16.5 9.28,17.08z"/>
   <path class="fil1" d="M302.55 131.88l-0.38 3.86 0.6 5.79c11.06,-0.24 14.16,-5.86 14.39,-16.42 -11.28,0 -8.3,2.87 -14.61,6.77zm0.56 -0.97l0.53 -0.63 -0.53 0.63z"/>
   <path class="fil1" d="M177.09 139.6c0.79,3.39 3.39,7.99 5.78,9.7 4.28,3.04 6.79,0.93 12.58,0.93 -0.24,-1.03 -0.13,-12.56 -12.56,-12.56 -2.72,0 -4.06,0.89 -5.8,1.93z"/>
   <path class="fil1" d="M197.54 137.67c3.95,1.83 5.02,-7.97 4.53,-10.38 -0.71,-3.49 -5.78,-8.05 -8.55,-9.9 -7.7,5.63 -2.11,13.75 -1.41,16.34 1.53,1.13 0.83,-0.84 2.02,2.3l1.55 -3.41c0.42,1.06 1.24,2.89 1.86,5.05z"/>
   <path class="fil1" d="M252.44 128.98c0,3.86 -0.03,6.46 2.67,9.89 2.12,2.69 3.43,2.8 6.99,3.63 0.23,-2.73 6.71,-15.96 -7.73,-19.32 -1,1.9 -1.93,2.85 -1.93,5.8z"/>
   <path class="fil1" d="M347.11 185c2.86,-1.18 4.02,1.13 9.75,-1.83 5.44,-2.82 9.41,-13.41 1.34,-12.42 -9.43,1.16 -11.09,6.98 -11.09,14.25z"/>
   <path class="fil1" d="M301.4 148.3l-0.12 4.83c1.31,0.98 2.18,-1.89 0.83,2.89l-0.08 2.9c2.38,-0.46 2.01,-0.1 3.54,-0.96 0.24,1.03 0.74,-0.73 -0.08,1.05 0,0.01 -0.76,1.12 -0.88,1.31 4.03,-3.56 7.31,-4.51 9.26,-10.09 -0.63,-1.7 -0.98,-7.26 -1.53,-9.66 -4.15,0.96 -5.81,2.28 -8.43,5.08l-2.51 2.65z"/>
   <path class="fil1" d="M184.82 233.63c-0.77,4.35 -2.55,4.88 -2.04,10.39 0.44,4.76 3.16,3.87 6.85,1.88 4.97,-2.67 7.64,-10.26 3.89,-16.01 -2.51,0.75 -2.31,1.11 -4.22,2.06 -2.79,1.39 -2.31,0.71 -4.48,1.68z"/>
   <path class="fil1" d="M228.29 131.88l0.97 0.96 0.96 0.97c2.66,0.62 5.08,1.31 7.73,1.93 0,-10.72 0.86,-12.46 -7.34,-16.01 -9.97,-4.33 -4.01,8.94 -2.32,12.15z"/>
   <path class="fil1" d="M189.65 159.89c0,6.67 8.16,9.82 9.91,9.99 5.52,0.55 -2.66,-1.87 4.58,-0.33 -0.08,-3.83 -1.6,-8.7 -3.53,-10.96 -2.33,-2.72 -6.52,-3.43 -10.96,-3.53l0 4.83z"/>
   <path class="fil1" d="M312.34 109.86l1.93 0.02c2.77,0.9 6.66,-0.34 9.34,-2.47 2.8,-2.22 4.08,-5.75 4.18,-10.31 -5.41,0 -8.27,-0.64 -11.42,2.11 -2.64,2.31 -3.7,6.28 -4.03,10.65z"/>
   <path class="fil1" d="M164.54 121.25c1.45,6.23 6.41,10.41 12.45,9.68 7.39,-0.89 -1.36,-1.16 5.9,-1.95 -1,-12.07 -13.12,-8.28 -18.35,-7.73z"/>
   <path class="fil1" d="M174.16 201.43c1.94,2.91 -0.12,0.37 2.97,2.76 0.06,0.04 1.69,1.23 1.79,1.3 1.48,1.06 -0.04,0.21 2.04,1.39 1.2,-0.78 0.96,-1.06 0.96,0.34 2.31,-1.69 0.97,-0.17 1.94,-2.94 0.06,-0.18 0.79,-4.83 0.79,-4.83 -0.25,-6.03 -14.71,-17.85 -10.49,1.98z"/>
   <path class="fil1" d="M337.45 189.46l1.04 -1.26c4.89,-5.58 5.27,-6.28 7.02,-5.13l-3.05 -0.58c-0.05,-0.59 0.09,-1.19 0.13,-1.07 0.03,0.13 0.23,-0.53 0.28,-0.71l0.39 -1.6c0.02,-0.21 0.02,-3.46 0,-3.66 -0.46,-3.27 -0.93,-3.49 -2.91,-4.93 -2.48,0.66 -3.39,1.22 -5.61,5.03 -3.51,6.05 0.14,9.63 2.71,13.91z"/>
   <path class="fil1" d="M218.63 146.37c0,1.46 3.64,8.37 10.75,7.45l2.78 -0.69c-2.54,-10.89 -2.93,-11.6 -13.53,-11.6l0 4.84z"/>
   <path class="fil0" d="M145.22 186.94l2.89 0.41 3.6 0.55c3.12,1.77 5.98,3.91 9.93,4.83 -0.66,-7.94 -6.22,-5.91 -11.38,-10.84 -4.92,-4.7 -4.13,-4.68 -7.55,-9.01 -5.84,-7.41 -0.12,7.11 5.4,11.16l-0.8 1.13c-0.02,0 -3.93,-2.73 -7.89,-3.06 2.5,3.73 2.5,1.97 5.8,4.83z"/>
   <path class="fil0" d="M230.22 133.81l-0.96 -0.97 -0.97 -0.96c-3.54,-0.95 -0.37,0.22 -3.19,-1.78 -1.02,-0.73 -2.8,-2.87 -2.67,-0.72 0.1,1.86 1.98,3.01 3.68,4.67 2.01,1.96 3.98,3.66 5.66,5.93l10.05 13.15c0,-11.54 1.06,-10.73 2.17,-19.29 0.39,-3.01 1.14,-3.01 -2.17,-3.9 0,6.46 -1.94,7.8 -1.94,15.46 -1.93,-1.42 -8.1,-9.28 -9.66,-11.59z"/>
   <path class="fil1" d="M320.06 221.36l-6.76 0.06c0,5.51 0.69,7.18 4.21,9.61 3.79,2.61 5.76,2.36 10.28,1.31 -0.31,-1.36 -1.63,-5.04 -2.37,-6.32 -1.47,-2.58 -3.04,-2.93 -5.36,-4.66z"/>
   <path class="fil1" d="M195.45 242c15.43,3.59 14.13,-9.89 14.49,-11.59 -12.9,3 -8.36,-1.19 -14.49,11.59z"/>
   <path class="fil1" d="M208.01 213.98c-1.92,-3.98 0.16,-5.95 -3.06,-9.49 -2.47,-2.71 -5.91,-2.3 -9.5,-4.03 0,11.22 1.89,12.64 12.56,13.52z"/>
   <path class="fil1" d="M326.83 148.91l0.96 0c3.16,-6.65 4.25,-1.03 6.64,-6.56 1.73,-4.02 0.69,-7.27 -0.84,-10.47 -2.72,1.82 -5.91,2.74 -7.55,6.04 -1.59,3.18 -0.43,7.54 0.79,10.99z"/>
   <path class="fil1" d="M337.45 152.16c0,3.33 0.71,3.74 0.97,6.76 8.32,-1.94 8.69,-5.58 8.69,-12.55 0,-6.19 -9.66,0.37 -9.66,5.79z"/>
   <path class="fil1" d="M200.96 185.97c0.81,0.85 0.47,0.64 1.61,1.57 1.38,1.12 1.08,0.84 2.54,1.78 1.24,-0.58 0.96,-0.83 0.96,0.52 5.43,-0.12 4.83,-0.43 4.83,-5.8 -1.36,-0.83 -1.31,-0.19 0.1,-0.97 0,-1.59 0.43,-1.25 -1.06,-1.25 -1.23,-0.38 -0.97,1.68 -0.97,-1.64 -8.84,-5.93 -8.87,-3.72 -8.01,5.79z"/>
   <path class="fil1" d="M318.13 180.26c1.71,-0.76 2.19,-0.98 3.94,-2.03 1.46,-0.87 2.82,-1.67 3.79,-2.18l0 -9.4c-9.03,0 -12.18,8.17 -7.73,13.61z"/>
   <path class="fil1" d="M294.95 115.45l0 2.9c3.43,2.3 2.1,3.48 6.76,3.86 0,0 6.82,-11.77 -4.83,-14.48 -1.12,2.33 -1.93,4.22 -1.93,7.72z"/>
   <path class="fil1" d="M320.06 125.11c0,2.54 1.58,2.5 1.93,6.77 8.3,-1.94 9.36,-7.76 5.8,-14.49 -4.5,1.2 -7.73,6.89 -7.73,7.72z"/>
   <path class="fil1" d="M311.04 202.35c-1.28,1.46 -3.02,3.2 -4.29,4.75 2.29,2.64 2.37,1.62 4.94,3.98 2.38,-0.32 4.9,-1.08 6.44,-2.29 0.89,-2.3 1.36,-2.95 1.93,-5.43l-6.12 -1.54c-0.14,-0.06 -0.44,-0.18 -0.64,-0.29l-2.26 0.82zm-2.65 0.93l1.15 -0.56 -1.15 0.56z"/>
   <path class="fil1" d="M287.22 212.05l4.83 -2.9c0,-1.5 -0.3,-0.96 1.5,-0.96l-0.07 -2.9c-3.56,-0.67 -4.57,-1.63 -8.19,-1.93 -2.5,1.67 -4.91,3.43 -5.8,6.76 4.04,0.94 2.65,1.82 7.73,1.93z"/>
   <path class="fil1" d="M217.67 228.04c-3.57,1.9 -2.66,2.2 -6.27,3.61 2.81,-6.34 5.73,-4.35 3.84,-5.85 -1.87,-1.22 -7.41,-1.23 -9.61,-0.22l9.61 0.06c-2.01,3.07 -7.51,4.75 -2.4,15.39 8.67,-2.31 5.05,-9.85 4.83,-12.99z"/>
   <path class="fil1" d="M253.41 154.09c2.2,-0.58 2.66,-0.91 2.93,-3.89 0.28,-2.93 -0.45,-3.4 -1,-5.77l-0.97 -0.96c-4.48,-1.2 -0.85,-1.52 -5.79,-1.94 -2.89,12.43 3.65,9.02 4.83,12.56z"/>
   <path class="fil1" d="M186.45 190.8l0 -0.96c-2.06,-3.68 -0.95,-4.89 -3.31,-7.05 -1.44,-1.32 -5.27,-2.72 -7.17,-0.82 -1.81,1.81 -1.55,8.83 10.48,8.83z"/>
   <path class="fil1" d="M303.64 182.77l0.82 -0.66c0.21,-1.38 -0.11,-1.13 1.11,-0.36l0.97 0c2.05,-5.32 4.53,-8.52 -0.97,-12.2 -1.82,1.22 -4.24,3.94 -4.68,6.04 -0.77,3.59 1.35,5.51 2.75,7.18z"/>
   <path class="fil1" d="M159.71 183.07l0 -7.72c-3.41,-2.29 -3.99,-2.77 -8.7,-3.87 0,3.73 0.01,6.78 1.83,8.83 2.14,2.42 5.01,2 6.87,2.76z"/>
   <path class="fil1" d="M278.84 180.18l0.05 1.93c0.21,0.18 0.47,0.24 0.56,0.62 0.1,0.44 0.87,1.02 1.04,1.21 0.78,0.91 -0.28,0.44 1.9,2.03l3.86 -2.9c0.21,-2.54 0.74,-2.67 0.52,-4.55 -0.17,-1.42 -1.08,-3.39 -1.48,-5.11 -4.77,0.4 -4.81,2.31 -6.45,6.77z"/>
   <path class="fil1" d="M284.32 163.75c0,8.75 1.09,8.31 7.73,3.87l0 -8.7c-3.25,0.27 -4.07,0.98 -7.73,4.83z"/>
   <path class="fil1" d="M188.69 189.84l1.08 0.96 8.33 2.82 -1.82 -1.02c2.75,-1.06 1.57,-4.03 1.17,-5.72l-5.87 -3.33 -3.86 0.55c0,3.86 -0.32,3.05 0.97,5.74z"/>
   <path class="fil1" d="M145.22 186.94c-3.76,0.31 -6.02,1.53 -7.73,3.86 4.08,6.1 8.47,4.35 13.52,0.97l-5.18 -4.48c-0.13,-0.07 -0.42,-0.22 -0.61,-0.35zm6.49 0.96l-3.6 -0.55 3.6 0.55z"/>
   <path class="fil1" d="M348.13 213.98l0 0.97c7.82,0 11.88,0.73 12.5,-6.76 -3.74,-0.08 -5.12,-1.46 -7.75,-0.11 -2.33,1.18 -2.93,3.26 -4.75,5.9z"/>
   <path class="fil1" d="M308.47 220.7l-5.8 -0.51c-2.28,1.32 -2.27,-0.56 -1.85,3.23 0.47,4.21 6.46,5.06 10.55,5.06 -0.1,-4.25 -1.47,-5 -2.9,-7.78z"/>
   <path class="fil1" d="M355.8 203.36c1.59,0.38 4.9,2.49 8.26,-1.41 1.45,-1.69 1.34,-2.62 1.4,-5.35 -9.9,0 -9.55,2.07 -9.66,6.76z"/>
   <path class="fil1" d="M306.54 195.47l1.52 -2.74 -0.84 -3.13c-0.93,-3.96 -0.15,-2.38 -3.58,-2.66 -2.77,4.13 -3.26,3.98 -1.93,9.66 3.06,-0.26 2.55,-0.64 3.1,-0.8l1.73 -0.33z"/>
   <path class="fil1" d="M314.27 171.86l0.96 0c3.35,-6.27 5.09,-1.62 2.9,-11.01 -3.92,1.05 -4.13,2.65 -5.79,5.8 0.54,2.36 1.07,3.2 1.93,5.21z"/>
   <path class="fil3" d="M308.39 203.28l-8.16 8.95 11.46 -1.15c-2.57,-2.36 -2.65,-1.34 -4.94,-3.98 1.27,-1.55 3.01,-3.29 4.29,-4.75l-1.5 0.37 -1.15 0.56z"/>
   <path class="fil4" d="M173.61 214.08c4.3,0.68 3.61,0.84 7.3,-1.16 -1.89,-4 -0.19,-1.03 -3.47,-3.2 -2.08,-1.37 -1.79,-1.86 -4.33,-3.46 2.17,1.71 3.11,1.89 3.87,5.1l-5.57 0.07c1.88,0.94 0.2,-0.01 1.79,0.7 1.64,0.73 0.53,0.07 1.68,0.84l-1.27 1.11z"/>
   <path class="fil5" d="M270.8 410.4l0.78 0.65c1.11,-0.71 3.8,0.98 0.18,0.98l-1.17 -0.01 0.21 1.31c2.63,3.56 -2.5,-0.92 1.53,1.08 2.59,1.28 0.96,0.07 3.3,1.85 1.53,0.44 1.43,-1.12 0.99,1.55l1.38 -1.59 2.02 1.59 -3.57 -3.77c-1.56,-1.85 -2.81,-3.52 -3.72,-4.88 -0.59,0.52 -1.5,0.62 -1.93,1.24z"/>
   <path class="fil3" d="M345.04 191.95l2.19 0.98c2.82,0.6 2,-0.35 4.35,0.73 0.16,-0.19 0.38,-0.78 0.43,-0.64l2.31 -4.35 -9.28 3.28z"/>
   <path class="fil3" d="M198.1 193.62l4.27 -0.68c-1.61,-3.53 -2.4,-3.4 -4.92,-6.06 0.4,1.69 1.58,4.66 -1.17,5.72l1.82 1.02z"/>
   <path class="fil4" d="M190.42 219.25l-0.55 -0.5 0.55 0.5zm2.71 7.14l4.34 -3.71 -6.44 -2.69c3.29,3.46 1.8,0.53 3.65,4.11 -2.2,0.66 -3.23,0.63 -4.96,1.37 6.5,-0.52 1.12,-0.26 3.41,0.92z"/>
   <path class="fil6" d="M192.11 133.73c0.92,1.61 -0.4,0.7 1.72,2.7 1.01,0.96 1.08,0.81 2.58,1.47l1.13 -0.23c-0.62,-2.16 -1.44,-3.99 -1.86,-5.05l-1.55 3.41c-1.19,-3.14 -0.49,-1.17 -2.02,-2.3z"/>
   <path class="fil4" d="M333.15 209.18l-2.55 -1.96 0.78 -1.93c-0.67,0.45 -1.73,0.65 -1.98,2.06 -0.02,0.09 0.11,0.44 0.11,0.52 -0.01,0.08 0.14,0.36 0.21,0.54l3.43 0.77z"/>
  </g>
 </g>
</svg>
