<!--?xml version="1.0" encoding="UTF-8"?-->

<!-- Creator: CorelDRAW 2018 (64-Bit) -->
<svg xmlns="http://www.w3.org/2000/svg" xml:space="preserve" width="84.6666mm" height="84.6666mm" version="1.1" style="shape-rendering: geometricprecision; text-rendering: geometricprecision; fill-rule: evenodd; clip-rule: evenodd;" viewBox="0 0 8466.66 8466.66" xmlns:xlink="http://www.w3.org/1999/xlink" class="">
 <defs>
  <style type="text/css">   
      
  </style>
 </defs>
 <g id="Слой_x0020_1">
  <metadata id="CorelCorpID_0Corel-Layer"></metadata>
  <g id="_2106462627024" style="fill:none; stroke: #447dc3; stroke-width: 40px;">
   <path class="fil0 KnGMkPVg_0" d="M4394.29 6642.52l0 0zm21.34 -10.67l-21.34 10.67 21.34 -10.67zm21.31 -10.67l-21.31 10.67 21.31 -10.67zm820.96 -597.05l0 0zm10.66 -10.67l-10.66 10.67 10.66 -10.67zm10.66 -10.65l-10.66 10.65 10.66 -10.65zm10.66 -10.67l-10.66 10.67 10.66 -10.67zm0 0l21.32 -31.98 -21.32 31.98zm31.99 -42.65l-10.67 10.67 10.67 -10.67zm-682.35 490.45c48.18,-94.06 271.15,-337.75 380.29,-557.94 87.62,-176.79 148.74,-265.19 237.95,-465.73l70.91 -152.99c0.78,-1.45 2.38,-4.66 3.86,-6.8l55.8 74.57c-55.98,85.24 -103.41,206.54 -160.35,300.67 -91.93,151.99 -471.52,776.98 -588.46,808.22zm916.91 -1343.39l4.96 -21.32 -4.96 21.32zm-722.69 -466.81c69.91,82.54 182.61,193 247.12,292.03 30.64,47.03 50.13,59.46 83.58,100.1l-200.53 420.4c-38.87,65.53 -73,123.99 -117.49,191.71l-55.85 72.1c-29.57,38.08 -40.71,63.39 -87.08,94.15 0.04,-85.57 17.76,-216.98 29.08,-301.43 13.02,-97.08 -2.51,-226.03 2.85,-327.67 5.49,-104.19 48.35,-468.75 98.32,-541.39zm476.56 510.37l-81.13 -115.5c22.75,-39.55 49.06,-113.63 71.19,-162.8 25.14,-55.85 44.6,-111.28 67.14,-167.42 25.55,-63.66 106.05,-299.98 135.61,-333.5 0.19,99.15 -22.18,209.19 -46.42,305.41 -9.68,38.37 -11.94,63.91 -23.59,104.36 -18.03,62.61 -81.19,310.68 -122.8,369.45zm246.13 -1035.1c43.38,31.03 64.61,412.95 64.7,479.79 0.25,205.81 -166.27,539.92 -214.89,702.75 -86.66,-100.18 -47.1,-98.3 4.81,-251.08 62.55,-184.11 129.87,-391.05 134.51,-590.49 1.55,-66.96 18.16,-90.87 6.54,-166.35 -13.44,-87.33 4.24,-102.19 4.33,-174.62zm-3305.14 -31.99c57.02,15.44 36.35,44.44 170.39,85.49l74.82 21.13c-80.1,0 -192.2,-1.95 -245.21,-106.62zm-53.31 -21.32l0 0zm0 0l-10.66 -10.66 10.66 10.66zm-10.66 -10.66l-11.14 -19.31 11.14 19.31zm831.62 -10.66l-21.32 -4.97 21.32 4.97zm-884.93 -31.98l0 0zm0 0l-10.66 -10.67 10.66 10.67zm3049.25 970.21c-49.89,-55.72 -110.71,-138.29 -161.5,-200.99 -46.27,-57.12 -135.06,-139.82 -169.41,-194.63 -5.43,-24.49 171.61,-622.34 605.14,-705.52 127.2,-24.39 230.38,-32.79 330.36,69 7.65,52.62 -84.66,472.41 -114.14,520.38l-25.58 -262.3c-9.13,-59.17 -42.21,-168.08 -90.79,-207.74 -44.31,32.97 -65.14,183.28 -81.79,250.56 -19.05,77 -60.46,173.36 -91.22,249.95l-201.07 481.29zm-3059.91 -980.88l-10.67 -10.66 10.67 10.66zm-10.67 -10.66l-10.65 -10.66 10.65 10.66zm31.98 -31.99l0 0zm0 0l-21.31 -21.32c29.99,6.06 15.26,-8.68 21.31,21.32zm-21.31 -21.32l-10.67 -10.67 10.67 10.67zm-10.67 -10.67l0 0zm447.79 -74.62c70.28,45.96 141.66,101.02 222.55,129.29 41.85,14.61 205.58,96.62 225.25,126.59 -89.71,1.89 -396.08,76.43 -455.1,61.36 -28.57,-7.31 -45.46,-28.46 -91.4,-37.29 -108.87,-20.91 -89.33,-16.44 -183.06,-83.52 -13.57,-9.72 -119.56,-81.72 -37.66,-57.22 60.47,18.09 103.89,81.99 250.77,78.71 50.81,-1.14 110.76,6.41 167.71,13.53 48.27,6.05 140.54,21.81 180.89,5.85 8.4,-59.3 -251.54,-132.36 -279.95,-237.3zm0 0l-10.66 -10.67 10.66 10.67zm-266.53 -21.33l0 0zm1002.2 -319.85l0 0zm0 0l0 0zm1140.8 3123.89c0.27,-0.36 197.17,-177.67 202.58,-181.24l-7.4 34.75c57.42,16.78 108.92,-65.58 143.16,-101.56 30.5,-32.04 102.04,-116.76 130.78,-135.77l10.66 -10.65c8.77,-32.78 145.76,-213.27 177.05,-260.09 88.22,-132.01 266.48,-423.86 322.56,-562.37l140.1 -307.7c-2.14,106 -134.97,366.5 -184.19,476.85 -28.88,64.74 -78.88,148.79 -120.53,209.98 -52.85,77.66 -126.94,152.11 -100.43,208.76 58.11,-39.6 173.45,-219.74 213.89,-287.21 98.62,-164.45 258.95,-541.72 276.25,-747.27 24.53,-291.27 15.51,-166.83 87.88,-423.9 98.68,-350.53 172.28,-707.98 209.22,-1070.19 31.48,-308.87 23.06,-429.63 23.06,-744.59l53.73 628.57c2.44,491.19 -109.89,1328.62 -313.14,1766.81 -266,573.47 -612.88,1302.56 -1265.23,1506.82zm-53.3 -3177.2l0 0zm0 0l15.17 -41.91c26.07,33.26 20.68,32.1 -15.17,41.91zm41.09 -72.08c51.55,2.1 24.84,-5.62 30.8,17.86l-30.8 -17.86zm-126.39 -450.34l0 0zm-959.55 383.81l10.65 -10.65 10.67 -10.67c41.19,-55.28 144.4,-116.67 198.08,-185.74 58.33,-75.04 115.82,-143.4 183.02,-211.45 161.23,-163.26 139.06,-17.82 538.65,75.22 136.31,31.75 -2.62,-46.83 260.22,101.56 164.76,93.03 437.58,152.74 621.95,71.24 123.63,-54.65 123.13,-105.44 195.14,-201.31 37.56,2.16 36.9,11.62 79.92,8.06l257.94 -30.73c9.97,113.44 24.12,36.16 21.76,245.64 -2.21,194.36 -103.06,422.79 -329.52,470.12 -159.78,33.41 -305.28,2.39 -439.2,-75.43 -51.88,-30.14 -296.79,-181.82 -319.21,-213.87 66.66,-1.41 183.91,-23.31 252.61,-35.25 50.61,-8.8 80.48,-3.68 129.86,-8.74 45.05,-4.62 77.96,-19.93 129.29,-19.98 -6.86,-81.1 -32.69,-26.94 -170.65,-21.38 -121.03,4.88 -675.47,89.64 -802.81,135.43 -105.21,37.83 -26.45,21.39 -175.86,58.69l-279.83 72.01c-38.02,9.49 -59.68,8.78 -63.49,53.78 107.74,-25.95 220.19,-56.12 325.89,-79.24 72.8,-15.92 285.18,-45.55 321.73,-90.43 16.15,27.69 -16.64,18.9 45.39,20.41 -24.53,58.43 -40.17,-14.47 -86.21,41.73 14.91,34.65 53.52,30.72 72.81,23.15 -4.22,36.72 11.25,3.18 -19.9,40.18 -9.83,11.68 -30.06,28.79 -44.89,31.95 -75.34,16.04 -14.03,-34.16 -92.4,-41.05 0.05,52 17.44,94.29 75.1,97.1 78.1,3.81 70.16,-72.6 210.89,-152.3 78.6,-44.54 34.87,-66.23 68.59,-112.65 79.36,-9.23 83.53,28.38 191.28,101.76 56.05,38.16 119.68,92.09 175.62,122.91 135.02,74.37 321.69,140.89 477.48,107.94 194.65,-41.19 238.3,-103.54 334.44,-262.61 112.62,-186.31 44.66,-401.92 44.54,-520.54 33.29,-29.29 49.17,-24.92 84.83,-43.11 28.37,-14.45 49.92,-36.19 75.1,-52.85l-33.56 552.85c-13.52,131.39 -43.67,401.98 -73.06,523.99 -133.41,-87.39 -196.59,-88.02 -354.7,-56.16 -112.79,22.74 -219.39,63.95 -309.75,138.04 -148.66,121.91 -189.6,193.6 -280.95,390.75 -19.58,42.25 -45.81,118.34 -69.44,154.45 -146.7,-169.9 -290.05,-263.18 -471.51,-388.15 -179.46,-123.57 -289.25,-255 -592.64,-270.97 -111.86,-5.89 -467.56,28.36 -530.4,-45.33 -6.56,-56.16 15,-75.23 40.1,-125.02 28.66,-56.88 28.42,-80.53 42.46,-138.78l52.74 12.22c-46.86,24.11 -39.6,-14.74 -39.34,38.35 33.78,23.58 99.49,-6.39 126.11,-30.16 -73.84,-97.32 -87.62,-80.71 -119.11,-127.94 34.98,-59.69 27.43,-101.66 43.57,-127.04zm2025.73 -405.14c3.12,-35.97 18.75,-57.46 26.23,-91.05 9.42,-42.26 2.97,-68 7.39,-109.88 6.74,-63.93 5.28,-160.03 30.35,-214.88 52.29,1.16 56.88,27.12 87.42,72.51 119.6,177.68 77.18,114.09 168.46,311.31 -103.28,11.06 -189,31.99 -319.85,31.99zm-2345.58 1130.15c46.08,0.09 50.66,12.18 74.62,-21.33 -20.29,-28.41 -107.54,-25.61 -155.58,-36.33 -143.32,-31.95 -302.24,-100.3 -384.08,-223.63 -161.99,-244.1 -76.99,-404.33 52.29,-579.25 196.15,-265.39 504.48,-359.4 811.47,-403.97 81.82,-11.88 281.66,-30.28 354.13,12.95 -33.98,48.23 -68,54.48 -106.06,107.18 -90.16,124.91 -178.35,243.14 -304.29,335.42 -62.68,45.94 -74.72,49.9 -86.97,126.19 -10.31,64.13 -13.91,32.99 -33.2,74.61 -20.02,43.17 3.02,42.16 -1.57,84.66 -0.24,2.13 -48.19,158.83 -49.77,161.44 -25.2,41.84 -67.56,86.9 -56.8,142.18 33.23,170.91 374.2,27.58 725.82,104.85 212.68,46.73 365.28,205.12 538.28,325.33 79.41,55.18 172.08,117.91 239.87,186.6 131.32,133.05 147.11,85.25 95.72,261.47 -84.38,289.34 -53.68,501.06 -60.73,792.21 -1.46,60.14 -22.88,343.81 -35.94,390.53 -10.62,37.94 -184.04,171.35 -226.83,199.63 -144.16,95.32 -294.97,149.45 -466.78,172.79 -50.22,6.82 -160.09,-16.31 -187.95,14.78 13.17,36.16 40.62,42.26 106.48,43.52 51.14,0.98 94.62,-9.06 140.86,-20.07 491.53,-117.04 547.53,-279.17 626.93,-300.66 -4.86,54.57 -20.19,138.26 -21.32,191.91 42.96,-0.93 61.78,-3.95 64.19,-138.37 3.96,-220.07 83.82,-158.62 242.89,-396.82 121.87,-182.48 247.96,-488.69 296.72,-548.4 90.14,80.17 90.33,111.61 39.27,212.69 -37.5,74.24 -64.98,166.91 -103.83,237.35 -180.98,328.13 -532.29,1043.73 -916.92,1119.49 -189.47,37.31 -370.3,43.27 -504.21,-115.82 -241.35,-286.72 -174.32,-769.37 -56.49,-1095.26 27.8,-76.87 198.77,-429.78 194.1,-474.03 -55.97,-15.44 -66.1,73.28 -87.62,122.06 -60.12,136.21 -169.91,374.28 -204.63,499.04l-60.22 291.62c-7.94,76.69 -7.11,241.71 5.85,321.83 13.38,82.8 40.57,110.53 56.7,177.86 -49.69,-36.2 -167.73,-345.85 -196.53,-421.85 -91.5,-241.5 -136.21,-496.84 -191.49,-746.75 -45.47,-205.58 -47.91,-399.66 -127.49,-661.55 -24.27,-79.9 -24.69,-54.29 2.04,-115.93 -119.5,-134.51 -379.97,-100.83 -534.69,-129.65 -34.78,-6.48 -53.23,-6.41 -77.25,-29.38 -8.56,-8.2 -54.35,-54.14 -58.04,-59.22 75.93,18.38 27.86,42.56 117.28,42.63 -10.26,-37.9 -8.53,-19.41 -31.08,-50.56 107.25,-11.74 190.5,-19.74 293.12,-39.22 70.77,-13.43 239.89,-24.63 292.36,-48.81 22.12,33.8 45.85,59.89 64.16,95.77 7.69,15.06 16.06,35.83 24.67,49.95 26.16,42.85 12.14,31.45 49.78,35.53 0.17,-87.99 -34.11,-119.72 -75.54,-191 10.12,-7.18 5.2,-5.24 21.37,-12.07l337.37 -78.82c66.83,-8.89 95.16,13.55 100.63,-48.63 -76.67,0 -127.79,11.24 -202.43,10.8 -60.35,-0.34 -163.96,-18.16 -206.38,17.53 -2.28,33.65 3.57,15.88 34.73,32.9 -62.5,12.23 -136.28,68.85 -190.99,-7.92zm799.62 -1279.41l3.18 3.17c-0.21,-0.2 -4.24,-2.11 -3.18,-3.17zm2494.85 -223.9c-11.38,-14.85 -11.9,8.55 -7.92,-31.06l7.92 31.06zm-21.33 -74.64l3.19 3.19c-0.22,-0.21 -4.25,-2.13 -3.19,-3.19zm-64.09 -414.62l10.91 40.31 -10.91 -40.31zm-1929.65 883.75c-73.23,-17.64 -362.36,-112.07 -402.4,-146.53 47.93,-37.89 54.4,-24.14 106.76,-16.86 213.46,29.68 261.12,82.97 327.62,88.75 -7.88,-87.49 -261.64,-123.73 -339.34,-129.76 59.12,-51.02 113.4,-67.11 159.28,-92.95 42.64,-24.01 29.5,-0.79 30.8,-54.49 -51.89,12.34 -194.97,94.4 -248.25,125.04 -77.08,44.33 -57.55,14.49 -145.8,13.14 -66.51,-1.01 -120.16,3.84 -186.24,-5.68 -369.61,-53.28 -944.11,-4.92 -1275.43,186.78 -72.47,41.93 -156.86,99.15 -201.83,171.32 -60.36,96.88 -59.94,132.95 -37.64,218.55 10.62,40.75 3.63,43.88 48.14,47.84 -67.77,-285.66 135.76,-392.76 409.01,-486.59 157.46,-54.06 159.78,-41.37 285.17,-66.65 33.97,-6.85 64.05,-16.15 96.33,-20.96 150.57,-22.42 284.69,-33.53 446.25,-33.53l-86.22 20.4c-308.44,58.77 -310.13,77.42 -571.55,238.75 -86.63,53.45 -163.32,151.92 -218.73,239.72 -113.03,179.13 -72.53,270.29 -72.39,364.74 21.9,34.29 26.66,88.66 49.6,131.64 23.73,44.45 69.01,79.13 78.33,113.57l-31.16 -12.83c1.7,121.43 150.83,162.32 223.07,226.07 -38.7,-3.44 -91.49,-15.96 -129.46,-19.8 -46.72,-4.72 -93.62,-5.64 -138.91,-10.35 -70.09,-7.29 -157.3,-19.12 -222.98,-77.38 32.86,-43.8 85.16,-83.23 86.21,-137.69l-42.64 21.32 -19.91 -24.48c-44.6,37.15 -35.8,74.95 -76.97,121.35 -33.42,-25.17 -63.62,-87.4 -116.37,-20.41 -33.35,-25.67 -18.2,-22.26 -63.97,-23.14 2.66,62.02 43.78,33.18 85.31,95.95l-41.28 5.72c15.57,62.99 72.58,59.17 99.1,107.04 40.8,73.64 29.57,58.01 95.42,115.22 -36.21,17.09 -35.02,-2.86 -44.96,35.56 69.54,45.39 2.57,-56.69 182.44,74.78 125.78,91.92 289.45,54.18 481.16,94.58 132.41,27.91 109.89,24.28 138.48,149.39 73.97,323.74 100.91,647.71 167.22,973.57 74.48,366.06 253.85,900.72 574.65,1131.24 168.49,121.08 302.21,60.41 468.8,57.07 -21.2,35.6 -49.87,-0.71 -70.55,50.24 42.77,64.53 437.71,-161.95 490.48,-179.62 88.58,-29.65 -40.5,88.72 290.75,-177.55 40.46,-32.54 51.06,-62.26 101.38,-101.19 498.68,-385.71 883,-1000.47 1093.13,-1593.63 175.08,-494.18 289.67,-1275.1 221.68,-1802.47 -12.72,-98.65 -34.27,-283.19 -36.52,-379.29 35.47,51.14 9.94,115.4 52.4,150.18 36.04,-25.88 12.92,-79.86 -10.45,-192.12 -41.54,-199.6 -56.16,-348.14 -87.08,-541.97 -9.05,-56.78 -12.14,-65.27 -61.49,-66.46 6.93,28.77 8.39,31.39 12.22,64.01 0.11,0.94 2.4,26.66 2.4,26.97l-4.87 27.21c-23.31,-42.25 8.86,-80.01 -52.4,-96.86 -8.6,14.27 -4.41,-3.66 -6.43,21.33 -1.28,15.62 -0.04,19.29 2.26,34.57 16.06,106.86 22.03,105.74 48.37,198.42 24.1,84.75 77.82,768 91.92,889.98 11.69,101.19 -20.61,492.51 -30.72,592.34 -18.42,181.7 -47.13,383.51 -88.2,562.16 -82.64,359.49 -168.35,635.57 -333.5,967.24 -73.92,148.46 -410.28,703.91 -525.97,785.42 14.38,-54.45 178.06,-276.77 220.38,-355.35 229.83,-426.63 393.06,-800.14 468.31,-1290.89 27.39,-178.69 72.77,-591.89 79.33,-794.92 7.67,-237.46 -37.4,-582.54 -70.9,-814.77 -14.31,-99.19 -19.01,-436.41 -100.07,-465.02 -25.75,55.97 52.68,229.67 43.79,330.92 -6.07,69.11 -1.64,19.37 -17.71,47 -52.5,90.28 43.99,123.82 -207.32,251.13 -142.17,-280.66 -47.74,-117.56 -223.9,-383.82 63.42,-15.29 119.27,-22.31 183.65,-40.25 50.44,-14.05 141.53,-26.99 146.87,-87.69 -110.08,26.2 -215.44,69.39 -330.17,87.21 -44.23,6.88 -45.12,-2.64 -75.89,-43.66 37.07,-136.79 114.68,-238.64 243.02,-302.55 37.84,-18.84 34.28,-9.27 45.75,-39.54 -73.95,-32.84 -244.06,116.9 -283.53,174.91 -21.9,32.18 -35.44,76.73 -54.9,99.56 -204.88,-204.3 -234.04,-600.04 83.46,-552.88 59.71,8.86 67.62,28.96 116.38,33.19 -10.27,-120.77 -402.98,-129.7 -406.09,149.2 -2.97,265.48 192.63,371.47 188.13,433.82l-15.49 46.58c-9.86,20.42 -4.11,9.66 -11.78,20.76 -187.54,0 -367.9,4.7 -554.76,10.32l-388.13 38.33c-41.64,8.11 -88.92,-0.62 -101.96,47.31 19.78,12.3 227.84,-20.49 233.06,-21.67l811.79 -31.63 -52.6 373.86c-9.87,21.36 -3.59,9.38 -11.37,20.63 -49.05,-4.37 -113.98,-19.59 -162.67,-29.24 -45.65,-9.07 -120.68,-40.88 -157.19,-24.08 13.01,47.79 85.51,46 135.95,55.97 59.05,11.66 110.84,29.44 173.25,29.33 -51.99,192.33 -303.82,217.34 -480.81,182.28 -224.56,-44.49 -304.51,-130.04 -427.7,-192.34 -38.05,-19.24 -48.74,-23.99 -61.71,10.06z"></path>
   <path class="fil1 KnGMkPVg_1" d="M4063.79 586.63c19.4,124.49 12.27,112.21 10.65,245.22 104.32,0 82.53,-8.06 148.93,-12.61l181.59 1.95 0 74.63 63.97 0c0,-298.9 -31.99,-46.78 -31.99,-191.91l0 -213.24 -85.29 0 0 255.89 -53.31 0c0,-76.92 -12.81,-102.88 -10.66,-255.89l-74.63 0 -1.2 265.7c-33.8,-15.53 -27.78,-15.53 -60.03,-0.07l-2.74 -265.63 -85.29 0 0 95.96z"></path>
   <path class="fil0 KnGMkPVg_2" d="M4286.92 5747.69c28.42,-43.68 -20.49,-117.28 -46.41,-209.49 -19.63,-69.86 -46.24,-140.97 -68.77,-208.43 -59.71,-178.87 -231.41,-745.8 -84.48,-892.09 51.93,-51.71 128.13,-75.18 200.15,-77.36 44.12,-1.32 87.26,-0.48 126.49,12.96 50.11,17.18 52.73,49.39 101.12,33.94 46.43,-137 -575.35,-241.76 -533.82,281.58 20.21,254.75 119.47,602.86 213.75,841.66 20.44,51.77 41.78,201.2 91.97,217.23z"></path>
   <path class="fil2 KnGMkPVg_3" d="M2549.81 1087.73c-25.72,-127.54 124.99,-78.69 147.91,45.98 24.24,131.93 -126.62,59.6 -147.91,-45.98zm-74.63 63.97c-30.57,-11.58 -19.7,-8.51 -41.05,-44.25 -11.9,-19.92 -20.35,-36.64 -32.66,-52.61l-67.27 28.97 170.61 293.56 48.15 -31.11c18.5,-12.77 5.85,-2.47 19.09,-14.22 -26.85,-35.78 -61.01,-82.43 -64.88,-127.02 63.63,23.82 94.73,128 213.68,53.77 83.51,-52.12 71.19,-148.58 27.14,-219.97 -44.66,-72.38 -116.18,-124.08 -198.92,-90.26 -132.23,54.02 -58.91,165.46 -73.89,203.14z"></path>
   <path class="fil2 KnGMkPVg_4" d="M2219.3 6791.78l0 0zm10.67 -10.67l-10.67 10.67 10.67 -10.67zm-63.97 -42.64l0 0zm-63.97 -42.65l0 0zm10.65 -10.67l-10.65 10.67 10.65 -10.67zm53.32 53.32l-73.1 171.29 71.35 65.1c30.16,-20.64 207.7,-231.34 215.88,-258.63 -24.02,-32.03 -18.03,-31.94 -55.13,-42.65l-95.03 107.53c4.63,-53.43 39.75,-86.4 54.21,-139.51l-34.63 -39.92c-46.98,8.18 -88.41,70.37 -136.87,83.47 23.62,-35.7 76.49,-85.79 86.21,-118.19 -24.04,-32.04 -18.03,-31.93 -55.13,-42.64l-215.22 254.36 77.35 55.96c60.21,-16.65 100.81,-79.95 160.11,-96.17z"></path>
   <path class="fil2 KnGMkPVg_5" d="M6089.52 7068.98l11.13 19.3 -11.13 -19.3zm0 0l-53.12 -47.98 30.68 -29.76 22.44 77.74zm42.64 -170.59l0 0zm0 0l95.3 -64.52c9.57,10.59 6.9,6.8 19.74,24.03 8.25,11.1 9.87,13.7 17.48,25.36 29.49,45.19 75.38,135.36 112.71,166.23l56.74 -40.21 -176.65 -279.77 -218.42 139.81 15.9 57.65 -68.77 43.64 -43.79 -42.42c-30.96,10.28 -50.61,22.77 -67.03,45.75 51.22,39.96 207.2,186.32 246.13,235.47 27.96,-16.66 40.46,-24.65 64.88,-43.56l-54.22 -267.46z"></path>
   <path class="fil2 KnGMkPVg_6" d="M7304.96 5778.91l0 0zm31.97 -63.97l0 0zm-31.97 63.97l-137.59 -65.92 -34.83 65.92c37.72,29.57 262.68,145.86 300.35,149.26l41.03 -81.54 -136.99 -131.69 181.48 30.87 54.66 -82.88 -299.15 -155.23 -34.59 63.79 142.09 75.88 -170.04 -29.27 -20.56 47.81 114.14 113z"></path>
   <path class="fil2 KnGMkPVg_7" d="M7475.54 5448.39l0 0zm0 0l-21.32 -10.66 21.32 10.66zm-21.32 -10.66c-45.82,-10.91 -89.48,-40.28 -136.78,-40.82l-23.36 62.77 305.69 126.98c23.38,-30.75 32.34,-61.19 36.62,-96.54l-151.39 -114.75c61.29,-1.61 136.06,10.08 190.37,16.97l49.17 -91.35 -309.78 -126.79 -34.55 68.76 150.6 62.09c-49.68,3.73 -124.4,-14.22 -170.72,-14.76 -34.48,105.41 43.07,69.65 94.13,147.44z"></path>
   <path class="fil2 KnGMkPVg_8" d="M2720.4 7143.62l0 0zm-53.3 -63.97l0 0zm0 0c-5.43,60.84 -44.93,126.58 -39.91,178.5l49.96 28.09 126.09 -155.22c-10.62,56.86 -53.16,138.99 -48.11,191.1 29.48,23.13 35.84,31.48 71.89,34.73 0.85,-40.21 68.9,-286.95 87.12,-319.86 -22.03,-17.27 -51.88,-36.6 -77.37,-43.55l-116.37 150.18 51.81 -182.27 -63.27 -42.19 -227.16 263.72 73.92 36.93 111.4 -140.16z"></path>
   <path class="fil2 KnGMkPVg_9" d="M3370.77 853.18l0 0zm0 0l93.81 87.47c18.02,-9.28 28.49,-10.18 41.67,-16.03 51.51,-22.95 20.3,6.63 35.1,-28.8 -32.18,-8.7 -102.58,-86.74 -149.26,-117.28l54.61 -180.85c-78.49,5.85 -107.8,20.03 -107.91,148.87l-41.49 -105.25 -74.29 18.32 32.1 107.72 -95.44 -86.94 -77.23 21.86c12.49,33.08 37.2,40.96 65.99,64.06 24.83,19.93 43.99,36.93 70.34,57.6l-50.98 199.73c156.88,-13.83 67.51,-80.97 117.68,-159.83l33.5 115.55 71.63 -18.02 -19.83 -108.18z"></path>
   <path class="fil2 KnGMkPVg_10" d="M1270.41 2463.1l74.42 11.75 -27.25 40.32 -47.17 -52.07zm0 0l-21.32 -4.96 21.32 4.96zm-140.08 -31.8c42.62,55.47 225.13,204.76 236.03,245.03l-287.64 -131.34 -36 66.91 300.89 142.12c28.76,-35.75 28.36,-51.67 48.5,-95.25 31.78,-68.77 22.41,-48.18 -16,-98.79l24.9 -62.7 70.15 6.56 37.94 -70.42c-60.48,-15.88 -299.49,-67.64 -343.49,-63.53l-35.28 61.41z"></path>
   <path class="fil2 KnGMkPVg_11" d="M7720.76 3571.92l0 0zm0 0c59.17,-83.01 178.07,-53.16 136.78,-179.42 -97.27,-7.73 -224.73,41.02 -328.69,40.81l12.79 83.42 178.99 -30.83c-114.47,104.36 -159.8,44.57 -159.8,192.64 40.68,-0.03 303.8,-42.24 339.36,-55.14l-14.44 -74.59 -164.99 23.11z"></path>
   <path class="fil2 KnGMkPVg_12" d="M961.22 4734.06l-19.31 11.12 19.31 -11.12zm0 0l148.3 -117.69c-5.01,-27.82 -7.04,-50.91 -23.1,-71.49l-317.25 60.56 3.31 68.55c38.62,11.34 137.94,-15.56 178.07,-25.23 -55.4,84.41 -149.26,49.74 -149.26,181.26 57.95,26.71 259.95,-38.23 339.35,-44.48l-13.66 -76.14 -165.76 24.66z"></path>
   <path class="fil2 KnGMkPVg_13" d="M7528.85 2846.92l0 0zm-31.99 -74.63l0 0zm0 0l-120.02 148.48 35.65 65.67 296.87 -126.88c-1.07,-34.81 -14.23,-50.21 -23.32,-75.7l-157.19 63.06c15.42,-23.3 57.07,-73.56 77.47,-93.19 65.26,-62.82 36.29,-46.56 18.48,-120.04l-307.61 127.93 31.33 75.56 148.34 -64.89z"></path>
   <path class="fil2 KnGMkPVg_14" d="M1174.45 5448.39l0 0zm10.67 -10.66l-10.67 10.66 10.67 -10.66zm-42.65 -63.97l0 0zm0 0l-117.96 137.91 28.74 67.04 301.5 -117.99 -18.19 -75.08c-52.69,7.65 -99.03,47.54 -151.44,52.09l118.96 -138.74 -26.09 -50.22c-0.95,-1.8 -3.01,-5.37 -3.78,-6.82 -0.78,-1.45 -2.33,-4.66 -3.8,-6.79l-306.86 120.39 24.33 74.12 154.59 -55.91z"></path>
   <path class="fil2 KnGMkPVg_15" d="M6622.6 1524.86l0 0zm-63.97 -42.64l0 0zm10.67 -10.67l-10.67 10.67 10.67 -10.67zm53.3 53.31l-108.21 128.15 53.13 56.67 227.14 -249.12c-21.79,-28.55 -33.31,-29.49 -54.78,-54.8 -37.98,21.27 -128.75,62.17 -170.58,65.79 29.26,-58.27 60.59,-68.56 96.86,-116.36 -10.54,-26.69 -25.32,-33.73 -54.22,-56.05 -29.02,24 -207.06,224.37 -214.14,247.96l46.73 51.04 178.07 -73.28z"></path>
   <path class="fil3 KnGMkPVg_16" d="M4575.55 671.92l3.18 3.19c-0.21,-0.22 -4.25,-2.13 -3.18,-3.19zm95.96 -21.32c-4.03,45.16 -23.49,148.57 -14.32,184.91l78.23 8.19c0.06,-114.58 21.38,-215.09 21.38,-331.71l-64.55 -12.99c-27.21,35.87 -78.87,142.89 -106.04,162.27 0,-67.29 10.66,-107.33 10.66,-170.6l-5.56 0c-114.36,0.26 -69.72,9 -82.74,114.27l-19.13 185.04c3.91,44.93 55.71,79.02 107.17,-11.69 22.97,-40.48 46.69,-95.73 74.9,-127.69z"></path>
   <path class="fil2 KnGMkPVg_17" d="M1696.87 6312l0 0zm0 0c-3.44,39.7 -43.61,123.37 -65.8,159.92l52.84 67.4 251.87 -224.49c-17.72,-22.52 -36.95,-44.83 -47.9,-57.06l-137.13 118.84c35.06,-158.42 120.24,-137.37 28.68,-244.95l-256.12 219.68 54.86 59.87c49.24,-38.35 60.9,-70.17 118.7,-99.21z"></path>
   <path class="fil2 KnGMkPVg_18" d="M6388.04 1322.29l0 0zm-74.63 -31.98l0 0zm74.63 31.98l-99.63 147.94 57 45.78 201.57 -271.4c-59.69,-43.53 -40.03,-57.56 -113.15,-15.5 -32.32,18.57 -88.97,53.58 -120.42,61.2 24.98,-38.2 87.44,-110.68 93.22,-146.53 -16.06,-13.64 -30.09,-20.79 -50.58,-36.56 -43.16,33.35 -162.13,210.31 -201.66,265.63l62.83 47.54 170.82 -98.1z"></path>
   <path class="fil1 KnGMkPVg_19" d="M7656.79 3913.09c40.53,-0.85 43.73,-8.52 85.24,-10.71 33.42,-1.76 72.61,0.06 106.67,0.06 0.14,73.98 -10.04,91.3 -85.92,96.56 -81.27,5.64 -95.45,-12.01 -105.99,-85.91zm266.55 -65.36l0 124.29c-42.74,127.53 -225.92,143.9 -299.87,70.36 -10.35,-10.28 -107.46,-206.83 11.25,-215.32 44.87,-3.2 257.02,-11.12 281.61,-2.91 2.7,8.06 5.02,15.92 7.01,23.58z"></path>
   <path class="fil2 KnGMkPVg_20" d="M898.21 3657.4l-63.53 -10.77c-4.31,-63.55 14.67,-94.77 70.49,-50.64l-6.96 61.41zm-150.23 63.78c106.87,-0.19 223.64,42.86 330.51,42.65l8.87 -72.79c-51.96,-9.45 -55.76,-12.5 -115.49,-12.5 0.12,-123.63 41,-59.6 114.55,-66.71 28.73,-36.36 24.02,-36.09 24.06,-82.56l-76.27 1.42c-39.7,-3.59 -50.58,-7.39 -83.66,11.07 -39.29,-49.93 -116.97,-70.26 -161.45,-24.99 -28.81,29.32 -41.12,158.74 -41.12,204.41z"></path>
   <path class="fil2 KnGMkPVg_21" d="M5610.66 788.29l34.71 18.6c20.97,62.79 -27.21,215.35 -102.87,179 -64.13,-30.79 -0.37,-177.02 68.16,-197.6zm-43.57 -63.05c-203.51,84.04 -149.24,396.34 48.88,337.28 85.83,-25.59 215.33,-275.99 18.1,-341.53 -22.44,-7.45 0.79,-8.07 -34.5,-5.9 -61.23,3.76 -5.49,-1.01 -32.48,10.15z"></path>
   <path class="fil2 KnGMkPVg_22" d="M925.57 5036.23l-7.37 -64.72c163.47,-120.78 286.31,26.05 125.92,69.5 -45.25,12.25 -75.33,16.71 -118.55,-4.78zm88.95 -184.89c-51.37,13.24 -68.4,3.01 -119.34,40.58 -114.92,84.73 -52.66,263.73 120.86,238.9 78.17,-11.18 182.92,-58.05 178.74,-150.59 -3.53,-78.07 -69.24,-144.91 -148.03,-138.78 -56.29,4.37 -11.21,4.46 -32.23,9.89z"></path>
   <path class="fil2 KnGMkPVg_23" d="M1001.13 4294.19c-62.91,49.73 -235.87,50.17 -196.03,-44.93 17.06,-40.75 211.16,-84.64 196.03,44.93zm-274.47 3.35l0 -69.39c21.72,-77.33 120.1,-86.38 138.6,-91.16 85.43,-22.05 186.26,3.88 209.12,89.74 56.64,212.86 -298.97,239.98 -343.59,87.08 -1.64,-5.61 -3,-11.02 -4.13,-16.27z"></path>
   <path class="fil2 KnGMkPVg_24" d="M2508.08 6944.69c-69.43,142.25 -178.74,122.48 -139.48,19.03 59.44,-156.61 186.81,-115.98 139.48,-19.03zm-86.2 -152.91c-232.57,96.09 -136.97,396.43 43.29,320.82 79.06,-33.16 200.86,-205.93 85.19,-300.06 -49.78,-40.51 -89.52,-36.87 -128.48,-20.76z"></path>
   <path class="fil2 KnGMkPVg_25" d="M6732.88 6409.78c29.65,40.66 113.82,95.87 121.54,144.69 -50.97,51.5 -94.46,23.79 -134,-20.6 -47.21,-53.02 -33.6,-78.64 12.46,-124.09zm230.9 136.78l-224.67 -244.34c-36.49,23.55 -97.92,79.28 -120.47,123.63 -54.18,106.56 98.84,268.5 212.74,234.09 18.46,-5.56 121.96,-97.48 132.4,-113.38z"></path>
   <path class="fil2 KnGMkPVg_26" d="M7742.09 3252.07c-50.55,59.54 -257.84,56.3 -179.47,-39.56 18.38,-22.47 91.8,-43.18 117.6,-45.59 63.62,-5.96 100.13,40.07 61.87,85.15zm-85.3 -159.93c-38.55,9.98 -176.94,24.85 -181.78,138.82 -9.19,216.43 349.3,167.62 353.49,-0.15 1.18,-47.38 -9.86,-86.23 -45.9,-115.22 -24.33,-19.57 -66.84,-33.69 -94.5,-32.41 -62.69,2.87 1.06,0.59 -31.31,8.96z"></path>
   <path class="fil2 KnGMkPVg_27" d="M5716.36 7272.46c10.54,-40.41 24.54,-36.28 61.22,-40.81 20.23,23.63 22.26,26.53 21.32,58.48 -48.6,38.43 -62.66,34.27 -82.54,-17.67zm-9.19 -225.52l42.01 115.06 -65.15 17.05c-83.69,-118.46 -8.37,-96.31 -127.6,-67.42 14.24,37.74 59.92,108.6 97.78,138.6 -34.16,61.21 14.69,141.69 73.99,146.12 30.58,2.29 144.07,-53.25 180.07,-71.49l-133.7 -301.25 -67.4 23.33z"></path>
   <path class="fil2 KnGMkPVg_28" d="M2187.32 1322.29c-28.29,-141.17 138.98,-54.2 157.09,47.31 21.62,121.12 -138.05,47.72 -157.09,-47.31zm10.66 -138.6c-214.21,88.51 -9.2,375.5 137.78,319.6 187.53,-71.33 41.06,-305.97 -66.02,-328.62 -53.6,-11.35 -71.53,8.93 -71.76,9.02z"></path>
   <path class="fil3 KnGMkPVg_29" d="M3895.02 513.82l18.27 113.52c-39.12,14.08 -34.06,20.01 -77.05,5.59 -6.79,-20.33 -14.66,-81.77 -19.51,-108.44 -106.84,1.57 -75.52,12.12 -26.28,338.75 43.8,0.68 37.05,3.54 79.6,-11.9l-20.8 -126.95c20.72,-11.29 53.9,-14.88 74.1,-18.66 16.65,162.89 29.66,140.61 95.74,123.54 7.07,-88.61 -40.61,-222.72 -40.61,-327.93 -31.81,-0.06 -60.14,-1.54 -83.46,12.48z"></path>
   <path class="fil2 KnGMkPVg_30" d="M2752.39 970.45c101.54,-8.81 57.97,-36.97 70.97,-78.28l52.62 -19.81 23.54 37.95 -53.51 46.78 19.11 57.59c43.71,-11.07 36.31,-21.41 76.43,-20.16l26.31 40.03c-25.31,32.63 -28.89,33.02 -67.12,43.43l-47.66 -42.87 -57.92 31.54c27.29,99.95 124.24,105.53 199.62,50.24 33.02,-24.22 59.62,-56.65 52.77,-99.39 -10.87,-67.63 -33.63,-75.35 -91.68,-81.78 94.58,-177.54 -261.93,-207.88 -203.48,34.73z"></path>
   <path class="fil1 KnGMkPVg_31" d="M4415.63 7346.18l3.17 67.89c42.11,12.52 107.06,14.34 143.34,-3l3.14 63.05c-52.93,0 -74.31,9.75 -117.67,10.67l0 63.97 127.94 0 0 53.3 -142.36 1.93 5.84 70.85 24.31 1.86 159.35 0c11.49,-1.67 22.05,-3.97 31.15,-7 5.39,-16.19 -2.47,-302.59 -10.67,-327.17 -25.85,-8.63 -176.46,3.65 -227.54,3.65z"></path>
   <path class="fil2 KnGMkPVg_32" d="M1440.99 6088.1c-48.47,-4.26 -49.2,-12.49 -42.87,-53.09 6.64,-42.51 -1.48,-38.12 -30.85,-75.77 -101.95,67.47 -30.54,204.19 53.74,210.89 42.28,3.35 101.44,-33.96 112.33,-75.82 16.25,-62.45 -42.81,-99.74 -4.32,-152.74 54.21,-1.13 53.18,22.28 41.89,62.4 -7.67,27.29 -22.7,-7.14 -2.79,41.21 7.22,17.51 26.66,35.97 33.71,43.84 139.37,-105.75 -2.54,-222.48 -37.72,-231.92 -40.94,-10.98 -112.38,23.69 -128.89,65.82 -29.15,74.37 36.1,99.6 5.77,165.18z"></path>
   <path class="fil2 KnGMkPVg_33" d="M3223.33 7514.95l70.23 14.51 32.51 -107.37c34.47,0.62 49.92,5.83 74.85,23.71l-34.36 102.82 68.97 33.35 102.39 -317.92c-20.98,-17.61 -39.76,-21.48 -72.11,-25.4l-42.5 127.35 -72.08 -21.52 38.8 -128.31 -72.47 -23.81c-22.43,42.74 -96.64,280 -94.23,322.59z"></path>
   <path class="fil2 KnGMkPVg_34" d="M1142.47 3060.16c21.24,88.47 -16.14,57.7 -64.89,84.38l-12.32 64.39c122.54,55.79 203.25,-116.62 139.22,-189.4 -34.83,-39.59 -102.31,-57.28 -143.67,-30.89 -49.59,31.65 -41.35,87.74 -99.59,103.5 -33.77,-70.93 -0.49,-54.35 16.75,-67.97 13.92,-11.02 13.94,24.39 36.55,-70.62 -144.61,-34.85 -180.17,133.48 -115.32,189.94 38.36,33.41 96.62,40.91 133.89,10.38 53.54,-43.88 25.7,-92.1 109.38,-93.71z"></path>
   <path class="fil2 KnGMkPVg_35" d="M5244.5 7466.2c0.79,49.78 -15.79,45.3 -52.92,33.31 -35.28,-11.4 20.76,-10.34 -39.54,-12.91 -21.15,-0.9 -19.91,3.19 -43.4,8.85 11.63,129.09 185.51,99.83 217.36,13.78 15.05,-40.67 -13.02,-106.96 -51.81,-126.03 -72.96,-35.9 -114.55,20.87 -133.57,-58.34 12.8,-11.34 20.89,-25.2 50.54,-19.24 23.85,4.8 32.5,26.09 45.42,42.4l63.53 -15.24c-2.6,-140.62 -179.07,-120.31 -220.18,-57.94 -27,40.93 -21.95,116.96 14.46,149.55 46.18,41.31 108.57,11.64 150.11,41.81z"></path>
   <path class="fil2 KnGMkPVg_36" d="M1907.72 6373.55c16.07,50.11 68.22,75.85 96.52,116.04l-39.8 38.58 -95.67 -91.39c-23.36,30.74 -33.13,28.51 -44.87,57.38l84.4 88.02 -41.06 29.86c-37.35,-28.7 -67.94,-64.22 -95.73,-99.3l-56.65 53.63c31.22,39.98 121.9,138.62 164.18,151.69l225.5 -222.3c-28.38,-54.01 -105.9,-128.83 -151.79,-164.27l-45.03 42.06z"></path>
   <path class="fil1 KnGMkPVg_37" d="M7592.82 4222.3c0,51.55 -22.36,64.9 -3.66,120.92l67.55 8.28c0.19,-75.99 14.92,-81.31 10.74,-150.54l53.31 0 0 127.94 74.63 0 0.65 -126.14 50.62 11.53 2.04 135.95 74.64 0 0 -223.9c-156.3,0 -178.57,5.74 -330.15,-13.46l-0.37 109.42z"></path>
   <path class="fil2 KnGMkPVg_38" d="M7838.05 4456.85c0.02,13.02 1.53,28.18 -2.07,40.59 -12.86,44.46 -32.32,5.22 -40.59,98.01 66.37,0.13 102.26,-3.65 117.62,-75.06 9.78,-45.46 5.99,-102.73 -41.06,-129.72 -143.04,-82.04 -142.26,110.43 -215.16,130.15 -75.24,-114.17 42.65,-21.55 42.65,-159.93 -64.29,0 -103.31,-1.35 -127.59,64.46 -60.53,164.06 117,213.07 175.16,143.04 44.82,-53.96 18.93,-105.05 91.04,-111.54z"></path>
   <path class="fil2 KnGMkPVg_39" d="M1230.5 2822.86c25.53,65.89 -27.29,59.48 -70.37,73.72l-20.42 66.86c64.55,15.64 93.93,22.5 139.01,-33.57 101.72,-126.48 -43.96,-237.9 -123.96,-188.51 -42.23,26.05 -53.91,95.59 -111.9,77.23 -23.21,-73.28 86.13,-43.08 59.7,-123.67 -115.45,-45.69 -185.04,126.29 -113.17,187.81 134.59,115.19 154.16,-94.21 241.11,-59.87z"></path>
   <path class="fil2 KnGMkPVg_40" d="M4779.94 851.34l70.23 14.51 27.58 -139.54 70.7 11.86 -18.86 133.5c24.25,17.31 56.62,19.27 76.08,17.15l53.31 -327.17 -70.85 -13.43 -21.82 122.64 -70.65 -11.87 12.09 -123.44 -65.15 -15.01 -23.69 74.87c-10.21,65.11 -42.13,214.65 -38.97,255.93z"></path>
   <path class="fil2 KnGMkPVg_41" d="M4999.27 7546.01c-45.76,33.26 -48.76,5.94 -68.47,-0.32 -50.69,-16.12 -25.62,-1.6 -78.05,3.07 23.87,51.57 27.63,83.2 95.75,86.71 162.91,8.41 149.85,-153.72 84.29,-192.12 -48.24,-28.27 -102.28,5.1 -134.65,-46.6 7.34,-42.16 31.32,-53.35 67.63,-26.04 15.96,12 19.06,56.24 89.55,7.46 -12.53,-144.33 -201.05,-99.99 -228.05,-35.99 -19.86,47.06 -9.42,116.45 33.9,144.86 62.46,40.98 125.6,-12.88 138.1,58.97z"></path>
   <path class="fil2 KnGMkPVg_42" d="M3541.35 895.82l19.11 23.16 213.42 -47.3 -11.36 -71.38c-102.24,1.22 -161.78,77.64 -155.37,-30.6l117.38 -28.49 -14.82 -67.36 -123.55 26.62 -12.29 -58.42c28.21,-2.4 51.79,-6.46 75.82,-11.06 77.65,-14.85 65.22,-22.23 49.01,-84.96l-210.26 42.43c-0.58,101.19 52.83,210.39 52.91,307.36z"></path>
   <path class="fil2 KnGMkPVg_43" d="M7593.75 2559.98c-6.55,-12.68 -10.04,-20.64 -19.92,-35.24 -10.63,-15.68 -17.18,-22.33 -24.57,-30.57 -53.56,40.19 -183.36,124.82 -247.04,99.62 -25.2,-62.4 35.97,-76.6 84.48,-102.26 31.38,-16.59 105.92,-55.76 130.11,-74.77l-30.99 -58.54c-52.21,9.31 -132.77,55.39 -187.29,87.79 -75.76,45.03 -108.53,82.74 -68.84,166.69 41.09,86.95 97.8,91.74 178.61,49.7 62.1,-32.31 132.7,-62.19 185.45,-102.42z"></path>
   <path class="fil2 KnGMkPVg_44" d="M3028.77 7162.22l130.74 52.57 -23.94 56.44 -112.4 -43.51 -26.35 54.93 105.42 53.99 -9.59 50.61 -133.24 -52.99 -28.67 65.4 194.14 85.47c11.96,-13.19 9.54,-8.85 22.37,-32.01l48.36 -111.51c20.14,-48.09 41.82,-107.29 69.46,-154.44 -29.11,-25.81 -62.09,-34.05 -101.51,-49.59 -34.25,-13.5 -75.01,-38.16 -112.64,-47.28l-22.15 71.92z"></path>
   <path class="fil2 KnGMkPVg_45" d="M7113.05 6237.36l-1.12 39.97c-43.7,30.51 -75.28,-5.64 -94.84,66.65 6.64,5.85 1.99,6.36 24.76,18.77 88.46,48.12 186.03,-82.01 142.52,-153.26 -26.28,-43.03 -73.9,-77.24 -122.9,-56.74 -65.16,27.26 -60.13,77.16 -129.68,31.31l16.71 -46.71c53.52,-17.1 27.45,2.73 76.51,1.32l36.09 -56.04c-110.42,-86.51 -228.01,35.4 -200.23,128.8 14.32,48.13 70.16,87.6 121.28,77.66 61.95,-12.03 60.67,-67.23 130.9,-51.73z"></path>
   <path class="fil2 KnGMkPVg_46" d="M822.1 3260.23c51.68,9.64 107.49,26.93 156.27,38.65 41.97,10.08 141.63,26.16 85.81,88.14 -53.74,51.65 -294.71,-115.18 -273.55,14.31 4.52,27.72 -2.66,19.3 87.35,40.6 35.34,8.36 66.92,17.56 101.99,26.01 84.18,20.29 143.77,16.03 167.37,-72.72 22.65,-85.21 -7.95,-134.74 -85.9,-158.09 -42.65,-12.78 -178.77,-49.72 -215.68,-46.29l-23.66 69.39z"></path>
   <path class="fil2 KnGMkPVg_47" d="M5409.9 7514.03l70.12 -20.26c-23.13,-141.03 -104.57,-195.08 -51.53,-275.53 93.17,0 92.03,170.45 137.69,246.14l63.44 -21.44c2.53,-43.15 -45.13,-161.22 -60.78,-205.12 -60.76,-170.38 -285.28,-97.3 -229.77,80.22 12.16,38.91 51.35,169.27 70.83,195.99z"></path>
   <path class="fil2 KnGMkPVg_48" d="M6362.54 6650.56l44.44 47.64c50.51,-16.19 59.98,-57.95 116.01,-85.84l38.88 39.47 -93.02 83.54 39.25 55.19 100.18 -82.26 38.41 39.93 -110.69 97.44 47.15 51.34 165.76 -139.14c-28.88,-44.72 -182.18,-227.45 -222.26,-253.96l-164.11 146.65z"></path>
   <path class="fil2 KnGMkPVg_49" d="M6987.84 6010.73l49.94 37.46 77.45 -117.62c26.71,4.55 30.22,11.58 52.95,29.59l-63.03 103.55c24.18,24.59 24.81,27.99 58.46,32.31l64.76 -96.27 42.87 25.41c-7.34,41.03 -51.15,83.23 -71.08,123.26l60.89 40.09 120 -184.44c-2.55,-2.12 -5.9,-7.18 -6.89,-5.21 -1,1.95 -4.99,-3.85 -6.37,-4.8l-122.41 -80.95c-48.05,-31.44 -94.91,-57.07 -142.09,-92.47 -30.39,35.43 -111.19,156.96 -115.45,190.09z"></path>
   <path class="fil2 KnGMkPVg_50" d="M1088.24 5650.05l29.52 68.37c45.94,-27.46 226.19,-138.01 259.57,-88.78 45.36,66.89 -169.53,130.04 -210.8,162.67 -1.06,33.94 11.95,50.6 29.24,73.72 105.93,-64.28 323.47,-114.51 251.37,-263.78 -40.09,-83.06 -102.95,-84.84 -177.15,-47.56 -58.81,29.55 -132.39,57.29 -181.75,95.36z"></path>
   <path class="fil2 KnGMkPVg_51" d="M7421.32 5150.78l65.68 21.76 41.82 -138.65 62.93 12.81c-15.17,31.22 -31.59,86.47 -28.17,121.74 28.12,20.43 21.72,8.4 50.57,25.9l44.94 -128.99 50.55 12.31c-16.96,69.91 -76.16,165.3 29.7,154.76 18.54,-25.72 55.27,-163.02 56.05,-199.84l-309.18 -95.95c-20.58,31 -26.6,66.51 -36.61,101.98 -10.68,37.81 -23.49,72.46 -28.28,112.17z"></path>
   <path class="fil2 KnGMkPVg_52" d="M2166 1471.55c-97.67,64.63 -24.02,55.15 -49.66,131.6 -63.45,19.89 -68.48,2.67 -108.08,-37.83 -39.36,-40.23 -57.08,-57.33 -37.84,-118.74 46.78,-15.69 41.2,-10.94 74.64,12.48l48.45 -49.37c-92,-138.33 -326.29,30.4 -149.03,208.75 54.88,55.23 118.87,112.25 197.52,53.05 83.86,-63.13 77.84,-117.6 24,-199.94z"></path>
   <path class="fil2 KnGMkPVg_53" d="M5345.93 781.29l-57.92 -8 18.07 -71.55 56.84 13.86c5.05,69.59 -0.98,32.64 -16.99,65.69zm-181.24 143.78l61.95 23.55c17.61,-27.06 30.41,-65.96 31.26,-106.11 89.47,21.56 188.76,42.91 193.13,-96.15 1.97,-62.85 -11.7,-81.09 -69.08,-102.53 -27.49,-10.27 -105.54,-33.27 -134.72,-35.88 -15.93,66.53 -83.99,267.32 -82.54,317.12z"></path>
   <path class="fil2 KnGMkPVg_54" d="M5950.91 1109.06c-13,-11.44 -3.88,-4.62 -24.97,-17.78 -7.97,-4.97 -19.09,-10.43 -28.34,-16.04 -39.83,30.76 -30.65,46.36 -88.95,26.81 -29.08,-87.13 46.63,-218.26 110.02,-174.55 33.25,22.92 13.24,37.67 12.75,73.11l71.18 27.42c48.98,-200.82 -161.79,-264.3 -261.8,-65.12 -38.27,76.2 -50.43,147.01 28.04,200.3 70.59,47.94 159.39,29.63 182.07,-54.15z"></path>
   <path class="fil2 KnGMkPVg_55" d="M6196.13 1247.66l-62.99 -36.12c-33.02,26.84 -54.14,60.82 -86.39,15 -32.94,-46.82 37.69,-166.92 86.69,-170.62 69.3,-5.21 43.61,47.06 43.19,83.29l71.19 27.43c51.74,-209.48 -155.68,-258.19 -257.92,-82.57 -116.79,200.61 99.19,325.38 206.23,163.59z"></path>
   <path class="fil1 KnGMkPVg_56" d="M726.66 4083.69c117.57,0 216.35,10.66 330.52,10.66l0 -74.63c-49.87,-12.02 -64.15,-8.52 -115.47,-12.49l-1.97 -104.79 -74.48 0 0 106.61 -63.97 0c0,-39.28 10.52,-104.39 3.65,-131.59 -46.99,-15.69 -68.9,-0.77 -78.28,28.76l0 177.47z"></path>
   <path class="fil2 KnGMkPVg_57" d="M7515.28 4787.76c32.86,19.14 78.64,30.71 120.19,31.59l-22.37 102.97 73.13 25.65 23.86 -105.91 63.12 11.83 -32.97 122.64c88.99,23.58 72.2,26.47 95.85,-73.83 8.35,-35.41 20.13,-79.92 23.28,-115.33 -95.22,-0.09 -248.5,-70.27 -328.69,-61.23l-15.4 61.62z"></path>
   <path class="fil0 KnGMkPVg_58" d="M3498.72 5171.19c16.38,-36.91 -4.58,-57.65 -19.67,-97.56 -14.49,-38.26 -22.43,-58.95 -40.73,-97.94 -73.84,-157.42 -181.56,-585.13 -238.14,-625.45 -29.25,63.9 22.82,148 44.08,211.79 26.24,78.77 33.88,152.13 61.11,226.76 56.92,155.98 64.46,162.52 129.51,296.96 25.23,52.13 14.69,79.94 63.84,85.44z"></path>
   <path class="fil3 KnGMkPVg_59" d="M3580.09 7526.71l-79.3 -9.7 -14.1 74.12 235.76 43.78 11.02 -65.89c-27.92,-17.12 -36.8,-19.45 -74.83,-20.26 1.74,-82.36 42.57,-177.52 42.64,-266.55l-72.71 -8.54 -48.48 253.04z"></path>
   <path class="fil0 KnGMkPVg_60" d="M2421.88 3582.59c-49.29,-19.07 -74.37,82.72 -127.72,117.05 -36.59,-8.35 -197.15,-108.31 -243.54,-140.32 -36.89,-25.45 -47.48,-53.22 -79.77,-43.94 -8.65,30.1 9.06,39.5 37.5,64.78l209.57 173.94c38.72,-16.6 9.48,7.32 29.9,-31.29 37.91,38.83 40.9,29.55 87.84,21.09 23.13,68.23 91.55,94.48 160.84,94.57 -6.42,-73.15 -39.66,-28.07 -127.94,-106.62 5.92,-66.39 39.32,-91.51 53.32,-149.26z"></path>
   <path class="fil2 KnGMkPVg_61" d="M7025 2235.16c11.21,34.95 82.95,143.96 109.37,165.8l51.1 -35.78c-5.86,-33.82 -40.94,-72.81 -61.77,-104.66l217.55 -145.56 -43.57 -59.75 -272.68 179.95z"></path>
   <path class="fil1 KnGMkPVg_62" d="M1587.52 1905.95l-103.34 -30.86c10.41,42.09 39.23,50.8 53.68,98.48 -22.26,38.3 -43.83,52.16 -54.22,95.04l103.56 -39.24c23.5,28.67 40.71,71.72 77.68,81.89l0.32 -104.79 94.39 -27.65c-9.34,-24.61 4.99,-12.05 -39.46,-29.42 -30.21,-11.8 -25.28,-2.27 -52.5,-22.13l-3 -103.88c-42.76,13.65 -41.58,47.13 -77.11,82.56z"></path>
   <path class="fil4 KnGMkPVg_63" d="M4014.54 7495.62l-92.11 59.45c41.47,22.2 64.14,13.47 107.54,16.83l26.95 103.89c44.78,-18.92 21.31,-87.65 70.84,-95.05l82.94 5.5c-6.56,-34.63 -44.52,-56.68 -74.12,-80.13l46.92 -105.55c-46.74,11.05 -58.07,39.02 -109.97,53.16 -35.29,-26.78 -43.84,-53.92 -84.38,-64.89l25.39 106.79z"></path>
   <path class="fil1 KnGMkPVg_64" d="M6886.41 1809.99l-102.19 39.55 102.39 41.8 2.69 102.65c40.94,-15.13 25.5,-25.32 74.48,-87.13l105.33 37.76 -63.64 -88.3 55.52 -96.1 -104.63 28.05 -63.66 -85.01c-10.34,14.15 -8.84,4.86 -11.1,25.69 -4.11,37.73 10.3,34.07 4.81,81.04z"></path>
   <path class="fil5 KnGMkPVg_65" d="M3584.01 2473.77c0.26,0.63 -3.96,30.04 53.55,31.5 29.88,0.76 35.9,-8.53 74.09,-10.54 96.53,-5.06 393.63,34.86 488,45.74 34.06,47.08 -9.58,21.38 34.72,39.91 44.75,-0.95 31.88,9.23 53.31,-21.32 -11.22,-26.5 -0.2,-6.65 -20.99,-21.66 -2.42,-1.75 -10.8,-6.15 -13.4,-7.94 -14.71,-10.13 -5.61,-7.01 -17.98,-13.99 -27.31,-15.41 -232.13,-42.03 -267.23,-41.97 -64.11,0.12 -349.24,-31.66 -384.07,0.27z"></path>
   <path class="fil1 KnGMkPVg_66" d="M4694.65 7326.69l42.74 306.16c11.15,43.88 23.14,25.11 81.55,20.71 2.55,-33.27 -36.63,-298.46 -47.82,-332.35 -16.66,-1.33 -48.71,3.32 -76.47,5.48z"></path>
   <path class="fil2 KnGMkPVg_67" d="M909.73 5228.15l21.59 58.39c43.16,2.55 281.6,-81.41 318.67,-103.78l-21.45 -63.45c-41.23,0.34 -281.16,80.83 -318.81,108.84z"></path>
   <path class="fil2 KnGMkPVg_68" d="M7424.38 3030.85l17.37 70.66c39.07,-0.36 290.14,-95.2 323.48,-115.98l-30.9 -65.76 -309.95 111.08z"></path>
   <path class="fil4 KnGMkPVg_69" d="M3615.99 3188.1c-46.94,21.46 -34.35,-5.92 -65.8,31.98 32.81,39.68 60.51,32.16 148.85,19.08 38.94,-5.77 116.77,-19.53 141.76,-50.14 -37.28,-33.31 -48.47,-25.33 -99.64,-14.55 -37.07,7.82 -68.35,15.74 -103.85,24.29 32.36,-48.91 73.53,-70.34 74.64,-127.94 -34.52,4.91 -39.12,19.37 -66.98,50.45 -12.67,14.11 -13.96,11.84 -21.6,31.53l-7.38 35.3z"></path>
   <path class="fil0 KnGMkPVg_70" d="M3658.64 3028.17c32.67,22.6 266.72,85.39 319.84,85.3 -16.14,-58.72 -106.58,-43.69 -166.41,-78.81 -25.81,-15.15 -130.66,-90.18 -153.43,-6.49z"></path>
   <path class="fil1 KnGMkPVg_71" d="M1440.08 6257.77l51.73 66.89c53,-35.42 54.78,-38.2 46.97,-85.47 49.04,0.68 38.2,24.93 73.72,-22.23 -75.87,-68.01 -87.03,-25.79 -172.42,40.81z"></path>
   <path class="fil0 KnGMkPVg_72" d="M7335.11 2269.36c-53.14,-0.66 -39.97,-42.83 -84.37,11.58 1.97,1.77 5.02,1.9 5.95,5.32 0.93,3.41 4.65,4.23 5.95,5.27l52.97 34.79 105.3 -55.21c0.15,-36.93 -5.57,-47.33 -33.4,-71.81 -56.13,9.87 -60.7,19.89 -52.4,70.06z"></path>
   <path class="fil5 KnGMkPVg_73" d="M4987.7 6177.05c43.93,4.37 76.06,-44.1 76.46,-87.12 -40.42,0.86 -87.43,43.96 -76.46,87.12z"></path>
   <path class="fil6 KnGMkPVg_74" d="M3349.44 3294.72l-10.65 10.65c21.47,42.77 7.03,38.59 53.3,42.65 -0.87,-45.05 5.7,-39.23 -31.98,-63.97l-10.67 10.67z"></path>
   <path class="fil5 KnGMkPVg_75" d="M4916.72 6226.71l-10.66 10.65 5.24 33.86c37.76,-10.94 38.95,-14.61 58.73,-44.51 -36.44,-16.78 -16.86,-16.78 -53.31,0z"></path>
   <path class="fil6 KnGMkPVg_76" d="M2016.72 3870.46c-11.96,-44.24 -18.95,-41.79 -63.97,-42.66 5.76,51.5 -11.28,18.91 18.58,34.74 12.82,6.8 31.65,6.69 45.39,7.92z"></path>
   <path class="fil6 KnGMkPVg_77" d="M5089.14 6054.29c36.27,-0.38 48.18,-7.26 44.47,-44.48 -40.51,-13.8 -47.43,5.47 -44.47,44.48z"></path>
  </g>
 </g>
<style data-made-with="vivus-instant">.KnGMkPVg_0{stroke-dasharray:103449 103451;stroke-dashoffset:103450;animation:KnGMkPVg_draw 6000ms ease 0ms forwards;}.KnGMkPVg_1{stroke-dasharray:2660 2662;stroke-dashoffset:2661;animation:KnGMkPVg_draw 6000ms ease 0ms forwards;}.KnGMkPVg_2{stroke-dasharray:3783 3785;stroke-dashoffset:3784;animation:KnGMkPVg_draw 6000ms ease 0ms forwards;}.KnGMkPVg_3{stroke-dasharray:2276 2278;stroke-dashoffset:2277;animation:KnGMkPVg_draw 6000ms ease 0ms forwards;}.KnGMkPVg_4{stroke-dasharray:2099 2101;stroke-dashoffset:2100;animation:KnGMkPVg_draw 6000ms ease 0ms forwards;}.KnGMkPVg_5{stroke-dasharray:2256 2258;stroke-dashoffset:2257;animation:KnGMkPVg_draw 6000ms ease 0ms forwards;}.KnGMkPVg_6{stroke-dasharray:2085 2087;stroke-dashoffset:2086;animation:KnGMkPVg_draw 6000ms ease 0ms forwards;}.KnGMkPVg_7{stroke-dasharray:2122 2124;stroke-dashoffset:2123;animation:KnGMkPVg_draw 6000ms ease 0ms forwards;}.KnGMkPVg_8{stroke-dasharray:2208 2210;stroke-dashoffset:2209;animation:KnGMkPVg_draw 6000ms ease 0ms forwards;}.KnGMkPVg_9{stroke-dasharray:2259 2261;stroke-dashoffset:2260;animation:KnGMkPVg_draw 6000ms ease 0ms forwards;}.KnGMkPVg_10{stroke-dasharray:2166 2168;stroke-dashoffset:2167;animation:KnGMkPVg_draw 6000ms ease 0ms forwards;}.KnGMkPVg_11{stroke-dasharray:1710 1712;stroke-dashoffset:1711;animation:KnGMkPVg_draw 6000ms ease 0ms forwards;}.KnGMkPVg_12{stroke-dasharray:1722 1724;stroke-dashoffset:1723;animation:KnGMkPVg_draw 6000ms ease 0ms forwards;}.KnGMkPVg_13{stroke-dasharray:1675 1677;stroke-dashoffset:1676;animation:KnGMkPVg_draw 6000ms ease 0ms forwards;}.KnGMkPVg_14{stroke-dasharray:1674 1676;stroke-dashoffset:1675;animation:KnGMkPVg_draw 6000ms ease 0ms forwards;}.KnGMkPVg_15{stroke-dasharray:1696 1698;stroke-dashoffset:1697;animation:KnGMkPVg_draw 6000ms ease 0ms forwards;}.KnGMkPVg_16{stroke-dasharray:1719 1721;stroke-dashoffset:1720;animation:KnGMkPVg_draw 6000ms ease 0ms forwards;}.KnGMkPVg_17{stroke-dasharray:1700 1702;stroke-dashoffset:1701;animation:KnGMkPVg_draw 6000ms ease 0ms forwards;}.KnGMkPVg_18{stroke-dasharray:1705 1707;stroke-dashoffset:1706;animation:KnGMkPVg_draw 6000ms ease 0ms forwards;}.KnGMkPVg_19{stroke-dasharray:1556 1558;stroke-dashoffset:1557;animation:KnGMkPVg_draw 6000ms ease 0ms forwards;}.KnGMkPVg_20{stroke-dasharray:1608 1610;stroke-dashoffset:1609;animation:KnGMkPVg_draw 6000ms ease 0ms forwards;}.KnGMkPVg_21{stroke-dasharray:1566 1568;stroke-dashoffset:1567;animation:KnGMkPVg_draw 6000ms ease 0ms forwards;}.KnGMkPVg_22{stroke-dasharray:1564 1566;stroke-dashoffset:1565;animation:KnGMkPVg_draw 6000ms ease 0ms forwards;}.KnGMkPVg_23{stroke-dasharray:1549 1551;stroke-dashoffset:1550;animation:KnGMkPVg_draw 6000ms ease 0ms forwards;}.KnGMkPVg_24{stroke-dasharray:1554 1556;stroke-dashoffset:1555;animation:KnGMkPVg_draw 6000ms ease 0ms forwards;}.KnGMkPVg_25{stroke-dasharray:1555 1557;stroke-dashoffset:1556;animation:KnGMkPVg_draw 6000ms ease 0ms forwards;}.KnGMkPVg_26{stroke-dasharray:1581 1583;stroke-dashoffset:1582;animation:KnGMkPVg_draw 6000ms ease 0ms forwards;}.KnGMkPVg_27{stroke-dasharray:1592 1594;stroke-dashoffset:1593;animation:KnGMkPVg_draw 6000ms ease 0ms forwards;}.KnGMkPVg_28{stroke-dasharray:1560 1562;stroke-dashoffset:1561;animation:KnGMkPVg_draw 6000ms ease 0ms forwards;}.KnGMkPVg_29{stroke-dasharray:1611 1613;stroke-dashoffset:1612;animation:KnGMkPVg_draw 6000ms ease 0ms forwards;}.KnGMkPVg_30{stroke-dasharray:1665 1667;stroke-dashoffset:1666;animation:KnGMkPVg_draw 6000ms ease 0ms forwards;}.KnGMkPVg_31{stroke-dasharray:1626 1628;stroke-dashoffset:1627;animation:KnGMkPVg_draw 6000ms ease 0ms forwards;}.KnGMkPVg_32{stroke-dasharray:1579 1581;stroke-dashoffset:1580;animation:KnGMkPVg_draw 6000ms ease 0ms forwards;}.KnGMkPVg_33{stroke-dasharray:1618 1620;stroke-dashoffset:1619;animation:KnGMkPVg_draw 6000ms ease 0ms forwards;}.KnGMkPVg_34{stroke-dasharray:1598 1600;stroke-dashoffset:1599;animation:KnGMkPVg_draw 6000ms ease 0ms forwards;}.KnGMkPVg_35{stroke-dasharray:1587 1589;stroke-dashoffset:1588;animation:KnGMkPVg_draw 6000ms ease 0ms forwards;}.KnGMkPVg_36{stroke-dasharray:1631 1633;stroke-dashoffset:1632;animation:KnGMkPVg_draw 6000ms ease 0ms forwards;}.KnGMkPVg_37{stroke-dasharray:1651 1653;stroke-dashoffset:1652;animation:KnGMkPVg_draw 6000ms ease 0ms forwards;}.KnGMkPVg_38{stroke-dasharray:1578 1580;stroke-dashoffset:1579;animation:KnGMkPVg_draw 6000ms ease 0ms forwards;}.KnGMkPVg_39{stroke-dasharray:1558 1560;stroke-dashoffset:1559;animation:KnGMkPVg_draw 6000ms ease 0ms forwards;}.KnGMkPVg_40{stroke-dasharray:1629 1631;stroke-dashoffset:1630;animation:KnGMkPVg_draw 6000ms ease 0ms forwards;}.KnGMkPVg_41{stroke-dasharray:1570 1572;stroke-dashoffset:1571;animation:KnGMkPVg_draw 6000ms ease 0ms forwards;}.KnGMkPVg_42{stroke-dasharray:1636 1638;stroke-dashoffset:1637;animation:KnGMkPVg_draw 6000ms ease 0ms forwards;}.KnGMkPVg_43{stroke-dasharray:1567 1569;stroke-dashoffset:1568;animation:KnGMkPVg_draw 6000ms ease 0ms forwards;}.KnGMkPVg_44{stroke-dasharray:1623 1625;stroke-dashoffset:1624;animation:KnGMkPVg_draw 6000ms ease 0ms forwards;}.KnGMkPVg_45{stroke-dasharray:1573 1575;stroke-dashoffset:1574;animation:KnGMkPVg_draw 6000ms ease 0ms forwards;}.KnGMkPVg_46{stroke-dasharray:1564 1566;stroke-dashoffset:1565;animation:KnGMkPVg_draw 6000ms ease 0ms forwards;}.KnGMkPVg_47{stroke-dasharray:1563 1565;stroke-dashoffset:1564;animation:KnGMkPVg_draw 6000ms ease 0ms forwards;}.KnGMkPVg_48{stroke-dasharray:1636 1638;stroke-dashoffset:1637;animation:KnGMkPVg_draw 6000ms ease 0ms forwards;}.KnGMkPVg_49{stroke-dasharray:1616 1618;stroke-dashoffset:1617;animation:KnGMkPVg_draw 6000ms ease 0ms forwards;}.KnGMkPVg_50{stroke-dasharray:1560 1562;stroke-dashoffset:1561;animation:KnGMkPVg_draw 6000ms ease 0ms forwards;}.KnGMkPVg_51{stroke-dasharray:1614 1616;stroke-dashoffset:1615;animation:KnGMkPVg_draw 6000ms ease 0ms forwards;}.KnGMkPVg_52{stroke-dasharray:1487 1489;stroke-dashoffset:1488;animation:KnGMkPVg_draw 6000ms ease 0ms forwards;}.KnGMkPVg_53{stroke-dasharray:1314 1316;stroke-dashoffset:1315;animation:KnGMkPVg_draw 6000ms ease 0ms forwards;}.KnGMkPVg_54{stroke-dasharray:1486 1488;stroke-dashoffset:1487;animation:KnGMkPVg_draw 6000ms ease 0ms forwards;}.KnGMkPVg_55{stroke-dasharray:1497 1499;stroke-dashoffset:1498;animation:KnGMkPVg_draw 6000ms ease 0ms forwards;}.KnGMkPVg_56{stroke-dasharray:1277 1279;stroke-dashoffset:1278;animation:KnGMkPVg_draw 6000ms ease 0ms forwards;}.KnGMkPVg_57{stroke-dasharray:1288 1290;stroke-dashoffset:1289;animation:KnGMkPVg_draw 6000ms ease 0ms forwards;}.KnGMkPVg_58{stroke-dasharray:1778 1780;stroke-dashoffset:1779;animation:KnGMkPVg_draw 6000ms ease 0ms forwards;}.KnGMkPVg_59{stroke-dasharray:1143 1145;stroke-dashoffset:1144;animation:KnGMkPVg_draw 6000ms ease 0ms forwards;}.KnGMkPVg_60{stroke-dasharray:1596 1598;stroke-dashoffset:1597;animation:KnGMkPVg_draw 6000ms ease 0ms forwards;}.KnGMkPVg_61{stroke-dasharray:1047 1049;stroke-dashoffset:1048;animation:KnGMkPVg_draw 6000ms ease 0ms forwards;}.KnGMkPVg_62{stroke-dasharray:1091 1093;stroke-dashoffset:1092;animation:KnGMkPVg_draw 6000ms ease 0ms forwards;}.KnGMkPVg_63{stroke-dasharray:1104 1106;stroke-dashoffset:1105;animation:KnGMkPVg_draw 6000ms ease 0ms forwards;}.KnGMkPVg_64{stroke-dasharray:1098 1100;stroke-dashoffset:1099;animation:KnGMkPVg_draw 6000ms ease 0ms forwards;}.KnGMkPVg_65{stroke-dasharray:1487 1489;stroke-dashoffset:1488;animation:KnGMkPVg_draw 6000ms ease 0ms forwards;}.KnGMkPVg_66{stroke-dasharray:822 824;stroke-dashoffset:823;animation:KnGMkPVg_draw 6000ms ease 0ms forwards;}.KnGMkPVg_67{stroke-dasharray:804 806;stroke-dashoffset:805;animation:KnGMkPVg_draw 6000ms ease 0ms forwards;}.KnGMkPVg_68{stroke-dasharray:820 822;stroke-dashoffset:821;animation:KnGMkPVg_draw 6000ms ease 0ms forwards;}.KnGMkPVg_69{stroke-dasharray:916 918;stroke-dashoffset:917;animation:KnGMkPVg_draw 6000ms ease 0ms forwards;}.KnGMkPVg_70{stroke-dasharray:708 710;stroke-dashoffset:709;animation:KnGMkPVg_draw 6000ms ease 0ms forwards;}.KnGMkPVg_71{stroke-dasharray:489 491;stroke-dashoffset:490;animation:KnGMkPVg_draw 6000ms ease 0ms forwards;}.KnGMkPVg_72{stroke-dasharray:488 490;stroke-dashoffset:489;animation:KnGMkPVg_draw 6000ms ease 0ms forwards;}.KnGMkPVg_73{stroke-dasharray:260 262;stroke-dashoffset:261;animation:KnGMkPVg_draw 6000ms ease 0ms forwards;}.KnGMkPVg_74{stroke-dasharray:187 189;stroke-dashoffset:188;animation:KnGMkPVg_draw 6000ms ease 0ms forwards;}.KnGMkPVg_75{stroke-dasharray:186 188;stroke-dashoffset:187;animation:KnGMkPVg_draw 6000ms ease 0ms forwards;}.KnGMkPVg_76{stroke-dasharray:186 188;stroke-dashoffset:187;animation:KnGMkPVg_draw 6000ms ease 0ms forwards;}.KnGMkPVg_77{stroke-dasharray:162 164;stroke-dashoffset:163;animation:KnGMkPVg_draw 6000ms ease 0ms forwards;}@keyframes KnGMkPVg_draw{100%{stroke-dashoffset:0;}}@keyframes KnGMkPVg_fade{0%{stroke-opacity:1;}99.86799647990613%{stroke-opacity:1;}100%{stroke-opacity:0;}}</style></svg>
