<!--?xml version="1.0" encoding="UTF-8"?-->

<!-- Creator: CorelDRAW 2018 (64-Bit) -->
<svg xmlns="http://www.w3.org/2000/svg" xml:space="preserve" width="84.6666mm" height="84.6666mm" version="1.1" style="shape-rendering: geometricprecision; text-rendering: geometricprecision; fill-rule: evenodd; clip-rule: evenodd;" viewBox="0 0 8466.66 8466.66" xmlns:xlink="http://www.w3.org/1999/xlink" class="">
 <defs>
  <style>
  .fil3 {stroke-width: 80px;}
  .fil10 {stroke-width: 100px;}
  .fil11 {stroke-width: 100px;}
  .fil0 {stroke-width: 20px; fill: #97714D;}
  .fil1 {stroke-width: 40px;}
  </style>
 </defs>
 <g style="fill: none;" id="Слой_x0020_1">
  <metadata id="CorelCorpID_0Corel-Layer"></metadata>
  <g id="_2106465864592">
   <path stroke="#97714D" class="fil0 XbvvvDda_0" d="M4417.62 6178.89l-9.77 -9.77 9.77 9.77zm19.55 -19.54c12.52,9.81 9.81,12.52 0,0zm-29.32 9.77l-9.77 -9.77 9.77 9.77zm-87.95 -9.77c0,-32.75 0,32.74 0,0zm78.18 0l0 0zm29.31 -19.55c12.53,9.82 9.82,12.52 0,0zm-527.7 9.77l0 0zm439.75 -39.09l0 0zm0 0l-9.77 -9.77 9.77 9.77zm-9.77 -9.77l-9.77 -9.77 9.77 9.77zm-9.77 -9.77l0 0zm107.49 -39.09c0,-28.26 0,50.6 0,0zm-305.45 77.34c-136.4,-184.85 51.65,-131.81 0,0zm364.09 -106.66l0 0zm-192.95 -69.19l95.42 127.48 -31.95 14.63 -63.47 -142.11zm-324.98 39.88l0 0zm506.48 -16.2c-114.34,53.07 -60.7,-132.17 0,0zm-232.86 -22.9c3.98,-40.9 -7.4,76.05 0,0zm-104.98 -28.48c150.25,108.77 -9.12,118.37 0,0zm-168.64 67.58l82.05 -138.78 31.73 18.01 -113.78 120.77zm283.39 -87.96c10.27,-76.86 -11.35,84.94 0,0zm-48.86 0c0,-32.74 0,32.75 0,0zm205.22 -19.54c23.73,-23.73 -13.59,13.59 0,0zm-488.62 9.77c-69.1,69.11 46.65,-46.65 0,0zm186.66 -55.14l84.06 44.13 -15.85 17.44 -68.21 -61.57zm139.97 33.23l-24.98 -142.83 19.21 -0.18 5.77 143.01zm171.76 -36.72c0,-28.26 0,50.6 0,0zm-107.49 -9.77c18.2,-35.45 59.72,-83.03 63.72,-7.15 6.52,123.67 -68.21,15.88 -63.72,7.15zm-136.82 -9.78c-28.64,-116.92 18.06,73.68 0,0zm410.44 -9.77c4.66,-69.73 -5.46,81.63 0,0zm-160.85 -83.43l47.2 119.88 -15.18 2.92 -32.02 -122.8zm-366.85 44.34c12.52,9.82 9.82,12.53 0,0zm234.53 -9.77c-5.94,-64.56 12.11,131.72 0,0zm-214.99 -9.77l0 0zm-41.2 -38.67c5.96,67.37 -45.12,196.6 -107.64,134.08 -49.31,-49.31 64.52,-80.7 107.64,-134.08zm695.95 28.9l0 0zm-371.35 -9.78c-10.92,-80.83 9.66,71.52 0,0zm-185.68 0l0 0zm149.94 -11.44c-109.69,-137.67 93.2,-128.39 0,0zm203.91 -66.45l50.17 132.5 -32.26 4.74 -17.91 -137.24zm-353.85 77.89l47.48 -130.27 16.44 7.45 -63.92 122.82zm-97.72 19.55l35.19 -141.75 31.62 12.64 -66.81 129.11zm296.1 -128.29l146.64 66.3 -23.02 32.84 -123.62 -99.14zm-325.42 -18.3l-9.77 9.78 9.77 -9.78zm9.78 -9.77l-9.78 9.77 9.78 -9.77zm0 0l0 0zm-1143.36 -1944.68l-9.77 -29.32 47.85 12.86 -38.08 16.46zm-9.77 -29.32l0 0zm322.48 -48.86l0 0zm0 0l-175.68 72.74 10.8 -4.74 -20.79 -107.09 185.67 39.09zm-390.89 -39.09l0 0zm195.45 -19.54l9.77 19.54 -9.77 -19.54zm0 0l-9.78 -9.78 9.78 9.78zm2179.22 -58.63c12.52,9.81 9.81,12.52 0,0zm39.08 -9.78l0 0zm-350.1 -17.3l145.5 -48.98 0.19 45.39 -145.69 3.59zm-763.93 -80.42c12.52,9.81 9.81,12.52 0,0zm1016.31 -9.77c-2.84,-32.99 3.81,44.1 0,0zm-19.54 0c12.52,9.81 9.81,12.52 0,0zm-820.91 11.84l19.4 -73.28 11.99 5.75 -31.39 67.53zm752.5 -70.48l0 0zm-361.57 9.78l0 0zm703.6 -19.55l0 0zm-2267.17 0l0 0zm-156.35 -39.09c12.52,9.82 9.82,12.52 0,0zm2452.84 -48.86l-19.55 -9.77 19.55 9.77zm-19.55 -9.77l-87.07 -12.57 7.72 -26.38 79.35 38.95zm-427.88 -5.63l-0.2 -120.82 17.59 2.74 -17.39 118.08zm300.85 -53.01l0 0zm-195.45 -19.54l0 0zm-1062.73 334.66c-56.18,5.64 -263.55,-20.62 -289.61,-76.37 -20.63,-44.13 -9.66,-138.25 -98.01,-277.86 56.76,29.61 326.23,300.67 387.62,354.23zm877.06 -344.43l0 0zm-1964.23 -48.86c12.52,9.81 9.81,12.52 0,0zm2052.18 -9.78c12.52,9.82 9.81,12.53 0,0zm-1759.01 0l0 0zm312.71 -78.18l150.69 354.25 -28.35 14.56 -206.16 -295.99 83.82 -72.82zm1798.1 39.1c12.52,9.81 9.81,12.52 0,0zm-1934.91 -19.55l0 0zm1192.21 -19.55l-91.54 120.16 5.38 -159.76 86.16 39.6zm9.78 -19.54l-9.78 19.54 9.78 -19.54zm-1074.95 -9.77l9.77 29.31 -9.77 -29.31zm-254.08 19.54l0 0zm1798.1 -19.54l0 0zm-1544.02 0l-9.77 -9.77 9.77 9.77zm29.31 -166.13c-9.41,-54.87 6.54,38.09 0,0zm1504.93 -29.32l-33.54 207.87 -32.3 -4.14 65.84 -203.73zm-224.76 -117.26c2.1,-26.75 37.44,-48.26 41.68,-20.83 2.13,13.76 -30.35,53.9 -41.68,20.83zm-9.77 -58.64c-31.79,-110.74 12.09,42.11 0,0zm195.45 -19.55l0 0zm-283.4 -19.54c12.52,9.82 9.81,12.52 0,0zm244.31 -39.09c12.52,9.82 9.81,12.53 0,0zm-586.34 -214.98l0 0zm449.53 -48.87l0 0zm-156.31 -127.04l14.9 127.04 52.81 215.72 -0.83 -10.79 -175.84 -145.65 -69.04 61.97 194.45 253.12 65.76 -22.5 -170.21 371.28 -16.68 -146.15 -24.95 -3.34 -65.03 98.44 90.99 -328.3 -25.67 -7.22 -78.07 228.77 -40.76 2.52 -98.85 -432.59 28.55 -6.5 18.89 91.77 49.25 14.51 108.36 -209.7 -39.93 -30.8 -111.32 54.31 -26.51 -49.72c-9.04,44.12 -40.43,243.55 -61.5,265.84l-136.85 -122.67 22.61 -7.65 257.13 666.9 -70.34 29.09 -101.81 -168.71 94.7 355.94 -27.77 7.24 -144.69 -185.14 -23.46 18.34c-259.3,74.37 176.27,516.43 -396.25,11.21 -428.56,-378.16 199.94,-401.4 -109.04,-545.89l-18.05 -12.54 -114.73 165.26 -41.94 -391.84 -25.52 144.04 -48.97 7.33 -85.68 -442.77 -144.08 48.16 323.25 862.32 -119.03 -70.47 -10.07 13.77 11.83 115.33 -160.27 -213.73 -19.74 14.02 92.12 138.47 -127.11 -56.03 -39.08 -4.91c-49.66,-9.32 -14.4,-7.35 -27.61,14.69l154.65 78.17 -48.86 87.95 -159.35 -130.68 -29.34 37.48 650.92 433.12 -56.16 101.35 -454 -206.77 13.95 -45.95 67.56 137.7 -6.64 8.09 -124.67 -90.03 -57.21 -263.32 -53.88 20.54 -3.23 154.56 -39.26 -1.04 -2.77 -311.4 -9.78 -9.77 -9.77 -9.78 -50.87 290.19 -246.05 -44.04 41.86 33.84 -134.06 79.27 11.51 63.59 297.38 -13.56 3.4 -56.77 -43.75 -50.62 126.13 66.17 -122.82 110.77 9.78 9.78 322.65 57.33 -156.53 108.79 -165.19 -36.02 -12.7 4.57 -7.78 60.77 -155.24 -2.11 -19.69 45.43 253.11 73.95 264.91 11.39 -25.06 164.36 63.51 27.53 125.38 -254.03 -39.26 -34.97 303.14 -52.34c-31.82,30.28 -47.46,173.56 -57.74,223.26l63.76 15.99 45.81 -205.24c141.38,-77.14 398,44.58 489.97,191.03 37.66,59.98 -122.19,329.8 -96.52,553.6 43.09,375.71 158.92,762.3 128.8,1118.74l-1412.74 21.89 1349.94 102.63 -225.36 47.29 145.27 33.1 -244.07 42.73 106.98 21.34 -63.53 79.54 143.42 -79.61 13.38 32.27 -284.55 99.4 22.93 24.31 -91.43 76.62 225.5 -101.68 -113.67 237.67 197.39 -132.37 -58 168.26 94.26 -54.39 15.49 23.52 -100.91 99.86 -19.16 82.36 129.14 -128.37 -23.94 127.61 66.12 -133.25 35.25 16.27 -69.27 152.08 129.75 -88.59 -75.08 210.89 91.24 -141.02 34.76 86.92 -19.95 -263.68 63.05 79.06 19.77 -11.35 -30.11 -90.51 23.39 -5.5 52.04 240.71 110.93 -104.31 14.31 164.61 66.63 -126.29 11.01 -1.99 93.72 168.89 -145.16 -302.3 18.55 -11.33 92.85 127.43 20.24 -11.87 -103.74 -163.51 98.25 5.73 -59.6 -59 17.8 -17.8 -83.11 -62.07 63.33 -100.38 -1.08 97 57.87 -35.94c30.41,16.41 68.27,165.43 82.25,205.12l-30.42 -335.78 27.17 -10.2 89.26 230.63 5.23 -104.67 151.2 86.82 -173.84 -182.85 130.1 53.6 8.3 -19.85 -232.57 -114.32 117.72 2.13 -285.95 -85.37 113.17 -1.63 0.94 -20.85 -222.75 -14.42 1406.93 -122.93 -1460.35 -2.23 276.12 -1889.34 -55.09 -19.15 297.97 -83.29 10.35 119.31c29.33,14.03 91.8,18.44 126.38,23.68l-19.37 -98.96 215.22 189.82 49.81 -48 -112.58 -152.38 309.21 143.96 38.82 -74.52 -194.46 -81.75 -57.79 -106.29 311.87 28.11 -135.46 -28.42 220.65 -106.34 -9.17 -22.16 -173.74 59.2 29.32 -87.95 320.28 -117.31 -80.36 -111.81 -297.16 82.7c17.92,-25.62 74.52,-94.59 77.64,-120.76l-57.07 -173.76 -68.37 0.31 -41.54 372.22 -16.28 -156.67 -65.75 -5.55 -38.93 246.31 38.73 9.49 -142.54 72.55 -47.24 -106.07 -5.45 17.2 82.01 -96.8 17.32 -124.42 -15.19 -10.94 -79.76 42.24 67.86 -82.78 186.94 19.6 2.04 -37.75 -92.74 -95.21 -14.52 -118.74 -13.29 -4.42 -78.21 41.07 -4.46 -105.99 -43.78 -6.33 -84.43 448.14 -17.84 -1.7 -31.13 -81.03 -48.43 11.63 63.95 96.86 -133.66 189.7 -18.59 -10.87 53.91 -165.41 -18.73 -8.34 -78.12 144.9 -1.37 -22.18 -202.76 51.16 9.86 56.25 184.24 -29.99 -236.59 106.32 -19.66 -32.74 522.17 -563.21 -105.55 -71.22 -10.47 201.64 -189.75 143.95 -34.51 -31.43 549.17 -621.18 18.61 14.23 -161.16 91.39 109.76 -297.36 -21.31 -8.43 -105.76 234.55 -44.11 -138.75 -133.91 101.53 -0.18 -155.4c21.84,92.19 5.9,67.68 61.46,106.12l183.25 -225.67 -49.25 -54.65 -175.85 115.58 361.9 -480.45 -91.11 -63.58 -377.1 588.46 16.72 14.33 -66.72 -185.8z"></path>
   <path stroke="#97714D" class="fil1 XbvvvDda_1" d="M1192.77 3208.12c417.14,-1668.66 2141.56,-2760.94 3831.22,-2331.35 1664.97,423.31 2745.08,2120.64 2328.8,3811.65 -420.62,1708.62 -2122.91,2756.06 -3841.2,2336.14 -1651.45,-403.58 -2734.57,-2153.36 -2318.82,-3816.44zm2912.14 -2531.02c-1816.31,94.79 -3210.34,1632.04 -3113.64,3451.46 96.28,1811.69 1643.8,3196.12 3454.91,3105.25 1811.24,-90.87 3208.3,-1650.75 3106.24,-3461.94 -102.1,-1812.03 -1632.94,-3189.48 -3447.51,-3094.77z"></path>
   <path stroke="#97714D" class="fil1 XbvvvDda_2" d="M4603.29 6384.11c-3274.27,412.82 -3827.68,-4464.56 -639.92,-4874.84 3178.02,-409.02 3864.42,4432.75 639.92,4874.84zm-557.02 -4974.09c-3368.9,298.16 -2893.9,5415.27 477.16,5090.81 3320.32,-319.56 2880.97,-5388.02 -477.16,-5090.81z"></path>
   <path stroke="#97714D" class="fil1 XbvvvDda_3" d="M5354.83 6692.46c73.01,8.73 780.87,-492.49 885.31,-586.87 117.25,-105.98 657.1,-724.51 639.34,-837.58 -89.24,-193.59 -235.71,207.62 -320.53,325.67 -116.51,162.16 -231.22,288.47 -375.17,426.23 -124.23,118.88 -309.11,255.01 -455.78,345.55 -109.86,67.81 -598.2,217.69 -373.17,327z"></path>
   <path stroke="#97714D" class="fil1 XbvvvDda_4" d="M3234.01 6740.57l62.57 -101.3 -489.77 -247.01c-292.98,-171.87 -556.86,-415.02 -762.61,-683.68 -75.12,-98.08 -240.2,-479.05 -324.34,-298.22 -35.49,76.27 542.11,685.47 639.58,774.53 104.68,95.64 797.96,570.17 874.57,555.68z"></path>
   <path stroke="#6DC7D9" class="fil2 XbvvvDda_5" d="M3814.12 2597.61l128.92 353.45 41.6 -25.21c-2.3,56.27 -215.85,110.52 -85.11,170.63 21.39,9.83 160.36,-83.41 227.22,-110.8 47.28,-19.38 298.5,-373.04 147.23,-396.79l21.24 11.27 -99.66 187.72 -44.67 -23.71c15.05,-106.06 -42.07,-430.37 -143.46,-168.07 -28.99,75.02 6.94,178.55 -46.05,152.58 -87.61,-42.93 -76.67,-146.45 -147.26,-151.07z"></path>
   <path stroke="#97714D" class="fil1 XbvvvDda_6" d="M2537.54 1857.31l-228.03 -209.57 -75.51 55.3 203.42 246.03 -50.28 41.54 -208.78 -230.66 -73.37 63.24 220.43 258.82 401.66 -294.22 18.47 25.22c-0.58,-3.2 -310.28,-271.94 -313.15,-272.11 -193.69,-11.59 179.17,235.91 105.14,316.41z"></path>
   <path stroke="#97714D" class="fil1 XbvvvDda_7" d="M1270.95 3853.09c-26.01,-108.96 248.33,-102.23 284.1,-38.88 69.77,123.59 -264.02,123.04 -284.1,38.88zm-32.91 174.56l-5.43 105.38c5.74,1.06 153.88,-5.98 175.14,-5.97 27.17,0.02 173.2,11.82 176.54,11.2 87.54,-196.76 -150.64,-28.17 -176.24,-118.23 28,-34.66 216.21,-30.95 194.77,-204.23 -15.83,-127.97 -146.86,-152.01 -252.32,-127.75 -117.04,26.92 -160.84,156.4 -82.43,246.09 34.76,39.75 103.21,50.8 100.44,92.19 -3.51,52.49 -97.85,-6.74 -130.47,1.32z"></path>
   <path stroke="#97714D" class="fil1 XbvvvDda_8" d="M1604.83 2823.3c-50.96,17.91 -83.51,-61.01 -124.68,-49.32 -26.05,26.47 -37.27,52.02 -32.82,89.22l115.99 39.09c-4.69,79.79 -240.43,13.29 -172.75,130.41 68.74,12.22 106.43,-100.57 196.32,-4.71 24.54,26.17 124.43,158.26 138.2,161.49 52.95,-75.6 -98.86,-203.23 -76.72,-239.71 50.31,-10.86 69.11,35.64 109.72,45.86 34.94,-20.87 46.83,-49.02 40.02,-88.61l-118.43 -44.65c13.1,-46.15 239.87,-44.03 218.91,-129.36 -31.81,-11.32 -165.78,32.44 -228,26.73 -95.21,-8.74 -49.86,-95.54 -122.17,-145.46 -98.41,80.56 68.39,114.52 56.41,209.02z"></path>
   <path stroke="#97714D" class="fil1 XbvvvDda_9" d="M5144 1406.84c28.11,25.86 133.44,63.07 174.38,79.65 129.89,52.62 81.48,105.3 126.48,139.47 25.58,-17.4 40.73,-92.05 29.78,-111.52 -32.41,-57.56 -72.8,38.33 31.16,-198.7 16.67,-38.01 42.31,-82.53 54.55,-111.57l-107.88 -48.41c-14.04,26.61 12.53,22.12 -41.43,143.41 -18.73,42.09 -41.27,115.61 -68.05,147.34l-74.61 -26.65c-2.07,-83.51 105.88,-244.12 114.6,-290.2l-94.79 -44.63c-51.04,95.65 -48.59,191.69 -144.19,321.81z"></path>
   <path stroke="#90C046" class="fil3 XbvvvDda_10" d="M3117.91 2827l19.54 4.55 -19.54 -4.55zm0 0l-21.64 -14.04 21.64 14.04zm-156.36 19.54l9.77 9.78 9.78 9.77c50.29,19.5 132.25,-23.56 148.29,-9.77 13.21,-22.04 -22.05,-24.01 27.61,-14.69l39.08 4.91 22.08 -18.36 -18.12 -73.52c0.43,-0.2 83.07,-1.88 32.02,-119.78 -33.48,-77.29 -72.01,-46.18 -111.87,-74.01 -6.53,-60.68 8.87,-99.54 -43.54,-142.14 -30.02,-24.4 -103.67,-53.99 -138.02,-45.36 -20.7,65.98 -2.25,135.87 49.4,182.85 65.86,59.89 95.53,20.02 138.8,45.79l6.57 94.83c-97.86,-7.22 -68.74,-8.02 -66.03,76.6 -51.06,-9.49 -105.35,-48.47 -152.06,8.26l46.24 64.84z"></path>
   <path stroke="#97714D" class="fil1 XbvvvDda_11" d="M3429.69 6852.62c-7.22,-37.5 24.78,-51.46 12.96,-82.31 -13.38,-34.91 -68.66,-29.24 -90.48,-5.71 -48.02,51.79 -5.24,149.2 77.83,145.5 136.83,-6.1 115.74,-294.43 187.35,-336.14 98.37,-0.53 42.7,114.31 27.06,170.54 -10.05,36.15 -16.91,76.13 -26.45,109.62 -10.81,37.97 -37.45,56.26 -38.91,81.77l112.8 40.64c22.35,-32.61 6.25,-65.73 13.41,-103.29l86.79 -287.44c-34.1,-24.53 -203.82,-63.81 -246.62,-56.98 -14.57,44.57 -27.37,331.15 -115.74,323.8z"></path>
   <path stroke="#97714D" class="fil1 XbvvvDda_12" d="M4209.67 923.91c-9.54,55.53 20.48,54.29 -19.81,111.75 -14.95,21.32 -38.42,67.23 -61.3,72.73l-1.12 -182.03 -111.21 -2.91c0.03,4.7 20.71,127.34 20.37,163.94 -0.25,27.15 -4.89,168.96 -1.95,180.61l97.84 6.11c20.03,-41.62 -15.69,-41.97 24.72,-104.87 13.09,-20.38 43.46,-75.44 61.3,-82.58l-3.94 182.72 115.94 1.66c1.9,-23.68 -20.52,-130.31 -20.86,-173.2 -0.23,-28.28 11.52,-179.41 10.97,-182.13l-110.95 8.2z"></path>
   <path stroke="#97714D" class="fil1 XbvvvDda_13" d="M4114.68 6853.17c-61.61,243.18 -196.62,105.26 -162.54,-84.35 40.49,-225.33 216.53,-128.75 162.54,84.35zm-136.81 -244.3c-203.76,75 -162.25,462.74 108.87,403.67 207.28,-45.16 162.63,-503.61 -108.87,-403.67z"></path>
   <path stroke="#97714D" class="fil1 XbvvvDda_14" d="M2743.27 1336.51c12.33,42.28 44.08,23.14 44.24,91.66 0.05,24.21 -7.07,99.48 -18.69,117.55l-93.32 -167.56 -89.63 51.84c2.23,5.76 176.84,292.21 182.35,296.71l89.35 -45.39c-9.16,-40.9 -40.87,-20.37 -44.24,-84.67 -1.19,-22.59 7.51,-100.68 19.1,-117.75l89.91 152.33 94.99 -51.45c-3.44,-5.72 -112.3,-171.52 -124.17,-189.37 -12.62,-18.98 -49.54,-91.63 -57.45,-95.89 -23.2,-12.49 -79.33,23.49 -92.44,41.99z"></path>
   <path stroke="#97714D" class="fil1 XbvvvDda_15" d="M7036.59 4713.05l0 0zm0 0l-9.77 -9.78 9.77 9.78zm9.77 -87.96l0 0zm-19.54 78.18c-55.76,24.41 -161.46,-46.94 -161.64,-47.01l-33.78 111.92 268.28 57.76c44.42,12.38 44.17,27.26 70.16,30.92l32.96 -112.35c-57.89,0.17 -45.62,27.51 -95.03,-34.14 -19.68,-24.57 -54.78,-60.79 -61.41,-85.28 92.03,1.95 158.29,51.59 169.49,52.22l36.65 -119.32c-85.36,4.18 -265.82,-36.92 -339.65,-78.41l-36.45 113.06c54.33,-6.66 59.45,-12.04 92.16,31.99 23.16,31.19 49.2,45.17 58.26,78.64z"></path>
   <path stroke="#97714D" class="fil1 XbvvvDda_16" d="M4808.51 6677.27c-28.56,-159.42 152.93,-186.8 193.58,80.73 27.35,180 -147.21,178.13 -193.58,-80.73zm48.87 -156.35c-269.5,79.33 -109.89,473.35 109.47,402.85 219.36,-70.5 122.85,-471.24 -109.47,-402.85z"></path>
   <path stroke="#97714D" class="fil1 XbvvvDda_17" d="M4378.53 6745.68c2.75,-52.52 57.66,-155.42 124.73,-96.26 114.06,100.59 50.81,428.04 -69.41,295.2 -29.61,-32.71 -57.35,-159.99 -55.32,-198.94zm48.86 -146.58c-228.77,65.08 -162.07,454.34 92.07,408.94 219.87,-39.27 163.14,-481.55 -92.07,-408.94z"></path>
   <path stroke="#97714D" class="fil1 XbvvvDda_18" d="M6125.96 2009.12l70.23 80.88c40.39,-26.68 14.66,-45.87 74.82,-57.82 20.53,-4.08 104.27,-14.87 120.77,-10.76 -5.21,43.18 -114.71,97.92 -132.69,124.36 4.99,33.49 34.67,60.2 65.71,71.41 3.86,-1.51 110.08,-102.26 123.13,-115.67 31.25,-32.13 119.59,-101.37 132.48,-116.62l-71.81 -82.51c-44.02,30.67 -3.08,60.93 -85.72,67.7 -20.77,1.7 -102.09,10.84 -112.97,5.26l138.73 -130.67c-57.45,-142.59 -100.04,-20.58 -150.65,18.96 -29.09,22.73 -53.83,50.48 -79.56,76.83 -36.27,37.15 -68.88,43.92 -92.47,68.65z"></path>
   <path stroke="#97714D" class="fil1 XbvvvDda_19" d="M2013.64 1937.72c-34.98,18.91 -59.18,39.38 -72.45,78.18 24.28,43.39 76.77,31.9 93.78,84.17l-47.92 62.84c-71.94,-18.37 -57.74,-54.36 -99.55,-79.45l-66.11 77.68 272.08 220.07 65.95 -70.22 -133.08 -105.01 46.33 -71.45c69.5,8.38 98.21,83.97 135.45,102.49l74.7 -80.36c-51.69,-48.74 -207.93,-122.74 -269.18,-218.94z"></path>
   <path stroke="#90C046" class="fil3 XbvvvDda_20" d="M4246.58 2071.64l48.33 -117.8c17.73,85.49 4.19,117.3 90.23,177.91l57.64 -49.86c10.61,-75.41 5.46,-222.5 -100.19,-225.24l-33.2 75.33c-25.7,-42.36 -2.31,-58.29 -50.12,-109.52 -12.05,-12.9 -77.44,-76.07 -87.39,-81.98 -68.32,33.97 -75.55,140.74 -54.37,204.22 19.57,58.65 64.8,111.13 129.07,126.94z"></path>
   <path stroke="#97714D" class="fil1 XbvvvDda_21" d="M4476.25 931.18l-33.07 336.3 101.87 16.21c2.47,-9.71 8.48,-245.09 28.69,-295.55 36.64,-14.04 64.26,-8.82 94.5,16.34l-38.66 285.35 102.1 13.95c1.56,-9.35 9.41,-152.69 12.96,-182.4 2.54,-21.16 26,-163.17 25.8,-164.53 -43.3,-11.5 -257.46,-36.94 -294.19,-25.67z"></path>
   <path stroke="#97714D" class="fil1 XbvvvDda_22" d="M3145.51 1141.35c10.29,44.93 55.09,44.37 54.92,108.92l-71.52 40.88c-44.04,-22.71 -35.21,-94.97 -53.81,-120.92l-98.24 35.45c1.87,6.38 62.48,120.42 73.92,154.23 7.1,21 55.82,157.33 61.98,163.64l94.84 -27.65c2.23,-41.3 -71.68,-98.98 -62.49,-157.88 24.26,-27.26 40.79,-32.59 76.85,-30.98 55.16,46.76 35.82,113.99 62.77,155.16l100.2 -43.48c-1.89,-5.19 -90.31,-179.5 -101.22,-203.75 -9.07,-20.16 -31.73,-106.7 -35.19,-111.02 -14.91,-18.63 -88.58,21.25 -103.01,37.4z"></path>
   <path stroke="#97714D" class="fil1 XbvvvDda_23" d="M6752.35 2826.15l114.18 -58.97c74.13,105.85 -100.43,173.26 -114.18,58.97zm-76.97 -84.09c7.69,66.83 73,216.36 146.66,222.44 183.06,15.11 91.02,-159.62 92.1,-212.95 20.81,-20.16 52.76,-39.83 81.88,-31.84 48.89,58.13 4.61,81.87 17.67,138.46 25.94,1.53 58.35,-28.54 70.35,-51.22l-88.75 -199.47c-21.97,6.22 -110.06,58.52 -153.16,73.92 -18.66,6.67 -164.51,59.28 -166.75,60.66z"></path>
   <path stroke="#97714D" class="fil1 XbvvvDda_24" d="M6157.08 1664.1c-50.59,172.01 -252.18,245.09 -211.57,92.76 40.26,-151.04 252.78,-232.83 211.57,-92.76zm-127.04 -117.27c-249.41,74.87 -167.06,398.49 41.63,345.18 221.83,-56.68 188.87,-414.37 -41.63,-345.18z"></path>
   <path stroke="#97714D" class="fil1 XbvvvDda_25" d="M6831.37 2436.11c-23.88,50.46 -80.03,80.39 -130,104.64 -64.4,31.27 -146.08,15.95 -118.48,-58.21 36.44,-97.88 317.15,-191.5 248.48,-46.43zm-156.35 -136.82c-232.63,69.25 -182.33,368.96 64.55,318.73 214.7,-43.69 195.93,-396.26 -64.55,-318.73z"></path>
   <path stroke="#97714D" class="fil1 XbvvvDda_26" d="M6865.18 3251.33l25.07 97.38 253.57 -83.31c33.06,-7.39 61.51,2.29 83.45,-10.57l-62.87 -222.85c-4.98,1.46 -129.91,51.4 -158,59.18 -42,11.64 -116.23,43.9 -146.3,8 21.13,-16.38 104.49,-17.85 61.99,-77.63 -28.31,-39.82 -93.48,-14.14 -111.44,20.66 -98.82,191.43 307.28,60.91 314,61.85 50.39,7.02 53.97,55.53 -7.21,77.23 -33.8,12 -247.65,66.42 -252.26,70.06z"></path>
   <path stroke="#97714D" class="fil1 XbvvvDda_27" d="M3633.81 987.58c11.58,69.33 113.33,266.99 33.84,312.65l-15.43 -77.29c-157.31,-46.49 -47.09,226.58 59.34,95.81 70.74,-86.92 -58.85,-250.74 15.24,-309.99 63.99,0.72 57.72,84.27 69.39,143.07 5.12,25.8 16.56,67.09 19.02,89.87 3.16,29.13 -8.72,52.75 0.11,66.87l105.65 -17.64c-0.64,-4.5 -33.32,-149.7 -36.72,-168.39 -8.95,-49.13 -16.05,-139.76 -24.09,-174.18l-226.35 39.22z"></path>
   <path stroke="#97714D" class="fil1 XbvvvDda_28" d="M5536.67 1580.87l91.52 60.11c12.47,-19.33 27.28,-124.84 73.53,-125.1 17.29,44.47 -9.14,206.41 64.39,241.83 7.94,-13.05 7.28,-178.72 13.31,-217.31 16.76,-107.43 119.63,-62.47 167.98,-111.84l-63.06 -55.53c-35.29,29.53 -9.6,36.57 -59.16,56.59 -18.26,7.38 -74.51,25.21 -91.68,22.23 -5.39,-50.53 54.43,-77.76 68.25,-118.32 -13.66,-18.2 -72.04,-57.41 -94.24,-41.65 -2.69,1.9 -36.66,78.15 -49.77,97.82 -12.3,18.46 -120.44,188.63 -121.07,191.17z"></path>
   <path stroke="#97714D" class="fil1 XbvvvDda_29" d="M1583.66 4400.33c-70.36,83.27 -341.65,80.46 -268.03,-32.46 68.75,-105.43 354.65,-70.05 268.03,32.46zm-185.68 -166.12c-240.91,72.56 -140.96,350.88 103.76,299.2 220.34,-46.54 155.34,-377.24 -103.76,-299.2z"></path>
   <path stroke="#97714D" class="fil1 XbvvvDda_30" d="M1616.28 2491.28c21.32,17.37 43.28,11.49 75.88,31.07l226.25 141.21c36.76,-32.33 198.84,-248.14 57.4,-262.16 -18.57,32.04 36.7,95.67 -44.02,155.25 -29.67,-0.61 -86.66,-34.96 -98.66,-61.96 4.62,-58.53 31.97,-43.68 56.4,-84.18l-58.64 -41.78c-25.59,40.37 1.84,59.41 -47.8,99.41l-80.02 -38.17c16.37,-80.82 68.51,-62.71 100.86,-98.47 -42.44,-71.88 -81.26,-26.95 -108.88,20.4 -13.71,23.51 -76.24,124.65 -78.77,139.38z"></path>
   <path stroke="#97714D" class="fil1 XbvvvDda_31" d="M4833.2 1319.81c21.35,24.14 202.71,69.97 234.46,65.28l42.05 -73.03c-47.56,-8.92 -81.7,50.55 -164.39,-2.03 -9.1,-23.19 9.38,-99.66 24.31,-118.41 63.15,-9.01 60.49,33.92 105.33,36.59l18.69 -72.25c-50.23,-9.68 -54.23,14.3 -100.57,-10.25 -13.68,-32.77 -5.31,-63.68 16.53,-91.03 77.84,-9.54 75.53,45.58 109.96,66.96 52.18,-69.36 3.72,-81.76 -53.48,-96.22 -44.51,-11.25 -110.53,-37.34 -152.9,-28.64 -7.63,33.82 -14.22,117.03 -28.15,168.23 -9.24,33.97 -10.82,43.97 -17.63,77.86 -10.32,51.28 -25.47,40.73 -34.21,76.94z"></path>
   <path stroke="#97714D" class="fil1 XbvvvDda_32" d="M7054.88 3493.89l98.64 17.46 -78 49.98 -20.64 -67.44zm-145.33 -90.33l1.96 74.75c53.01,-4.12 30.79,-21.98 99.49,0.63l17.21 97.51 -90.51 42.63 14.65 114.36 335.01 -195.98c-1.34,-30.06 -27.84,-58.08 -47.79,-81.42 -93.77,49.02 -276.39,-60.83 -330.02,-52.48z"></path>
   <path stroke="#97714D" class="fil1 XbvvvDda_33" d="M1543.39 4594.02c43.8,49.67 74.18,-1.76 116.48,73.8 6.47,89.72 -107.34,132.58 -183.84,133.67 -181.16,2.57 -47.78,-141.21 -54.53,-167.24 -33.64,-11.49 -53.95,-0.35 -78.5,24.51 -36.37,190.94 124.42,299.69 282.43,203.57 162.55,-98.87 34.01,-395.8 -82.04,-268.31z"></path>
   <path stroke="#97714D" class="fil1 XbvvvDda_34" d="M1363.3 3582.91c-2.39,-39.55 -90.97,-43.75 -40.84,-128.76 38.05,-18.02 49.85,-13.53 81.97,12.55l20.84 89.48c44.38,-15.02 59.1,-159.89 152.01,-77.57 88.56,78.46 -64.81,107.73 -66.03,143 151.23,113.48 214.48,-389.47 -64.79,-213.08 -38.27,-24.84 -22.45,-51.37 -85.87,-44.58 -127.01,13.59 -140.51,268.85 2.71,218.96z"></path>
   <path stroke="#97714D" class="fil1 XbvvvDda_35" d="M7071.12 4051.21c-8.66,-37.22 -72.13,-31.75 -86.61,-86.32 -16.38,-61.69 51.64,-94.94 101.99,-100.92 51.31,-6.1 139.57,-8.12 172.09,41.55 50.67,77.39 -37.41,96.09 -54.93,130.62 150.95,107.65 179.97,-303.71 -95.42,-269.11 -218.61,27.47 -209.94,345.79 -37.12,284.18z"></path>
   <path stroke="#90C046" class="fil3 XbvvvDda_36" d="M5248.26 2651.1l0 0zm48.87 -29.32l0 0zm-48.87 29.32c-15.83,66.11 -21.43,50.14 -18.85,135.37 39.44,-5.9 65.78,3.55 104.54,-39.87 31.35,-35.13 42.46,-90.12 24.84,-136.88l-61.66 12.06c28.3,-43.46 40.65,-115.35 22.98,-169.56 -120.37,-39.07 -183.45,159.77 -138.03,225.86l66.18 -26.98z"></path>
   <path stroke="#90C046" class="fil3 XbvvvDda_37" d="M4691.25 2201.57l0 0zm0 0l24.72 0 -14.9 -127.04 -3.87 29.04c-25.61,-106.05 -111.44,-136.53 -211.17,-136.53 0,61.07 2.01,159.17 41.35,202.95 32.53,36.21 126.08,70.86 172.16,69.61l-8.29 -38.03z"></path>
   <path stroke="#90C046" class="fil3 XbvvvDda_38" d="M3526.63 2251.01c144.46,-67.88 166.22,-183.1 96.1,-320.05 -59.75,-9.78 -121.38,53.53 -137.64,110.09 -32.31,112.43 4.11,141.05 41.54,209.96z"></path>
   <path stroke="#97714D" class="fil1 XbvvvDda_39" d="M7222.26 4146.25c-16.34,44.88 25.12,23.64 28.33,87.19 -48.81,28.99 -254.24,-21.92 -304.68,-35.17l-7.56 118.05c59.34,-16.49 246.01,-7.73 299.61,27.14l-52.7 73.5c31.55,21.9 58.58,15.3 90.46,-1.71 11.57,-40.29 12.56,-130.15 19.69,-177.22 7.87,-51.91 -4,-110.67 -73.15,-91.78z"></path>
   <path stroke="#90C046" class="fil3 XbvvvDda_40" d="M3997.08 2035.05c49.2,-49.39 86.87,-98.06 77.89,-183.78 -7.03,-67.02 -59.75,-129.35 -115.4,-159.65 -113.35,136.31 -81.24,231.42 37.51,343.43z"></path>
   <path stroke="#97714D" class="fil4 XbvvvDda_41" d="M4029.18 3425.51c-61.39,-53.56 -330.86,-324.62 -387.62,-354.23 88.35,139.61 77.38,233.73 98.01,277.86 26.06,55.75 233.43,82.01 289.61,76.37z"></path>
   <path stroke="#90C046" class="fil3 XbvvvDda_42" d="M4319.93 1822.71c40.93,-68.87 59.63,-87.78 22.61,-181.25 -25.22,-63.68 -66.16,-112.49 -136.92,-101.41 9.49,52.75 -97.55,207.46 114.31,282.66z"></path>
   <path stroke="#90C046" class="fil3 XbvvvDda_43" d="M2854.06 3335.16l-9.78 -9.78c-55.09,-13.34 -60.11,-34.32 -128.83,-11.58 -40.08,13.26 -63.74,21.73 -97.6,50.67 71.72,93.09 171.61,153.39 267.31,70.36l36.04 -24.88 -67.14 -74.79z"></path>
   <path stroke="#90C046" class="fil3 XbvvvDda_44" d="M3070.35 2312.6c32.49,158.42 132.61,157.14 260.72,140.43 -6.73,-34.79 -11.73,-16.79 -16.29,-33.59 -16.37,-60.22 -2.81,39.34 -0.23,-13.7 1.2,-24.67 11.98,18.24 1.05,-21.67 -14.12,-51.61 -157.98,-159.89 -245.25,-71.47z"></path>
   <path stroke="#90C046" class="fil3 XbvvvDda_45" d="M4259.25 2355.2c79.58,-115.65 29.88,-226.36 -82.96,-287.44 -79.75,76.57 -44.26,228.72 51.08,267.35l31.88 20.09z"></path>
   <path stroke="#90C046" class="fil3 XbvvvDda_46" d="M5473.04 2936.01c35.76,16.65 -37.55,-10.11 16.64,2.48 11.81,2.75 10.93,3.15 12.47,3.81 19.13,8.28 -23.49,11.92 27.14,9.15 71.93,-3.93 181.2,-65 166.28,-200.41 -41.2,-4.51 -132.3,4.26 -165.04,35.73 -34.86,33.5 -56.69,100.34 -57.49,149.24z"></path>
   <path stroke="#90C046" class="fil3 XbvvvDda_47" d="M3033.52 2723.4c3.17,-43.77 -19.6,-116.55 -54.06,-148.84 -45.9,-43 -105.58,-37.9 -160,-49.02 -13.21,69.53 -4.09,128.81 57.88,170.68 77.57,52.44 115.02,23.4 123.19,22.63 16.85,-1.59 4.71,6.28 32.99,4.55z"></path>
   <path stroke="#90C046" class="fil3 XbvvvDda_48" d="M3451.04 2720.37c-6.86,-128.06 -66.81,-206.94 -204.12,-194.34 -6.51,76.63 -5.42,114.94 53.87,166.95 18.57,16.28 53.52,35.97 77.55,40.53l72.7 -13.14z"></path>
   <path stroke="#90C046" class="fil3 XbvvvDda_49" d="M3919.29 2242.35c-0.14,-52.14 18.32,-138.95 -21.49,-175.7 -31.36,-28.94 -92.04,-59.3 -133.49,-58.02 -25.67,68.7 -30.22,108.48 20.57,170.94 50.74,62.41 82.82,56.43 122.11,61.28 21.15,2.62 -5.01,6.22 12.3,1.5z"></path>
   <path stroke="#90C046" class="fil3 XbvvvDda_50" d="M2894.72 2057.97c21.62,114.72 163.38,161.21 260.59,91.87 -18.36,-42.55 -38.41,-90.46 -85.99,-114.73 -44.08,-22.49 -138.64,-2.86 -174.6,22.86z"></path>
   <path stroke="#90C046" class="fil3 XbvvvDda_51" d="M3852.41 2494.91c-19.13,-59.35 -14.85,-180.86 -195.06,-164.33 -6.09,71.62 -7.79,95.93 49.35,142.16 48.05,38.88 96.35,50.51 145.71,22.17z"></path>
   <path stroke="#97714D" class="fil0 XbvvvDda_52" d="M3983.75 2498.45c8.49,-36.55 6.43,-120.48 12.7,-170.81 5.09,-40.8 27.84,-131.01 8.81,-162.29 -42.81,18.35 -24.87,174.84 -58.66,219.16 -9.46,-7.04 -83.93,-103.52 -98.75,-121.32 -16.97,-20.38 -112.41,-109.14 -129.9,-112.01 -29.34,39.3 98.02,132.99 124.6,166.16 16.3,20.33 140.47,180.82 141.2,181.11z"></path>
   <path stroke="#90C046" class="fil3 XbvvvDda_53" d="M3334.47 3752.38c46.07,32.95 97.71,19.1 139.89,-11.91 44.06,-32.38 60.31,-81.81 58.12,-134.42 -115.54,-40.63 -179.18,46.06 -198.01,146.33z"></path>
   <path stroke="#97714D" class="fil0 XbvvvDda_54" d="M2653.49 2941.19c-67.84,3.23 -74.97,-53.39 -118.26,-25.03 32.51,42.97 101.07,57.92 151.67,68.22 54.53,11.1 101.12,66.27 155.06,71.28 12.74,-93.07 -79.26,-91.58 -150.22,-144.52 -52.6,-39.25 -101.3,-136.08 -139.04,-160.38 -30.74,45.65 82.82,144.82 100.79,190.43z"></path>
   <path stroke="#90C046" class="fil3 XbvvvDda_55" d="M5365.25 2584.16c52.81,-28.4 68.48,-12.03 103.57,-83.87 81.66,-167.21 -97.21,-154.06 -123.66,-45.23 -9.59,39.47 -0.47,93.18 20.09,129.1z"></path>
   <path stroke="#90C046" class="fil3 XbvvvDda_56" d="M3499.03 3352.58c-23.32,-43.19 21.66,-178.98 -175.16,-173.04 -1.95,63.64 -1.08,96.76 45.19,139.02 13.89,12.68 37.55,27.62 55.61,31.33l74.36 2.69z"></path>
   <path stroke="#90C046" class="fil3 XbvvvDda_57" d="M5188.93 2427.38c38.19,-16.19 1.61,-0.08 30.26,-21.08 2.19,-1.6 8.03,-6.48 10.16,-7.76 14.37,-8.75 43.38,0.93 66.51,-51.62 19.35,-43.96 14.89,-101.98 -17.04,-146.92 -97.69,42.44 -146.45,126.35 -89.89,227.38z"></path>
   <path stroke="#90C046" class="fil3 XbvvvDda_58" d="M4428.09 2620.35c105.52,-18.22 157.65,-124.5 107.59,-214.36 -169.19,9.12 -104.53,174.6 -104.52,174.73 0.12,1.4 -3.16,31.07 -3.07,39.63z"></path>
   <path stroke="#90C046" class="fil3 XbvvvDda_59" d="M4826.25 2062.21c54.97,-73.48 37.99,-196.44 -65.8,-201.98 -37.31,69.28 -34.29,189.81 65.8,201.98z"></path>
   <path stroke="#90C046" class="fil3 XbvvvDda_60" d="M5129.83 2192.23c99.05,-24.11 129.04,-121.28 67.71,-203.15 -28.3,4.76 -67.7,45.39 -83.94,78.31 -22.29,45.2 -4.83,89.5 16.23,124.84z"></path>
   <path stroke="#90C046" class="fil3 XbvvvDda_61" d="M2696.64 3038.58c-119.29,-154.85 -282.87,45.35 -96.16,52.85 50.98,2.05 63.39,-21.17 96.16,-52.85z"></path>
   <path stroke="#90C046" class="fil3 XbvvvDda_62" d="M4166.46 2506.8c23.41,-42.32 19.55,-66.29 14.4,-117.32 -25.63,-24.39 -63.51,-52.93 -95.12,-59.75 -21.09,39.64 -26,88.16 3.28,132.72 37.39,56.91 29.51,9.22 58.52,30.16 22.74,16.41 -17.82,16.27 18.92,14.19z"></path>
   <path stroke="#90C046" class="fil3 XbvvvDda_63" d="M2823.47 2913.68c1.98,-34.62 -4.56,-87.15 -18.49,-115.79 -24.26,-17.51 -69.3,-36.8 -106.22,-38.24 -3.96,90.17 23.32,159.58 124.71,154.03z"></path>
   <path stroke="#90C046" class="fil3 XbvvvDda_64" d="M5502.34 3364.47c44.77,0.91 63.35,19.49 108.14,0.96 41.82,-17.29 53.74,-36.43 58.84,-79.98 -65.57,-36.25 -159.25,-10.51 -166.98,79.02z"></path>
   <path stroke="#90C046" class="fil3 XbvvvDda_65" d="M4689.81 2572.86c-40.03,23.17 -125.71,63.39 -92.63,153.93 11.63,31.84 21.99,15.29 29.36,13.42 1.14,-0.3 3.94,-1.33 5.12,-1.7l56.32 -41.75c23.95,-38.65 14.14,-84.2 1.83,-123.9z"></path>
   <path stroke="#90C046" class="fil3 XbvvvDda_66" d="M5616.65 3136.75c-12.69,31.66 -24.64,39.51 -24.03,69.04 29.54,19.72 147.15,33.17 142.99,-84.36 -47.81,-2.67 -79.5,0.46 -118.96,15.32z"></path>
   <path stroke="#97714D" class="fil0 XbvvvDda_67" d="M6470.01 1857.31c46.85,43.1 116.2,69.21 114.88,-15.03l-24.94 -23.34c-56.27,16.84 -6.29,17.31 -49.2,28.33l-14.25 -16.06c1.88,-1.05 4.91,-3.18 5.47,-1.62 0.06,0.15 40.67,4.03 19.35,-50.89 -55.31,-20.49 -8.07,12.74 -49.66,-7.37l-1.65 85.98z"></path>
  </g>
 </g>
<style data-made-with="vivus-instant">.XbvvvDda_0{stroke-dasharray:62436 62438;stroke-dashoffset:62437;animation:XbvvvDda_draw 4000ms linear 0ms forwards;}.XbvvvDda_1{stroke-dasharray:40514 40516;stroke-dashoffset:40515;animation:XbvvvDda_draw 4000ms linear 0ms forwards;}.XbvvvDda_2{stroke-dasharray:31628 31630;stroke-dashoffset:31629;animation:XbvvvDda_draw 4000ms linear 0ms forwards;}.XbvvvDda_3{stroke-dasharray:4430 4432;stroke-dashoffset:4431;animation:XbvvvDda_draw 4000ms linear 0ms forwards;}.XbvvvDda_4{stroke-dasharray:4277 4279;stroke-dashoffset:4278;animation:XbvvvDda_draw 4000ms linear 0ms forwards;}.XbvvvDda_5{stroke-dasharray:2519 2521;stroke-dashoffset:2520;animation:XbvvvDda_draw 4000ms linear 0ms forwards;}.XbvvvDda_6{stroke-dasharray:2899 2901;stroke-dashoffset:2900;animation:XbvvvDda_draw 4000ms linear 0ms forwards;}.XbvvvDda_7{stroke-dasharray:2717 2719;stroke-dashoffset:2718;animation:XbvvvDda_draw 4000ms linear 0ms forwards;}.XbvvvDda_8{stroke-dasharray:2632 2634;stroke-dashoffset:2633;animation:XbvvvDda_draw 4000ms linear 0ms forwards;}.XbvvvDda_9{stroke-dasharray:2148 2150;stroke-dashoffset:2149;animation:XbvvvDda_draw 4000ms linear 0ms forwards;}.XbvvvDda_10{stroke-dasharray:1895 1897;stroke-dashoffset:1896;animation:XbvvvDda_draw 4000ms linear 0ms forwards;}.XbvvvDda_11{stroke-dasharray:2365 2367;stroke-dashoffset:2366;animation:XbvvvDda_draw 4000ms linear 0ms forwards;}.XbvvvDda_12{stroke-dasharray:1933 1935;stroke-dashoffset:1934;animation:XbvvvDda_draw 4000ms linear 0ms forwards;}.XbvvvDda_13{stroke-dasharray:2096 2098;stroke-dashoffset:2097;animation:XbvvvDda_draw 4000ms linear 0ms forwards;}.XbvvvDda_14{stroke-dasharray:1919 1921;stroke-dashoffset:1920;animation:XbvvvDda_draw 4000ms linear 0ms forwards;}.XbvvvDda_15{stroke-dasharray:1986 1988;stroke-dashoffset:1987;animation:XbvvvDda_draw 4000ms linear 0ms forwards;}.XbvvvDda_16{stroke-dasharray:2082 2084;stroke-dashoffset:2083;animation:XbvvvDda_draw 4000ms linear 0ms forwards;}.XbvvvDda_17{stroke-dasharray:2097 2099;stroke-dashoffset:2098;animation:XbvvvDda_draw 4000ms linear 0ms forwards;}.XbvvvDda_18{stroke-dasharray:1940 1942;stroke-dashoffset:1941;animation:XbvvvDda_draw 4000ms linear 0ms forwards;}.XbvvvDda_19{stroke-dasharray:1885 1887;stroke-dashoffset:1886;animation:XbvvvDda_draw 4000ms linear 0ms forwards;}.XbvvvDda_20{stroke-dasharray:1432 1434;stroke-dashoffset:1433;animation:XbvvvDda_draw 4000ms linear 0ms forwards;}.XbvvvDda_21{stroke-dasharray:1877 1879;stroke-dashoffset:1878;animation:XbvvvDda_draw 4000ms linear 0ms forwards;}.XbvvvDda_22{stroke-dasharray:1894 1896;stroke-dashoffset:1895;animation:XbvvvDda_draw 4000ms linear 0ms forwards;}.XbvvvDda_23{stroke-dasharray:1859 1861;stroke-dashoffset:1860;animation:XbvvvDda_draw 4000ms linear 0ms forwards;}.XbvvvDda_24{stroke-dasharray:1834 1836;stroke-dashoffset:1835;animation:XbvvvDda_draw 4000ms linear 0ms forwards;}.XbvvvDda_25{stroke-dasharray:1816 1818;stroke-dashoffset:1817;animation:XbvvvDda_draw 4000ms linear 0ms forwards;}.XbvvvDda_26{stroke-dasharray:2065 2067;stroke-dashoffset:2066;animation:XbvvvDda_draw 4000ms linear 0ms forwards;}.XbvvvDda_27{stroke-dasharray:2066 2068;stroke-dashoffset:2067;animation:XbvvvDda_draw 4000ms linear 0ms forwards;}.XbvvvDda_28{stroke-dasharray:1806 1808;stroke-dashoffset:1807;animation:XbvvvDda_draw 4000ms linear 0ms forwards;}.XbvvvDda_29{stroke-dasharray:1823 1825;stroke-dashoffset:1824;animation:XbvvvDda_draw 4000ms linear 0ms forwards;}.XbvvvDda_30{stroke-dasharray:1811 1813;stroke-dashoffset:1812;animation:XbvvvDda_draw 4000ms linear 0ms forwards;}.XbvvvDda_31{stroke-dasharray:1797 1799;stroke-dashoffset:1798;animation:XbvvvDda_draw 4000ms linear 0ms forwards;}.XbvvvDda_32{stroke-dasharray:1581 1583;stroke-dashoffset:1582;animation:XbvvvDda_draw 4000ms linear 0ms forwards;}.XbvvvDda_33{stroke-dasharray:1633 1635;stroke-dashoffset:1634;animation:XbvvvDda_draw 4000ms linear 0ms forwards;}.XbvvvDda_34{stroke-dasharray:1702 1704;stroke-dashoffset:1703;animation:XbvvvDda_draw 4000ms linear 0ms forwards;}.XbvvvDda_35{stroke-dasharray:1614 1616;stroke-dashoffset:1615;animation:XbvvvDda_draw 4000ms linear 0ms forwards;}.XbvvvDda_36{stroke-dasharray:1035 1037;stroke-dashoffset:1036;animation:XbvvvDda_draw 4000ms linear 0ms forwards;}.XbvvvDda_37{stroke-dasharray:897 899;stroke-dashoffset:898;animation:XbvvvDda_draw 4000ms linear 0ms forwards;}.XbvvvDda_38{stroke-dasharray:799 801;stroke-dashoffset:800;animation:XbvvvDda_draw 4000ms linear 0ms forwards;}.XbvvvDda_39{stroke-dasharray:1345 1347;stroke-dashoffset:1346;animation:XbvvvDda_draw 4000ms linear 0ms forwards;}.XbvvvDda_40{stroke-dasharray:810 812;stroke-dashoffset:811;animation:XbvvvDda_draw 4000ms linear 0ms forwards;}.XbvvvDda_41{stroke-dasharray:1131 1133;stroke-dashoffset:1132;animation:XbvvvDda_draw 4000ms linear 0ms forwards;}.XbvvvDda_42{stroke-dasharray:731 733;stroke-dashoffset:732;animation:XbvvvDda_draw 4000ms linear 0ms forwards;}.XbvvvDda_43{stroke-dasharray:719 721;stroke-dashoffset:720;animation:XbvvvDda_draw 4000ms linear 0ms forwards;}.XbvvvDda_44{stroke-dasharray:770 772;stroke-dashoffset:771;animation:XbvvvDda_draw 4000ms linear 0ms forwards;}.XbvvvDda_45{stroke-dasharray:700 702;stroke-dashoffset:701;animation:XbvvvDda_draw 4000ms linear 0ms forwards;}.XbvvvDda_46{stroke-dasharray:731 733;stroke-dashoffset:732;animation:XbvvvDda_draw 4000ms linear 0ms forwards;}.XbvvvDda_47{stroke-dasharray:691 693;stroke-dashoffset:692;animation:XbvvvDda_draw 4000ms linear 0ms forwards;}.XbvvvDda_48{stroke-dasharray:673 675;stroke-dashoffset:674;animation:XbvvvDda_draw 4000ms linear 0ms forwards;}.XbvvvDda_49{stroke-dasharray:676 678;stroke-dashoffset:677;animation:XbvvvDda_draw 4000ms linear 0ms forwards;}.XbvvvDda_50{stroke-dasharray:657 659;stroke-dashoffset:658;animation:XbvvvDda_draw 4000ms linear 0ms forwards;}.XbvvvDda_51{stroke-dasharray:612 614;stroke-dashoffset:613;animation:XbvvvDda_draw 4000ms linear 0ms forwards;}.XbvvvDda_52{stroke-dasharray:1344 1346;stroke-dashoffset:1345;animation:XbvvvDda_draw 4000ms linear 0ms forwards;}.XbvvvDda_53{stroke-dasharray:592 594;stroke-dashoffset:593;animation:XbvvvDda_draw 4000ms linear 0ms forwards;}.XbvvvDda_54{stroke-dasharray:1133 1135;stroke-dashoffset:1134;animation:XbvvvDda_draw 4000ms linear 0ms forwards;}.XbvvvDda_55{stroke-dasharray:566 568;stroke-dashoffset:567;animation:XbvvvDda_draw 4000ms linear 0ms forwards;}.XbvvvDda_56{stroke-dasharray:579 581;stroke-dashoffset:580;animation:XbvvvDda_draw 4000ms linear 0ms forwards;}.XbvvvDda_57{stroke-dasharray:578 580;stroke-dashoffset:579;animation:XbvvvDda_draw 4000ms linear 0ms forwards;}.XbvvvDda_58{stroke-dasharray:571 573;stroke-dashoffset:572;animation:XbvvvDda_draw 4000ms linear 0ms forwards;}.XbvvvDda_59{stroke-dasharray:514 516;stroke-dashoffset:515;animation:XbvvvDda_draw 4000ms linear 0ms forwards;}.XbvvvDda_60{stroke-dasharray:510 512;stroke-dashoffset:511;animation:XbvvvDda_draw 4000ms linear 0ms forwards;}.XbvvvDda_61{stroke-dasharray:455 457;stroke-dashoffset:456;animation:XbvvvDda_draw 4000ms linear 0ms forwards;}.XbvvvDda_62{stroke-dasharray:485 487;stroke-dashoffset:486;animation:XbvvvDda_draw 4000ms linear 0ms forwards;}.XbvvvDda_63{stroke-dasharray:465 467;stroke-dashoffset:466;animation:XbvvvDda_draw 4000ms linear 0ms forwards;}.XbvvvDda_64{stroke-dasharray:438 440;stroke-dashoffset:439;animation:XbvvvDda_draw 4000ms linear 0ms forwards;}.XbvvvDda_65{stroke-dasharray:446 448;stroke-dashoffset:447;animation:XbvvvDda_draw 4000ms linear 0ms forwards;}.XbvvvDda_66{stroke-dasharray:403 405;stroke-dashoffset:404;animation:XbvvvDda_draw 4000ms linear 0ms forwards;}.XbvvvDda_67{stroke-dasharray:498 500;stroke-dashoffset:499;animation:XbvvvDda_draw 5000ms linear 0ms forwards;}@keyframes XbvvvDda_draw{100%{stroke-dashoffset:0;}}@keyframes XbvvvDda_fade{0%{stroke-opacity:1;}95.1219512195122%{stroke-opacity:1;}100%{stroke-opacity:0;}}</style></svg>
